SplineFontDB: 3.2
FontName: SeriousShanns
FullName: Serious Shanns
FamilyName: Serious Shanns
Weight: Book
Copyright: https://github.com/kaBeech/serious-shanns/blob/main/LICENSE
Version: 6.0.0
ItalicAngle: 0
UnderlinePosition: 0
UnderlineWidth: 0
Ascent: 800
Descent: 200
InvalidEm: 0
sfntRevision: 0x00003333
LayerCount: 2
Layer: 0 0 "Back" 1
Layer: 1 0 "Fore" 0
XUID: [1021 45 630387186 12505762]
StyleMap: 0x0040
FSType: 4
OS2Version: 3
OS2_WeightWidthSlopeOnly: 0
OS2_UseTypoMetrics: 0
CreationTime: 1532631502
ModificationTime: 315532800
PfmFamily: 81
TTFWeight: 400
TTFWidth: 5
LineGap: 0
VLineGap: 0
Panose: 0 0 0 0 0 0 0 0 0 0
OS2TypoAscent: 613
OS2TypoAOffset: 0
OS2TypoDescent: -188
OS2TypoDOffset: 0
OS2TypoLinegap: 98
OS2WinAscent: 778
OS2WinAOffset: 0
OS2WinDescent: 308
OS2WinDOffset: 0
HheadAscent: 796
HheadAOffset: 0
HheadDescent: -317
HheadDOffset: 0
OS2SubXSize: 317
OS2SubYSize: 293
OS2SubXOff: 0
OS2SubYOff: 37
OS2SupXSize: 317
OS2SupYSize: 293
OS2SupXOff: 0
OS2SupYOff: 171
OS2StrikeYSize: 0
OS2StrikeYPos: 132
OS2CapHeight: 576
OS2XHeight: 485
OS2Vendor: 'NONE'
OS2CodePages: 00000001.00000000
OS2UnicodeRanges: 00000001.00000000.00000000.00000000
MarkAttachClasses: 1
DEI: 91125
LangName: 1033 "" "" "Normal" "FontForge 2.0 : Serious Shanns : 11-6-2024" "" "Version 0.2.0"
Encoding: UnicodeBmp
Compacted: 1
UnicodeInterp: none
NameList: AGL For New Fonts
DisplaySize: -48
AntiAlias: 1
FitToEm: 0
WinInfo: 0 16 11
BeginPrivate: 8
BlueValues 32 [-40 -6 502 523 708 718 765 769]
OtherBlues 11 [-297 -287]
BlueScale 9 0.0291667
BlueShift 1 2
StdHW 4 [85]
StdVW 4 [96]
StemSnapH 7 [65 85]
StemSnapV 4 [96]
EndPrivate
BeginChars: 65537 97

StartChar: .notdef
Encoding: 65536 -1 0
Width: 670
GlyphClass: 1
Flags: W
HStem: -268 54<174 495> 695 54<174 495>
VStem: 121 53<-214 695> 495 54<-214 695>
LayerCount: 2
Fore
SplineSet
121 -268 m 1
 121 749 l 1
 549 749 l 1
 549 -268 l 1
 121 -268 l 1
174 -214 m 1
 495 -214 l 1
 495 695 l 1
 174 695 l 1
 174 -214 l 1
EndSplineSet
EndChar

StartChar: exclam
Encoding: 33 33 1
Width: 670
GlyphClass: 2
Flags: HMW
HStem: -24.5727 153.613
VStem: 252.999 164.001 293.999 92.3857
LayerCount: 2
Fore
SplineSet
394.002929688 738 m 0xa0
 394.002929688 732 392.500976562 688.16796875 389.500976562 606.500976562 c 0
 387.423828125 549.961914062 386.385742188 500.692382812 386.385742188 458.692382812 c 0
 386.385742188 440.026367188 386.590820312 422.795898438 387.000976562 407.000976562 c 0
 387.666992188 382.000976562 387.999023438 362.04296875 387.999023438 347.125976562 c 0
 387.999023438 332.208984375 387.666992188 322.333984375 386.999023438 317.5 c 0
 386.111328125 311.056640625 385.666992188 302.022460938 385.666992188 290.397460938 c 0
 385.666992188 284.580078125 385.778320312 278.114257812 386.000976562 271 c 0
 384.666992188 256.333007812 379.000976562 244.833007812 369.000976562 236.5 c 0
 359.741210938 228.784179688 348.768554688 224.926757812 336.081054688 224.926757812 c 0
 335.065429688 224.926757812 334.038085938 224.951171875 333.001953125 225.000976562 c 0
 319.668945312 225.000976562 308.668945312 229.333984375 300.001953125 238.000976562 c 0
 292.490234375 245.512695312 288.733398438 256.029296875 288.733398438 269.55078125 c 0
 288.733398438 271.629882812 288.823242188 273.780273438 289.000976562 276.001953125 c 0
 289.666992188 286.001953125 290.666992188 295.668945312 292.000976562 305.001953125 c 0
 293.333984375 314.334960938 294.166992188 322.16796875 294.499023438 328.500976562 c 0
 294.833007812 334.833984375 295.333007812 349.833984375 295.999023438 373.500976562 c 0
 296.166992188 379.41796875 296.249023438 385.762695312 296.249023438 392.534179688 c 0
 296.249023438 412.846679688 295.499023438 437.001953125 293.999023438 465.000976562 c 0
 293.333007812 491.000976562 292.833007812 518.500976562 292.499023438 547.500976562 c 0
 292.388671875 557.158203125 292.333007812 566.279296875 292.333007812 574.864257812 c 0
 292.333007812 592.059570312 292.555664062 607.10546875 293.000976562 620 c 0
 293.666992188 639.333007812 294.334960938 661.333007812 295.001953125 686 c 0
 295.668945312 710.666992188 296.001953125 727 296.001953125 735 c 0
 296.668945312 753 301.834960938 766.666992188 311.502929688 776 c 0
 321.169921875 785.333007812 333.002929688 790 347.002929688 790 c 0
 348.002929688 790.047851562 348.989257812 790.071289062 349.962890625 790.071289062 c 0
 362.608398438 790.071289062 372.955078125 786.047851562 381.002929688 778 c 0
 389.669921875 769.333007812 394.002929688 756 394.002929688 738 c 0xa0
337.000976562 -23.9990234375 m 0
 333.475585938 -24.3798828125 330.041992188 -24.5703125 326.700195312 -24.5703125 c 0
 306.661132812 -24.5703125 289.927734375 -17.7158203125 276.499023438 -4.0029296875 c 0
 260.833007812 11.9970703125 252.999023438 31.330078125 252.999023438 53.9970703125 c 0
 252.999023438 73.9970703125 261.833007812 91.330078125 279.499023438 105.997070312 c 0
 297.166992188 120.6640625 316.333984375 128.331054688 337.000976562 128.998046875 c 0
 338.038085938 129.02734375 339.067382812 129.041992188 340.088867188 129.041992188 c 0
 362.030273438 129.041992188 380.166992188 122.194335938 394.500976562 108.499023438 c 0
 409.500976562 94.166015625 417.000976562 76.3330078125 417.000976562 55 c 0xc0
 417.000976562 33.6669921875 409.666992188 15.833984375 395.000976562 1.5009765625 c 0
 380.333984375 -12.83203125 361.000976562 -21.33203125 337.000976562 -23.9990234375 c 0
EndSplineSet
EndChar

StartChar: quotedbl
Encoding: 34 34 2
Width: 670
GlyphClass: 2
Flags: HMW
VStem: 205.484 101.426 363.436 103.475
LayerCount: 2
Fore
SplineSet
307.912109375 738 m 0
 308.133789062 728.908203125 308.244140625 717.880859375 308.244140625 704.916015625 c 0
 308.244140625 678.904296875 307.797851562 645.09765625 306.908203125 603.498046875 c 0
 305.575195312 541.165039062 303.2421875 498.33203125 299.909179688 474.999023438 c 0
 297.909179688 461.666015625 292.2421875 451.666015625 282.909179688 444.999023438 c 0
 274.424804688 438.938476562 265.114257812 435.908203125 254.977539062 435.908203125 c 0
 253.963867188 435.908203125 252.94140625 435.938476562 251.911132812 435.999023438 c 0
 238.578125 436.666015625 226.745117188 440.833007812 216.412109375 448.5 c 0
 207.259765625 455.291015625 202.68359375 464.565429688 202.68359375 476.32421875 c 0
 202.68359375 480.546875 205.483398438 511.731445312 205.483398438 589.744140625 c 0
 205.483398438 596.965820312 205.459960938 604.383789062 205.412109375 611.999023438 c 0
 205.079101562 665.33203125 203.912109375 709.33203125 201.912109375 743.999023438 c 0
 201.245117188 751.999023438 202.745117188 758.83203125 206.412109375 764.499023438 c 0
 210.079101562 770.166015625 214.912109375 774.333007812 220.912109375 777 c 0
 226.912109375 779.666992188 233.079101562 781.5 239.412109375 782.5 c 0
 245.745117188 783.5 251.912109375 783.666992188 257.912109375 783 c 0
 263.912109375 783 269.579101562 782.333007812 274.912109375 781 c 0
 280.245117188 779.666992188 285.412109375 777.5 290.412109375 774.5 c 0
 295.412109375 771.5 299.579101562 766.833007812 302.912109375 760.5 c 0
 306.245117188 754.166992188 307.912109375 746.666992188 307.912109375 738 c 0
467.908203125 737.997070312 m 0
 468.130859375 728.875976562 468.241210938 717.805664062 468.241210938 704.786132812 c 0
 468.241210938 678.791015625 467.797851562 645.026367188 466.91015625 603.495117188 c 0
 465.577148438 541.162109375 463.577148438 498.329101562 460.91015625 474.99609375 c 0
 458.91015625 461.663085938 453.077148438 451.663085938 443.41015625 444.99609375 c 0
 434.622070312 438.935546875 425.420898438 435.905273438 415.806640625 435.905273438 c 0
 414.844726562 435.905273438 413.87890625 435.935546875 412.909179688 435.99609375 c 0
 399.576171875 436.663085938 387.576171875 440.830078125 376.909179688 448.497070312 c 0
 367.926757812 454.953125 363.435546875 463.654296875 363.435546875 474.6015625 c 0
 363.435546875 476.654296875 363.59375 478.786132812 363.909179688 480.997070312 c 0
 365.409179688 506.49609375 366.159179688 537.432617188 366.159179688 573.805664062 c 0
 366.159179688 585.931640625 366.076171875 598.662109375 365.909179688 611.99609375 c 0
 365.2421875 665.329101562 363.909179688 709.329101562 361.909179688 743.99609375 c 0
 361.909179688 751.99609375 363.7421875 758.829101562 367.409179688 764.49609375 c 0
 371.076171875 770.163085938 375.909179688 774.330078125 381.909179688 776.997070312 c 0
 387.909179688 779.6640625 393.909179688 781.497070312 399.909179688 782.497070312 c 0
 405.909179688 783.497070312 411.909179688 783.6640625 417.909179688 782.997070312 c 0
 423.909179688 782.997070312 429.576171875 782.330078125 434.909179688 780.997070312 c 0
 440.2421875 779.6640625 445.575195312 777.497070312 450.908203125 774.497070312 c 0
 456.241210938 771.497070312 460.408203125 766.830078125 463.408203125 760.497070312 c 0
 466.408203125 754.1640625 467.908203125 746.6640625 467.908203125 737.997070312 c 0
EndSplineSet
EndChar

StartChar: numbersign
Encoding: 35 35 3
Width: 670
GlyphClass: 2
Flags: HMW
HStem: 192 82 445 84 697.667 20G
LayerCount: 2
Fore
SplineSet
221.041015625 42 m 0
 216.374023438 28 206.706054688 16.4990234375 192.0390625 7.4990234375 c 0
 181.884765625 1.2685546875 172.209960938 -1.8466796875 163.014648438 -1.8466796875 c 0
 158.927734375 -1.8466796875 154.935546875 -1.2314453125 151.038085938 -0.0009765625 c 0
 138.37109375 2.666015625 129.038085938 11.166015625 123.038085938 25.4990234375 c 0
 119.861328125 33.0869140625 118.2734375 41.095703125 118.2734375 49.5244140625 c 0
 118.2734375 57.0166015625 119.528320312 64.8408203125 122.038085938 72.998046875 c 0
 127.37109375 90.998046875 136.704101562 129.665039062 150.037109375 188.998046875 c 1
 120.037109375 188.998046875 l 2
 103.370117188 188.998046875 90.703125 192.331054688 82.0361328125 198.998046875 c 0
 69.291015625 208.801757812 68.958984375 221.170898438 68.958984375 228.732421875 c 0
 68.958984375 239.524414062 72.6513671875 248.61328125 80.0361328125 255.998046875 c 0
 88.0361328125 263.998046875 100.703125 268.665039062 118.036132812 269.998046875 c 0
 123.369140625 269.998046875 131.536132812 270.165039062 142.536132812 270.498046875 c 0
 153.536132812 270.831054688 161.703125 270.998046875 167.036132812 270.998046875 c 1
 201.036132812 443.998046875 l 1
 195.703125 443.998046875 188.370117188 443.831054688 179.037109375 443.498046875 c 0
 169.704101562 443.165039062 163.37109375 442.998046875 160.038085938 442.998046875 c 0
 158.704101562 442.944335938 157.39453125 442.91796875 156.109375 442.91796875 c 0
 141.340820312 442.91796875 129.817382812 446.444335938 121.538085938 453.498046875 c 0
 108.28125 464.791015625 107.965820312 477.244140625 107.965820312 484.541992188 c 0
 107.965820312 495.44140625 111.989257812 504.759765625 120.037109375 512.497070312 c 0
 128.704101562 520.830078125 141.704101562 525.330078125 159.037109375 525.997070312 c 0
 171.704101562 526.6640625 191.037109375 526.997070312 217.037109375 526.997070312 c 1
 235.704101562 627.6640625 245.37109375 679.6640625 246.038085938 682.997070312 c 0
 251.37109375 699.6640625 259.704101562 711.331054688 271.037109375 717.998046875 c 0
 278.592773438 722.443359375 286.296875 724.666015625 294.149414062 724.666015625 c 0
 298.075195312 724.666015625 302.038085938 724.110351562 306.038085938 722.999023438 c 0
 320.038085938 720.33203125 330.87109375 713.665039062 338.538085938 702.998046875 c 0
 343.881835938 695.563476562 346.553710938 686.509765625 346.553710938 675.836914062 c 0
 346.553710938 671.197265625 346.048828125 666.250976562 345.0390625 660.999023438 c 2
 318.0390625 528.999023438 l 1
 431.0390625 528.999023438 l 1
 458.0390625 674.999023438 l 2
 463.372070312 692.33203125 471.5390625 704.33203125 482.5390625 710.999023438 c 0
 489.873046875 715.444335938 497.725585938 717.666992188 506.096679688 717.666992188 c 0
 510.28125 717.666992188 514.595703125 717.111328125 519.040039062 716 c 0
 533.70703125 713.333007812 544.70703125 706.666015625 552.040039062 695.999023438 c 0
 556.78515625 689.096679688 559.158203125 680.798828125 559.158203125 671.10546875 c 0
 559.158203125 665.818359375 558.452148438 660.116210938 557.040039062 653.999023438 c 0
 549.70703125 625.999023438 541.374023438 584.999023438 532.041015625 530.999023438 c 1
 543.041015625 530.999023438 l 2
 559.041015625 530.999023438 572.541015625 526.499023438 583.541015625 517.499023438 c 0
 594.541015625 508.499023438 600.374023438 498.999023438 601.041015625 488.999023438 c 0
 601.041015625 476.999023438 597.041015625 466.83203125 589.041015625 458.499023438 c 0
 581.041015625 450.166015625 568.708007812 445.666015625 552.041015625 444.999023438 c 2
 516.041015625 444.999023438 l 1
 487.041015625 273.999023438 l 1
 528.041015625 273.999023438 l 2
 543.374023438 273.999023438 554.041015625 270.499023438 560.041015625 263.499023438 c 0
 566.041015625 256.499023438 569.374023438 247.33203125 570.041015625 235.999023438 c 0
 570.041015625 206.666015625 556.041015625 191.999023438 528.041015625 191.999023438 c 2
 472.041015625 191.999023438 l 1
 458.708007812 115.999023438 449.041015625 64.666015625 443.041015625 37.9990234375 c 0
 437.708007812 23.9990234375 428.208007812 13.166015625 414.541015625 5.4990234375 c 0
 405.559570312 0.4609375 396.650390625 -2.0576171875 387.813476562 -2.0576171875 c 0
 383.203125 -2.0576171875 378.612304688 -1.3720703125 374.041015625 -0.0009765625 c 0
 361.374023438 2.666015625 352.041015625 10.4990234375 346.041015625 23.4990234375 c 0
 342.864257812 30.380859375 341.276367188 37.77734375 341.276367188 45.6875 c 0
 341.276367188 52.71875 342.53125 60.15625 345.041015625 68 c 0
 351.708007812 94.6669921875 360.375 135.666992188 371.041992188 191 c 1
 357.041992188 191 336.708984375 190.833007812 310.041992188 190.5 c 0
 283.375 190.166992188 263.708007812 190 251.041015625 190 c 1
 237.041015625 118 227.041015625 68.6669921875 221.041015625 42 c 0
302.040039062 444.999023438 m 1
 267.041015625 273.998046875 l 1
 294.374023438 274.665039062 333.70703125 274.998046875 385.040039062 274.998046875 c 1
 395.70703125 329.665039062 406.040039062 386.33203125 416.040039062 444.999023438 c 1
 302.040039062 444.999023438 l 1
EndSplineSet
EndChar

StartChar: dollar
Encoding: 36 36 4
Width: 670
GlyphClass: 2
Flags: HMW
HStem: -28.9932 84.9932 642.998 79.002
VStem: 108.499 92.001 296.499 87.001 486.501 92.999
LayerCount: 2
Fore
SplineSet
376.5 -99 m 0
 375.16796875 -113.666992188 369.5 -124.993164062 359.5 -132.993164062 c 0
 349.5 -140.993164062 337.833007812 -144.993164062 324.5 -144.993164062 c 0
 311.833007812 -144.993164062 302.333007812 -140.493164062 296 -131.493164062 c 0
 290.76953125 -124.05859375 288.15234375 -114.0078125 288.15234375 -101.340820312 c 0
 288.15234375 -98.6748046875 288.26953125 -95.892578125 288.5 -92.994140625 c 0
 289.388671875 -82.330078125 289.833007812 -69.296875 289.833007812 -53.89453125 c 0
 289.833007812 -46.1875 289.72265625 -37.8876953125 289.5 -28.994140625 c 1
 286.5 -28.994140625 l 2
 262.5 -28.994140625 240 -25.994140625 219 -19.994140625 c 0
 198 -13.994140625 180 -5.994140625 165 4.005859375 c 0
 150 14.005859375 137 24.6728515625 126 36.005859375 c 0
 115 47.3388671875 106.166015625 59.671875 99.5 73.0048828125 c 0
 93.5 86.5048828125 90.5 98.1298828125 90.5 107.879882812 c 0
 90.5 111.129882812 90.83203125 114.171875 91.5 117.004882812 c 0
 94.166015625 128.337890625 101.166015625 136.670898438 112.5 142.00390625 c 0
 120.5 145.336914062 126.83203125 147.669921875 131.5 149.002929688 c 0
 136.166015625 150.3359375 141.333007812 150.668945312 147 150.001953125 c 0
 152.66796875 149.334960938 158.16796875 146.66796875 163.5 142.000976562 c 0
 168.833007812 137.333984375 174.5 130.666992188 180.5 122 c 0
 193.833007812 101.333007812 209.166015625 85.166015625 226.5 73.4990234375 c 0
 243.83203125 61.83203125 264.83203125 55.9990234375 289.5 55.9990234375 c 2
 293.5 55.9990234375 l 1
 294.83203125 167.33203125 295.5 266.665039062 295.5 353.998046875 c 1
 292.166015625 353.998046875 286.333007812 354.665039062 278 355.998046875 c 0
 269.66796875 357.331054688 263.5 357.998046875 259.5 357.998046875 c 0
 235.5 360.665039062 213.5 366.998046875 193.5 376.998046875 c 0
 173.5 386.998046875 157.66796875 399.165039062 146 413.498046875 c 0
 134.333984375 427.831054688 125.166015625 442.831054688 118.5 458.498046875 c 0
 111.83203125 474.165039062 108.5 489.998046875 108.5 505.998046875 c 0
 108.5 529.998046875 112.166015625 552.998046875 119.5 574.998046875 c 0
 126.83203125 596.998046875 138 617.498046875 153 636.498046875 c 0
 168 655.498046875 187.5 671.831054688 211.5 685.498046875 c 0
 235.5 699.165039062 263.83203125 708.665039062 296.5 713.998046875 c 1
 297.166015625 729.998046875 297.5 749.331054688 297.5 771.998046875 c 0
 298.166015625 808.665039062 311.833007812 826.998046875 338.5 826.998046875 c 0
 339.055664062 827.010742188 339.606445312 827.016601562 340.15234375 827.016601562 c 0
 369.05078125 827.016601562 383.5 809.677734375 383.5 774.999023438 c 2
 383.5 721.999023438 l 1
 398.16796875 721.33203125 418.66796875 717.999023438 445 711.999023438 c 0
 471.333007812 705.999023438 490.833007812 700.33203125 503.5 694.999023438 c 0
 516.16796875 690.33203125 525.16796875 682.999023438 530.5 672.999023438 c 0
 534.766601562 664.999023438 536.899414062 656.572265625 536.899414062 647.71875 c 0
 536.899414062 645.505859375 536.766601562 643.266601562 536.5 641 c 0
 535.833007812 633 533.333007812 626.833007812 529 622.5 c 0
 524.66796875 618.166992188 519.333984375 615.5 513.000976562 614.5 c 0
 506.66796875 613.5 500.66796875 613.333007812 495.000976562 614 c 0
 489.333984375 614.666992188 483.16796875 615.666992188 476.5 617 c 0
 470.5 618.333007812 463 621.166015625 454 625.499023438 c 0
 445 629.83203125 434.833007812 633.665039062 423.5 636.998046875 c 0
 412.16796875 640.331054688 398.5 642.331054688 382.5 642.998046875 c 1
 381.833007812 589.665039062 380.5 518.998046875 378.5 430.998046875 c 1
 409.16796875 426.998046875 436.5 419.831054688 460.5 409.498046875 c 0
 484.5 399.165039062 503.66796875 387.33203125 518 373.999023438 c 0
 532.333007812 360.666015625 544.5 345.333007812 554.5 328 c 0
 564.5 310.666992188 571.16796875 293.666992188 574.5 277 c 0
 577.833007812 260.333007812 579.5 243 579.5 225 c 0
 579.5 194.333007812 574.333007812 165.333007812 564 138 c 0
 553.66796875 110.666992188 539.16796875 87 520.5 67 c 0
 501.833007812 47 480.166015625 29.6669921875 455.5 15 c 0
 430.83203125 0.3330078125 403.83203125 -10.6669921875 374.5 -18 c 1
 375.166015625 -58 375.833007812 -85 376.5 -99 c 0
200.5 531.006835938 m 0
 200.5 509.673828125 209.000976562 491.006835938 226.000976562 475.006835938 c 0
 243.000976562 459.006835938 266.16796875 447.673828125 295.500976562 441.006835938 c 1
 296.16796875 487.006835938 296.500976562 551.006835938 296.500976562 633.006835938 c 1
 267.833984375 624.33984375 244.66796875 611.33984375 227 594.006835938 c 0
 209.333007812 576.673828125 200.5 555.673828125 200.5 531.006835938 c 0
486.500976562 208.006835938 m 0
 486.500976562 220.673828125 484.83203125 232.340820312 481.5 243.0078125 c 0
 478.166015625 253.674804688 472.833007812 264.841796875 465.5 276.508789062 c 0
 458.16796875 288.17578125 447.16796875 299.008789062 432.5 309.008789062 c 0
 417.833007812 319.008789062 399.5 327.67578125 377.5 335.008789062 c 1
 377.5 305.67578125 377.333007812 261.508789062 377 202.508789062 c 0
 376.66796875 143.508789062 375.833984375 100.67578125 374.500976562 74.0087890625 c 1
 406.500976562 87.341796875 433.16796875 105.674804688 454.500976562 129.0078125 c 0
 475.833984375 152.340820312 486.500976562 178.673828125 486.500976562 208.006835938 c 0
EndSplineSet
EndChar

StartChar: percent
Encoding: 37 37 5
Width: 670
GlyphClass: 2
Flags: HMW
HStem: -28.0313 75.9731 170.999 74 432 75<203.126 211.459 203.126 214.125> 632 73
VStem: 76.1255 71.919 256.188 70.301 344.056 71.992 463.124 88.8789 522.143 71.7321
LayerCount: 2
Fore
SplineSet
192.125 432 m 0xfe
 168.791992188 432 147.958984375 438.5 129.625 451.5 c 0
 111.29296875 464.5 97.79296875 480.833007812 89.125 500.5 c 0
 80.458984375 520.166992188 76.125 541.333984375 76.125 564.000976562 c 0
 76.125 605.333984375 87.625 639.166992188 110.625 665.5 c 0
 133.625 691.833007812 166.125 705 208.125 705 c 0
 224.79296875 705 240.29296875 702.166992188 254.625 696.5 c 0
 268.958984375 690.833007812 281.791992188 682.333007812 293.125 671 c 0
 304.45703125 659.666992188 313.125 644.166992188 319.125 624.5 c 0
 324.034179688 608.408203125 326.48828125 590.197265625 326.48828125 569.866210938 c 0
 326.48828125 565.348632812 326.3671875 560.7265625 326.125 556 c 0
 324.125 515.333007812 312.291992188 484.5 290.625 463.5 c 0
 268.95703125 442.5 236.125 432 192.125 432 c 0xfe
101.125 19 m 0
 115.125 47.6669921875 148.29296875 107.833984375 200.625 199.500976562 c 0
 252.958984375 291.16796875 305.291992188 383.66796875 357.625 477.000976562 c 0
 409.95703125 570.333984375 445.125 637.000976562 463.125 677.000976562 c 0
 471.125 689.000976562 481.625 696.500976562 494.625 699.500976562 c 0
 498.659179688 700.431640625 502.61328125 700.897460938 506.487304688 700.897460938 c 0
 515.095703125 700.897460938 523.30859375 698.598632812 531.124023438 694.000976562 c 0
 537.794921875 691.036132812 552.002929688 683.4609375 552.002929688 665.655273438 c 0xff
 552.002929688 656.331054688 548.04296875 645.446289062 540.125 633.001953125 c 0
 515.45703125 592.334960938 456.625 488.66796875 363.625 322.000976562 c 0
 270.625 155.333984375 209.125 42.6669921875 179.125 -16 c 0
 166.32421875 -39.630859375 151.889648438 -51.4462890625 135.818359375 -51.4462890625 c 0
 130.125 -51.4462890625 124.228515625 -49.9638671875 118.125 -47 c 0
 101.193359375 -38.95703125 92.728515625 -27.15234375 92.728515625 -11.5849609375 c 0
 92.728515625 -2.6337890625 95.52734375 7.5615234375 101.125 19 c 0
203.125 507 m 0
 219.79296875 507 232.291992188 512.333007812 240.625 523 c 0
 253.095703125 538.962890625 256.1875 561.026367188 256.1875 570.180664062 c 0
 256.1875 590.727539062 251.5 606.000976562 242.125 616.000976562 c 0
 232.125 626.66796875 218.125 632.000976562 200.125 632.000976562 c 0
 184.125 632.000976562 171.79296875 626.16796875 163.125 614.500976562 c 0
 160.20703125 610.572265625 148.045898438 592.4140625 148.045898438 562.6015625 c 0
 148.045898438 546.06640625 151.572265625 533.19921875 158.625 524 c 0
 166.29296875 514 181.125 508.333007812 203.125 507 c 0
459.125 -28 m 0
 435.791992188 -28 415.125 -21.5 397.125 -8.5 c 0
 379.125 4.5 365.625 20.8330078125 356.625 40.5 c 0
 348.24609375 58.810546875 344.0546875 78.4208984375 344.0546875 99.3310546875 c 0
 344.0546875 122.313476562 345.23046875 167.287109375 378.125 205.5 c 0
 400.791992188 231.833007812 433.125 245 475.125 245 c 0
 491.791992188 245 507.291992188 242.333007812 521.625 237 c 0
 535.95703125 231.666992188 548.95703125 223.166992188 560.625 211.5 c 0
 572.291992188 199.833007812 581.125 184.166015625 587.125 164.499023438 c 0
 591.625 149.749023438 593.875 133.217773438 593.875 114.905273438 c 0xfe80
 593.875 108.80078125 593.625 102.499023438 593.125 95.9990234375 c 0
 591.125 55.33203125 579.291992188 24.33203125 557.625 2.9990234375 c 0
 536.615234375 -17.6875 505.10546875 -28.0302734375 463.095703125 -28.0302734375 c 0
 461.78125 -28.0302734375 460.458984375 -28.0205078125 459.125 -28 c 0
470.125 48 m 0
 471.0390625 47.9619140625 471.94140625 47.9443359375 472.83203125 47.9443359375 c 0
 487.522460938 47.9443359375 498.953125 53.1298828125 507.125 63.5009765625 c 0
 508.499023438 65.2451171875 522.142578125 83.193359375 522.142578125 108.302734375 c 0
 522.142578125 150.1015625 504.13671875 171.000976562 468.125 171.000976562 c 0
 452.791992188 171.000976562 440.625 165.16796875 431.625 153.500976562 c 0
 428.4765625 149.418945312 416.046875 131.494140625 416.046875 102.913085938 c 0
 416.046875 86.8427734375 419.740234375 74.0380859375 427.125 64.5 c 0
 435.125 54.1669921875 449.45703125 48.6669921875 470.125 48 c 0
EndSplineSet
EndChar

StartChar: ampersand
Encoding: 38 38 6
Width: 670
GlyphClass: 2
Flags: HMW
HStem: -41.998 93.998 -40.3768 21G 645.001 79
VStem: 76.3799 100.997 163.379 95.998 397.377 83.002
LayerCount: 2
Fore
SplineSet
560.376953125 -35 m 0xac
 554.510742188 -38.5849609375 548.287109375 -40.3779296875 541.704101562 -40.3779296875 c 0x6c
 534.8203125 -40.3779296875 527.544921875 -38.41796875 519.876953125 -34.4990234375 c 0
 504.876953125 -26.83203125 491.709960938 -13.6650390625 480.376953125 5.001953125 c 0
 479.043945312 8.3349609375 475.2109375 18.3349609375 468.877929688 35.001953125 c 0
 462.544921875 51.6689453125 457.711914062 63.6689453125 454.37890625 71.001953125 c 1
 452.37890625 68.3349609375 448.045898438 62.66796875 441.37890625 54.0009765625 c 0
 434.711914062 45.333984375 429.711914062 39.0009765625 426.37890625 35.0009765625 c 0
 423.045898438 31.0009765625 417.712890625 25.0009765625 410.379882812 17.0009765625 c 0
 403.046875 9.0009765625 396.546875 2.833984375 390.879882812 -1.4990234375 c 0
 385.212890625 -5.83203125 377.879882812 -10.9990234375 368.879882812 -16.9990234375 c 0
 359.879882812 -22.9990234375 351.212890625 -27.4990234375 342.879882812 -30.4990234375 c 0
 334.546875 -33.4990234375 324.546875 -36.166015625 312.879882812 -38.4990234375 c 0
 301.212890625 -40.83203125 289.379882812 -41.9990234375 277.379882812 -41.9990234375 c 0
 240.046875 -41.9990234375 205.879882812 -32.33203125 174.879882812 -12.9990234375 c 0
 143.879882812 6.333984375 119.712890625 31.6669921875 102.379882812 63 c 0
 85.046875 94.3330078125 76.3798828125 128.333007812 76.3798828125 165 c 0xb4
 76.3798828125 291 128.379882812 376.666992188 232.379882812 422 c 1
 226.379882812 432 219.212890625 444 210.879882812 458 c 0
 202.546875 472 196.379882812 481.833007812 192.379882812 487.5 c 0
 188.379882812 493.166992188 184.046875 500.5 179.379882812 509.5 c 0
 174.712890625 518.5 171.545898438 526.333007812 169.87890625 533 c 0
 168.211914062 539.666992188 166.711914062 547.833984375 165.37890625 557.500976562 c 0
 164.045898438 567.16796875 163.37890625 577.66796875 163.37890625 589.000976562 c 0
 163.37890625 601.000976562 164.87890625 612.833984375 167.87890625 624.500976562 c 0
 170.87890625 636.16796875 176.545898438 648.16796875 184.87890625 660.500976562 c 0
 193.211914062 672.833984375 202.87890625 683.666992188 213.87890625 693 c 0
 224.87890625 702.333007812 239.87890625 709.833007812 258.87890625 715.5 c 0
 277.87890625 721.166992188 299.37890625 724 323.37890625 724 c 0
 342.711914062 724 361.711914062 721 380.37890625 715 c 0
 399.045898438 709 415.87890625 700.166992188 430.87890625 688.5 c 0
 445.87890625 676.833007812 457.87890625 661.5 466.87890625 642.5 c 0
 475.87890625 623.5 480.37890625 602.333007812 480.37890625 579 c 0
 480.37890625 557.666992188 477.711914062 537.833984375 472.37890625 519.500976562 c 0
 467.045898438 501.16796875 460.212890625 485.834960938 451.879882812 473.501953125 c 0
 443.546875 461.168945312 433.046875 449.3359375 420.379882812 438.002929688 c 0
 407.712890625 426.669921875 396.045898438 417.669921875 385.37890625 411.002929688 c 0
 374.711914062 404.3359375 362.37890625 397.668945312 348.37890625 391.001953125 c 1
 360.37890625 370.334960938 380.711914062 339.66796875 409.37890625 299.000976562 c 0
 438.045898438 258.333984375 456.37890625 231.333984375 464.37890625 218.000976562 c 1
 469.045898438 227.333984375 474.37890625 238.166992188 480.37890625 250.5 c 0
 486.37890625 262.833007812 490.87890625 272.833007812 493.87890625 280.5 c 0
 496.87890625 288.166992188 499.711914062 293.666992188 502.37890625 297 c 0
 514.37890625 314.333007812 525.87890625 325.166015625 536.87890625 329.499023438 c 0
 541.211914062 331.206054688 545.673828125 332.059570312 550.265625 332.059570312 c 0
 557.330078125 332.059570312 564.701171875 330.0390625 572.37890625 325.998046875 c 0
 583.711914062 320.665039062 590.544921875 310.83203125 592.877929688 296.499023438 c 0
 593.373046875 293.458984375 593.620117188 290.336914062 593.620117188 287.131835938 c 0
 593.620117188 275.225585938 590.206054688 262.181640625 583.376953125 247.999023438 c 0
 580.043945312 241.999023438 570.043945312 228.666015625 553.376953125 207.999023438 c 0
 536.709960938 187.33203125 523.376953125 168.33203125 513.376953125 150.999023438 c 1
 520.709960938 138.33203125 530.876953125 120.165039062 543.876953125 96.498046875 c 0
 556.876953125 72.8310546875 564.709960938 58.998046875 567.376953125 54.998046875 c 0
 575.485351562 42.025390625 579.5390625 27.9560546875 579.5390625 12.7919921875 c 0
 579.5390625 9.25390625 579.318359375 5.65625 578.876953125 1.9990234375 c 0
 576.543945312 -17.333984375 570.376953125 -29.6669921875 560.376953125 -35 c 0xac
259.377929688 572 m 0
 259.377929688 555.333007812 263.7109375 537 272.377929688 517 c 0
 281.044921875 497 291.711914062 479.333007812 304.37890625 464 c 1
 319.045898438 468.666992188 331.545898438 473.5 341.87890625 478.5 c 0
 352.211914062 483.5 362.044921875 490 371.377929688 498 c 0
 380.7109375 506 387.377929688 515.833007812 391.377929688 527.5 c 0
 395.377929688 539.166992188 397.377929688 553 397.377929688 569 c 0
 397.377929688 593.666992188 389.877929688 612.5 374.877929688 625.5 c 0
 359.877929688 638.5 341.7109375 645 320.377929688 645 c 0
 279.7109375 645 259.377929688 620.666992188 259.377929688 572 c 0
177.377929688 174 m 0xb4
 177.377929688 139.333007812 186.708984375 110.33203125 205.375976562 86.9990234375 c 0
 224.04296875 63.666015625 248.375976562 51.9990234375 278.375976562 51.9990234375 c 0
 287.708984375 51.9990234375 296.875976562 52.9990234375 305.875976562 54.9990234375 c 0
 314.875976562 56.9990234375 322.54296875 58.9990234375 328.875976562 60.9990234375 c 0
 335.208984375 62.9990234375 341.875976562 66.33203125 348.875976562 70.9990234375 c 0
 355.875976562 75.666015625 361.375976562 79.4990234375 365.375976562 82.4990234375 c 0
 369.375976562 85.4990234375 374.208984375 90.166015625 379.875976562 96.4990234375 c 0
 385.54296875 102.83203125 389.209960938 107.33203125 390.876953125 109.999023438 c 0
 392.543945312 112.666015625 396.043945312 117.499023438 401.376953125 124.499023438 c 0
 406.709960938 131.499023438 409.709960938 135.666015625 410.376953125 136.999023438 c 0
 398.376953125 162.999023438 388.376953125 183.33203125 380.376953125 197.999023438 c 0
 372.376953125 213.33203125 356.209960938 238.33203125 331.876953125 272.999023438 c 0
 307.543945312 307.666015625 290.376953125 333.333007812 280.376953125 350 c 1
 260.376953125 341.333007812 243.209960938 330.5 228.876953125 317.5 c 0
 214.543945312 304.5 203.7109375 290.166992188 196.377929688 274.5 c 0
 189.044921875 258.833007812 184.044921875 243 181.377929688 227 c 0
 178.7109375 211 177.377929688 193.333007812 177.377929688 174 c 0xb4
EndSplineSet
EndChar

StartChar: quotesingle
Encoding: 39 39 7
Width: 670
GlyphClass: 2
Flags: HMW
HStem: 445.91 325.59
VStem: 281.834 106.332
LayerCount: 2
Fore
SplineSet
387.83203125 728 m 0
 388.0546875 719.106445312 388.166015625 708.600585938 388.166015625 696.482421875 c 0
 388.166015625 672.263671875 387.721679688 641.603515625 386.833007812 604.500976562 c 0
 385.5 548.833984375 383.166992188 509.333984375 379.833984375 486.000976562 c 0
 377.833984375 472.000976562 372.000976562 461.66796875 362.333984375 455.000976562 c 0
 353.545898438 448.940429688 344.344726562 445.91015625 334.73046875 445.91015625 c 0
 333.768554688 445.91015625 332.802734375 445.940429688 331.833007812 446.000976562 c 0
 318.5 446.66796875 306.666992188 451.000976562 296.333984375 459.000976562 c 0
 287.181640625 466.086914062 282.60546875 475.526367188 282.60546875 487.319335938 c 0
 282.60546875 490.916015625 285.083984375 520.942382812 285.083984375 578.998046875 c 0
 285.083984375 589.666015625 285.000976562 600.666992188 284.833984375 612.000976562 c 0
 284.166992188 657.333984375 283.166992188 697.666992188 281.833984375 733 c 0
 281.833984375 741 283.333984375 748 286.333984375 754 c 0
 289.333984375 760 294.000976562 764.166992188 300.333984375 766.5 c 0
 306.666992188 768.833007812 312.833984375 770.5 318.833984375 771.5 c 0
 324.833984375 772.5 330.833984375 772.666992188 336.833984375 772 c 0
 342.833984375 772 348.500976562 771.333007812 353.833984375 770 c 0
 359.166992188 768.666992188 364.5 766.5 369.833007812 763.5 c 0
 375.166015625 760.5 379.499023438 756 382.83203125 750 c 0
 386.165039062 744 387.83203125 736.666992188 387.83203125 728 c 0
EndSplineSet
EndChar

StartChar: parenleft
Encoding: 40 40 8
Width: 670
GlyphClass: 2
Flags: HMW
HStem: -130.998 83.998 733.002 81
VStem: 185.548 97.3819
LayerCount: 2
Fore
SplineSet
483.4296875 -93 m 0
 483.4296875 -103.666992188 479.09765625 -112.6640625 470.430664062 -119.997070312 c 0
 461.763671875 -127.330078125 452.763671875 -130.997070312 443.430664062 -130.997070312 c 0
 398.763671875 -130.997070312 358.263671875 -114.997070312 321.930664062 -82.9970703125 c 0
 285.59765625 -50.9970703125 255.930664062 -6.6640625 232.930664062 50.0029296875 c 0
 209.930664062 106.669921875 195.09765625 172.002929688 188.430664062 246.002929688 c 0
 186.508789062 266.04296875 185.547851562 288.569335938 185.547851562 313.58203125 c 0
 185.547851562 349.314453125 187.508789062 390.12109375 191.430664062 436.002929688 c 0
 198.09765625 514.002929688 211.09765625 578.3359375 230.430664062 629.002929688 c 0
 239.09765625 651.002929688 250.59765625 672.8359375 264.930664062 694.502929688 c 0
 279.263671875 716.169921875 295.596679688 736.002929688 313.9296875 754.002929688 c 0
 332.262695312 772.002929688 352.9296875 786.502929688 375.9296875 797.502929688 c 0
 398.9296875 808.502929688 421.762695312 814.002929688 444.4296875 814.002929688 c 0
 471.111328125 814.002929688 484.452148438 800.979492188 484.452148438 774.93359375 c 0
 484.452148438 767.493164062 484.306640625 751.90625 472.428710938 742.502929688 c 0
 464.428710938 736.169921875 454.428710938 733.002929688 442.428710938 733.002929688 c 0
 425.095703125 733.002929688 408.928710938 728.002929688 393.928710938 718.002929688 c 0
 378.928710938 708.002929688 365.76171875 694.3359375 354.428710938 677.002929688 c 0
 343.095703125 659.669921875 333.262695312 640.669921875 324.9296875 620.002929688 c 0
 316.596679688 599.3359375 309.4296875 577.002929688 303.4296875 553.002929688 c 0
 294.762695312 518.3359375 288.762695312 470.668945312 285.4296875 410.001953125 c 0
 283.763671875 379.66796875 282.930664062 352.16796875 282.930664062 327.500976562 c 0
 282.930664062 302.833984375 283.763671875 281.000976562 285.4296875 262.000976562 c 0
 288.762695312 221.333984375 295.9296875 181.833984375 306.9296875 143.500976562 c 0
 317.9296875 105.16796875 330.762695312 72.16796875 345.4296875 44.5009765625 c 0
 360.096679688 16.833984375 376.096679688 -5.3330078125 393.4296875 -22 c 0
 410.762695312 -38.6669921875 427.4296875 -47 443.4296875 -47 c 0
 456.762695312 -47 466.762695312 -50.3330078125 473.4296875 -57 c 0
 480.096679688 -63.6669921875 483.4296875 -75.6669921875 483.4296875 -93 c 0
EndSplineSet
EndChar

StartChar: parenright
Encoding: 41 41 9
Width: 670
GlyphClass: 2
Flags: HMW
HStem: -131.005 84 732.998 81.002
VStem: 385.192 99.2482
LayerCount: 2
Fore
SplineSet
481.55859375 246 m 0
 474.225585938 172 459.0625 106.662109375 436.0625 49.9951171875 c 0
 413.0625 -6.671875 383.5625 -51.0048828125 347.5625 -83.0048828125 c 0
 311.5625 -115.004882812 271.229492188 -131.004882812 226.5625 -131.004882812 c 0
 217.229492188 -131.004882812 208.229492188 -127.337890625 199.5625 -120.004882812 c 0
 190.89453125 -112.671875 186.5625 -103.671875 186.5625 -93.0048828125 c 0
 186.5625 -75.671875 190.0625 -63.671875 197.0625 -57.0048828125 c 0
 204.0625 -50.337890625 213.89453125 -47.0048828125 226.5625 -47.0048828125 c 0
 241.89453125 -47.0048828125 258.0625 -38.671875 275.0625 -22.0048828125 c 0
 292.0625 -5.337890625 307.89453125 16.8291015625 322.5625 44.49609375 c 0
 337.229492188 72.1630859375 350.229492188 105.330078125 361.5625 143.997070312 c 0
 372.89453125 182.6640625 379.89453125 221.997070312 382.5625 261.997070312 c 0
 384.31640625 281.998046875 385.193359375 305.137695312 385.193359375 331.416992188 c 0
 385.193359375 355.067382812 384.482421875 381.260742188 383.061523438 409.997070312 c 0
 380.061523438 470.6640625 373.89453125 518.331054688 364.561523438 552.998046875 c 0
 359.228515625 576.998046875 352.561523438 599.331054688 344.561523438 619.998046875 c 0
 336.561523438 640.665039062 326.728515625 659.665039062 315.061523438 676.998046875 c 0
 303.39453125 694.331054688 290.2265625 707.998046875 275.560546875 717.998046875 c 0
 260.893554688 727.998046875 245.2265625 732.998046875 228.55859375 732.998046875 c 0
 215.892578125 732.998046875 205.55859375 736.165039062 197.55859375 742.498046875 c 0
 189.55859375 748.831054688 185.55859375 758.998046875 185.55859375 772.998046875 c 0
 185.55859375 781.665039062 186.55859375 788.83203125 188.55859375 794.499023438 c 0
 190.55859375 800.166015625 194.05859375 804.333007812 199.05859375 807 c 0
 204.05859375 809.666992188 208.392578125 811.5 212.05859375 812.5 c 0
 215.7265625 813.5 220.2265625 814 225.55859375 814 c 0
 248.2265625 814 271.05859375 808.5 294.05859375 797.5 c 0
 317.05859375 786.5 337.55859375 772 355.55859375 754 c 0
 373.55859375 736 389.7265625 716.166992188 404.05859375 694.5 c 0
 418.392578125 672.833007812 430.225585938 651 439.55859375 629 c 0
 458.890625 578.333007812 471.890625 514 478.55859375 436 c 0
 482.48046875 390.118164062 484.44140625 349.311523438 484.44140625 313.579101562 c 0
 484.44140625 288.56640625 483.48046875 266.040039062 481.55859375 246 c 0
EndSplineSet
EndChar

StartChar: asterisk
Encoding: 42 42 10
Width: 670
GlyphClass: 2
Flags: HMW
HStem: 292.998 103.999 306.499 76.5001
LayerCount: 2
Fore
SplineSet
282.001953125 139 m 0x40
 279.333984375 131 274.83203125 124.999023438 268.498046875 120.999023438 c 0
 262.166015625 116.999023438 255.166015625 114.666015625 247.498046875 113.999023438 c 0
 239.83203125 113.33203125 232.498046875 113.83203125 225.498046875 115.499023438 c 0
 218.498046875 117.166015625 212.33203125 119.333007812 206.998046875 122 c 0
 200.998046875 125.333007812 195.998046875 130.166015625 191.998046875 136.499023438 c 0
 187.998046875 142.83203125 185.33203125 150.665039062 183.998046875 159.998046875 c 0
 182.666015625 169.331054688 184.666015625 178.998046875 189.998046875 188.998046875 c 2
 256.998046875 297.998046875 l 1
 202.33203125 294.665039062 161.998046875 292.998046875 135.998046875 292.998046875 c 0
 119.998046875 292.998046875 107.33203125 298.331054688 97.998046875 308.998046875 c 0
 88.666015625 319.665039062 83.998046875 330.998046875 83.998046875 342.998046875 c 0
 83.998046875 348.998046875 84.83203125 355.165039062 86.498046875 361.498046875 c 0
 88.166015625 367.831054688 90.666015625 373.831054688 93.998046875 379.498046875 c 0
 97.33203125 385.165039062 102.498046875 389.665039062 109.498046875 392.998046875 c 0
 116.498046875 396.331054688 124.33203125 397.6640625 132.998046875 396.997070312 c 0x80
 163.666015625 394.330078125 208.998046875 390.997070312 268.998046875 386.997070312 c 1
 240.33203125 435.6640625 216.665039062 472.997070312 197.998046875 498.997070312 c 0
 190.079101562 512.006835938 186.119140625 524.776367188 186.119140625 537.306640625 c 0
 186.119140625 539.544921875 186.24609375 541.775390625 186.498046875 543.998046875 c 0
 188.166015625 558.665039062 194.333007812 568.33203125 205 572.999023438 c 0
 211 576.999023438 218.5 579.166015625 227.5 579.499023438 c 0
 236.5 579.83203125 245.666015625 577.33203125 255 571.999023438 c 0
 264.333007812 566.666015625 271.666015625 558.666015625 276.998046875 547.999023438 c 0
 284.33203125 531.999023438 303.998046875 493.666015625 335.998046875 432.999023438 c 1
 362.666015625 478.33203125 382.666015625 516.33203125 395.998046875 546.999023438 c 0
 400.666015625 557.666015625 407.498046875 565.666015625 416.498046875 570.999023438 c 0
 425.498046875 576.33203125 434.166015625 578.83203125 442.498046875 578.499023438 c 0
 450.83203125 578.166015625 457.998046875 575.666015625 463.998046875 570.999023438 c 0
 470.666015625 567.666015625 476.166015625 562.333007812 480.498046875 555 c 0
 484.83203125 547.666992188 486.998046875 539 486.998046875 529 c 0
 486.998046875 519 483.666015625 509.333007812 476.998046875 500 c 0
 455.666015625 468.666992188 432.333007812 429.666992188 407 383 c 1
 465 383 506.333007812 386.666992188 531 394 c 0
 535.666015625 395.485351562 540.130859375 396.227539062 544.392578125 396.227539062 c 0
 553.525390625 396.227539062 561.728515625 392.818359375 569.000976562 386 c 0
 579.66796875 376 585.333984375 365.333007812 586.001953125 354 c 0
 586.001953125 348 585.333984375 342 584.001953125 336 c 0
 582.668945312 330 580.3359375 324 577.001953125 318 c 0
 573.669921875 312 569.001953125 307.333007812 563.001953125 304 c 0
 557.001953125 300.666992188 549.669921875 300 541.001953125 302 c 0
 524.001953125 305 494.813476562 306.5 453.4375 306.5 c 0
 439.646484375 306.5 424.500976562 306.333007812 408.001953125 306 c 1
 475.001953125 190 l 2
 480.9765625 177.506835938 483.962890625 166.23046875 483.962890625 156.170898438 c 0
 483.962890625 153.883789062 483.809570312 151.66015625 483.500976562 149.499023438 c 0
 481.833984375 137.83203125 477.000976562 129.33203125 469.000976562 123.999023438 c 0
 462.333984375 119.999023438 453.833984375 117.666015625 443.500976562 116.999023438 c 0
 442.208984375 116.916015625 440.916015625 116.874023438 439.625 116.874023438 c 2
 412.501953125 122.999023438 l 2
 402.168945312 127.666015625 395.668945312 135.333007812 393.001953125 146 c 0
 384.333984375 172.666992188 366.66796875 211 340.000976562 261 c 1
 308.66796875 199.666992188 289.333984375 159 282.001953125 139 c 0x40
EndSplineSet
EndChar

StartChar: plus
Encoding: 43 43 11
Width: 670
GlyphClass: 2
Flags: HMW
HStem: 359.8 79.1992
VStem: 293.04 80.9971
LayerCount: 2
Fore
SplineSet
374.037109375 250 m 0
 374.037109375 234.666992188 370.708007812 223.833007812 364.041015625 217.5 c 0
 357.374023438 211.166992188 348.041015625 208 336.041015625 208 c 0
 307.374023438 208 293.041015625 222 293.041015625 250 c 2
 293.041015625 357 l 1
 279.708007812 357 261.708007812 356.833007812 239.041015625 356.5 c 0
 216.374023438 356.166992188 200.70703125 356 192.040039062 356 c 0
 175.373046875 356 163.040039062 360.166992188 155.040039062 368.5 c 0
 143.399414062 380.625 142.962890625 393.616210938 142.962890625 401.888671875 c 0
 142.962890625 413.296875 146.655273438 423.000976562 154.040039062 431.000976562 c 0
 161.46875 439.048828125 172.6328125 443.072265625 187.533203125 443.072265625 c 0
 188.6796875 443.072265625 189.848632812 443.048828125 191.040039062 443.000976562 c 0
 237.70703125 441.66796875 271.70703125 441.000976562 293.040039062 441.000976562 c 1
 293.040039062 499.8203125 290.955078125 548.575195312 290.955078125 552.581054688 c 0
 290.955078125 578.860351562 305.31640625 592 334.040039062 592 c 0
 335.374023438 592.06640625 336.682617188 592.099609375 337.965820312 592.099609375 c 0
 349.514648438 592.099609375 359.0390625 589.399414062 366.538085938 584 c 0
 373.721679688 578.827148438 377.313476562 569.69140625 377.313476562 556.590820312 c 0
 377.313476562 554.495117188 377.221679688 552.297851562 377.038085938 549.999023438 c 0
 375.038085938 511.33203125 374.038085938 474.33203125 374.038085938 438.999023438 c 1
 484.038085938 438.999023438 l 2
 499.37109375 438.999023438 510.204101562 435.666015625 516.537109375 428.999023438 c 0
 522.870117188 422.33203125 526.370117188 413.33203125 527.037109375 401.999023438 c 0
 527.037109375 395.999023438 526.370117188 390.499023438 525.037109375 385.499023438 c 0
 523.704101562 380.499023438 521.704101562 375.666015625 519.037109375 370.999023438 c 0
 516.370117188 366.33203125 512.037109375 362.83203125 506.037109375 360.499023438 c 0
 500.037109375 358.166015625 492.704101562 357.333007812 484.037109375 358 c 0
 473.637695312 359.200195312 456.158203125 359.799804688 431.598632812 359.799804688 c 0
 415.224609375 359.799804688 395.704101562 359.533203125 373.037109375 359 c 1
 373.037109375 341 373.204101562 319.666992188 373.537109375 295 c 0
 373.870117188 270.333007812 374.037109375 255.333007812 374.037109375 250 c 0
EndSplineSet
EndChar

StartChar: comma
Encoding: 44 44 12
Width: 670
GlyphClass: 2
Flags: HMW
VStem: 232.51 204.501
LayerCount: 2
Fore
SplineSet
437.010742188 96 m 0
 430.34375 63.3330078125 416.010742188 12.9990234375 394.010742188 -55.0009765625 c 0
 372.010742188 -123.000976562 355.010742188 -165.000976562 343.010742188 -181.000976562 c 0
 332.34375 -195.000976562 318.84375 -205.000976562 302.510742188 -211.000976562 c 0
 292.7109375 -214.600585938 283.811523438 -216.400390625 275.811523438 -216.400390625 c 0
 270.478515625 -216.400390625 265.544921875 -215.600585938 261.01171875 -214.000976562 c 0
 254.344726562 -212.000976562 248.177734375 -208.000976562 242.510742188 -202.000976562 c 0
 236.84375 -196.000976562 233.510742188 -188.66796875 232.510742188 -180.000976562 c 0
 231.510742188 -171.333984375 234.010742188 -162.333984375 240.010742188 -153.000976562 c 0
 254.010742188 -133.000976562 273.34375 -89.0009765625 298.010742188 -21.0009765625 c 0
 322.677734375 46.9990234375 337.677734375 94.33203125 343.010742188 120.999023438 c 0
 345.010742188 130.33203125 349.677734375 137.665039062 357.010742188 142.998046875 c 0
 364.34375 148.331054688 372.010742188 150.998046875 380.010742188 150.998046875 c 0
 388.010742188 150.998046875 396.010742188 150.331054688 404.010742188 148.998046875 c 0
 414.677734375 145.665039062 423.344726562 139.33203125 430.01171875 129.999023438 c 0
 435.139648438 122.8203125 437.703125 114.458007812 437.703125 104.912109375 c 0
 437.703125 102.047851562 437.47265625 99.0771484375 437.010742188 96 c 0
EndSplineSet
EndChar

StartChar: hyphen
Encoding: 45 45 13
Width: 670
GlyphClass: 2
Flags: HMW
HStem: 243 87<209.763 235.429> 251 82<443.097 453.763 443.097 460.429>
VStem: 180.905 308.191
LayerCount: 2
Fore
SplineSet
222.095703125 330 m 0xa0
 260.095703125 330 305.4296875 330.5 358.096679688 331.5 c 0
 410.763671875 332.5 440.096679688 333 446.096679688 333 c 0
 461.4296875 333 472.262695312 329.5 478.595703125 322.5 c 0
 484.928710938 315.5 488.428710938 306.333007812 489.095703125 295 c 0
 489.095703125 265.666992188 474.762695312 251 446.095703125 251 c 0x60
 437.428710938 251 403.928710938 249.666992188 345.595703125 247 c 0
 287.262695312 244.333007812 246.762695312 243 224.095703125 243 c 0
 195.428710938 243 181.095703125 257.333007812 181.095703125 286 c 0
 180.967773438 287.872070312 180.904296875 289.684570312 180.904296875 291.4375 c 0
 180.904296875 317.145507812 194.634765625 330 222.095703125 330 c 0xa0
EndSplineSet
EndChar

StartChar: period
Encoding: 46 46 14
Width: 670
GlyphClass: 2
Flags: HMW
HStem: -14.5617 154.604
VStem: 252.999 164.001
LayerCount: 2
Fore
SplineSet
337 -14 m 0
 333.536132812 -14.3740234375 330.161132812 -14.5615234375 326.875 -14.5615234375 c 0
 306.7578125 -14.5615234375 289.965820312 -7.5439453125 276.5 6.49609375 c 0
 260.83203125 22.8291015625 253 41.99609375 253 63.99609375 c 0
 253 84.6630859375 261.83203125 102.330078125 279.5 116.997070312 c 0
 297.166015625 131.6640625 316.333007812 139.331054688 337 139.998046875 c 0
 338.037109375 140.02734375 339.06640625 140.041992188 340.087890625 140.041992188 c 0
 362.029296875 140.041992188 380.16796875 133.194335938 394.5 119.499023438 c 0
 409.5 105.166015625 417 86.9990234375 417 64.9990234375 c 0
 417 43.666015625 409.66796875 25.8330078125 395 11.5 c 0
 380.333007812 -2.8330078125 361 -11.3330078125 337 -14 c 0
EndSplineSet
EndChar

StartChar: slash
Encoding: 47 47 15
Width: 670
GlyphClass: 2
Flags: W
LayerCount: 2
Fore
SplineSet
576.029296875 676 m 0
 558.696289062 642 510.029296875 558.49609375 430.029296875 425.49609375 c 0
 350.029296875 292.49609375 301.362304688 209.99609375 284.029296875 177.99609375 c 0
 273.362304688 157.329101562 256.029296875 122.329101562 232.029296875 72.99609375 c 0
 208.029296875 23.6630859375 193.029296875 -6.3369140625 187.029296875 -17.00390625 c 0
 176.362304688 -35.6708984375 162.862304688 -48.6708984375 146.529296875 -56.00390625 c 0
 138.362304688 -59.669921875 130.737304688 -61.5029296875 123.654296875 -61.5029296875 c 0
 116.571289062 -61.5029296875 110.029296875 -59.669921875 104.029296875 -56.0029296875 c 0
 94.029296875 -50.669921875 88.029296875 -38.3369140625 86.029296875 -19.00390625 c 0
 85.6767578125 -15.5927734375 85.5 -12.2333984375 85.5 -8.92578125 c 0
 85.5 6.51171875 89.34375 20.8193359375 97.0302734375 33.99609375 c 0
 194.36328125 193.99609375 277.696289062 336.329101562 347.029296875 460.99609375 c 0
 390.362304688 537.663085938 436.362304688 624.330078125 485.029296875 720.997070312 c 0
 490.362304688 731.6640625 497.6953125 739.831054688 507.028320312 745.498046875 c 0
 516.361328125 751.165039062 525.361328125 753.83203125 534.028320312 753.499023438 c 0
 542.6953125 753.166015625 551.362304688 751.333007812 560.029296875 748 c 0
 572.029296875 742 579.696289062 732.666992188 583.029296875 720 c 0
 584.009765625 716.274414062 584.5 712.375976562 584.5 708.3046875 c 0
 584.5 698.533203125 581.676757812 687.764648438 576.029296875 676 c 0
EndSplineSet
EndChar

StartChar: zero
Encoding: 48 48 16
Width: 670
GlyphClass: 2
Flags: HMW
HStem: -24 83.999 636.999 81.001
VStem: 99.0782 95.502 474.082 96.8403
LayerCount: 2
Fore
SplineSet
313.076171875 -24 m 0
 281.743164062 -24 252.912109375 -18.33203125 226.579101562 -6.9990234375 c 0
 200.24609375 4.333984375 177.74609375 20.0009765625 159.079101562 40.0009765625 c 0
 140.412109375 60.0009765625 125.745117188 85.0009765625 115.078125 115.000976562 c 0
 105.0390625 143.235351562 100.01953125 174.126953125 100.01953125 207.67578125 c 0
 100.01953125 209.7734375 100.0390625 211.881835938 100.078125 214 c 0
 100.078125 220.666992188 99.9111328125 237.166992188 99.578125 263.5 c 0
 99.2451171875 289.833007812 99.078125 310.833007812 99.078125 326.5 c 0
 99.078125 342.166992188 99.578125 363.833984375 100.578125 391.500976562 c 0
 101.578125 419.16796875 103.411132812 443.000976562 106.078125 463.000976562 c 0
 108.745117188 483.000976562 112.245117188 504.500976562 116.578125 527.500976562 c 0
 120.911132812 550.500976562 126.744140625 570.66796875 134.077148438 588.000976562 c 0
 150.077148438 630.000976562 177.077148438 662.16796875 215.077148438 684.500976562 c 0
 253.077148438 706.833984375 299.41015625 718.000976562 354.077148438 718.000976562 c 0
 381.41015625 718.000976562 407.077148438 713.333984375 431.077148438 704.000976562 c 0
 455.077148438 694.66796875 476.41015625 681.000976562 495.077148438 663.000976562 c 0
 513.744140625 645.000976562 529.244140625 621.66796875 541.577148438 593.000976562 c 0
 553.91015625 564.333984375 561.743164062 531.333984375 565.076171875 494.000976562 c 0
 567.743164062 460.66796875 569.576171875 422.834960938 570.576171875 380.501953125 c 0
 570.806640625 370.733398438 570.921875 360.947265625 570.921875 351.143554688 c 0
 570.921875 318.459960938 569.639648438 285.579101562 567.076171875 252.500976562 c 0
 563.743164062 209.500976562 559.076171875 176.66796875 553.076171875 154.000976562 c 0
 547.076171875 131.333984375 540.409179688 111.333984375 533.076171875 94.0009765625 c 0
 525.743164062 76.66796875 517.91015625 61.66796875 509.577148438 49.0009765625 c 0
 501.244140625 36.333984375 491.911132812 25.6669921875 481.578125 17 c 0
 471.245117188 8.3330078125 460.245117188 1.3330078125 448.578125 -4 c 0
 436.911132812 -9.3330078125 423.744140625 -13.5 409.077148438 -16.5 c 0
 394.41015625 -19.5 379.743164062 -21.5 365.076171875 -22.5 c 0
 350.409179688 -23.5 333.076171875 -24 313.076171875 -24 c 0
198.078125 230.000976562 m 0
 198.078125 227.333984375 198.249023438 223.333984375 198.58203125 218.000976562 c 0
 198.915039062 212.66796875 199.08203125 209.000976562 199.08203125 207.000976562 c 1
 288.415039062 329.000976562 368.748046875 454.333984375 440.081054688 583.000976562 c 1
 428.081054688 600.333984375 413.4140625 613.666992188 396.081054688 623 c 0
 378.748046875 632.333007812 360.081054688 637 340.081054688 637 c 0
 302.748046875 637 273.581054688 626.666992188 252.581054688 606 c 0
 231.581054688 585.333007812 215.748046875 552 205.081054688 506 c 0
 201.081054688 489.333007812 198.248046875 469.833007812 196.581054688 447.5 c 0
 195.19140625 428.885742188 194.497070312 407.029296875 194.497070312 381.930664062 c 0
 194.497070312 376.916992188 194.524414062 371.7734375 194.580078125 366.500976562 c 0
 194.913085938 334.833984375 195.24609375 312.500976562 195.579101562 299.500976562 c 0
 195.912109375 286.500976562 196.745117188 263.333984375 198.078125 230.000976562 c 0
459.08203125 168.000976562 m 0
 461.749023438 176.000976562 464.58203125 198 467.58203125 234 c 0
 470.58203125 270 472.749023438 311.166992188 474.08203125 357.5 c 0
 474.462890625 370.736328125 474.653320312 383.823242188 474.653320312 396.760742188 c 0
 474.653320312 429.109375 473.462890625 460.522460938 471.08203125 491 c 1
 399.749023438 344.333007812 315.749023438 221.333007812 219.08203125 122 c 1
 237.08203125 80.6669921875 268.415039062 60 313.08203125 60 c 0
 331.08203125 60 347.249023438 61.5 361.58203125 64.5 c 0
 375.915039062 67.5 389.58203125 72.8330078125 402.58203125 80.5 c 0
 415.58203125 88.1669921875 426.58203125 99.333984375 435.58203125 114.000976562 c 0
 444.58203125 128.66796875 452.415039062 146.66796875 459.08203125 168.000976562 c 0
EndSplineSet
EndChar

StartChar: one
Encoding: 49 49 17
Width: 670
GlyphClass: 2
Flags: HMW
HStem: -9 85.5 -5 89<128.004 151.004 128.004 151.004> 511.539 21G
VStem: 287.337 96.6644 297.003 91.498
LayerCount: 2
Fore
SplineSet
578.08203125 34.8388671875 m 0xb0
 578.08203125 22.892578125 574.556640625 12.779296875 567.50390625 4.5 c 0
 559.837890625 -4.5 546.337890625 -9 527.00390625 -9 c 0xb0
 518.337890625 -9 458.837890625 -8.3330078125 348.50390625 -7 c 0
 238.170898438 -5.6669921875 167.00390625 -5 135.00390625 -5 c 0
 120.337890625 -5 109.50390625 -1 102.50390625 7 c 0
 95.50390625 15 92.00390625 25.3330078125 92.00390625 38 c 0
 91.947265625 39.16015625 91.91796875 40.302734375 91.91796875 41.4267578125 c 0
 91.91796875 53.2294921875 95.11328125 63.0869140625 101.50390625 71 c 0
 108.50390625 79.6669921875 120.00390625 84 136.00390625 84 c 0
 166.00390625 84 217.00390625 83.6669921875 289.00390625 83 c 1
 289.00390625 109.666992188 288.670898438 131 288.00390625 147 c 0
 287.55859375 150.556640625 287.3359375 159.600585938 287.3359375 174.131835938 c 0x70
 287.3359375 181.38671875 287.392578125 190.009765625 287.502929688 200 c 0
 287.8359375 230 288.002929688 251.666992188 288.002929688 265 c 0
 288.002929688 278.333007812 288.669921875 303 290.002929688 339 c 0
 291.3359375 375 292.3359375 401.833007812 293.002929688 419.5 c 0
 293.669921875 437.166992188 295.002929688 465.166992188 297.002929688 503.5 c 0
 299.002929688 541.833007812 300.3359375 570 301.002929688 588 c 1
 251.669921875 546.666992188 215.669921875 522 193.002929688 514 c 0
 188.900390625 512.359375 184.783203125 511.5390625 180.6484375 511.5390625 c 0
 171.346679688 511.5390625 161.96484375 515.692382812 152.502929688 524 c 0
 139.47265625 535.44140625 132.95703125 546.8828125 132.95703125 558.32421875 c 0
 132.95703125 558.8828125 132.97265625 559.44140625 133.00390625 560 c 0
 133.00390625 570.666992188 135.3359375 580.166992188 140.002929688 588.5 c 0
 144.669921875 596.833007812 153.002929688 605.333007812 165.002929688 614 c 0
 184.3359375 628.666992188 204.669921875 644.833984375 226.001953125 662.500976562 c 0
 247.334960938 680.16796875 262.66796875 693.000976562 272.001953125 701.000976562 c 0
 281.333984375 709.000976562 291.001953125 715.833984375 301.001953125 721.500976562 c 0
 311.001953125 727.16796875 319.66796875 730.000976562 327.001953125 730.000976562 c 0
 341.001953125 730.000976562 355.66796875 724.000976562 371.001953125 712.000976562 c 0
 386.333984375 700.000976562 394.001953125 690.000976562 394.001953125 682.000976562 c 0
 394.001953125 666.66796875 392.16796875 612.16796875 388.501953125 518.500976562 c 0x68
 384.833984375 424.833984375 383.001953125 370.000976562 383.001953125 354.000976562 c 0
 383.001953125 287.333984375 383.333984375 231.666992188 384.001953125 187 c 0
 384.001953125 162.333007812 384.66796875 126.333007812 386.001953125 79 c 1
 405.333984375 79 425.666992188 78.6669921875 447 78 c 0
 468.333984375 77.3330078125 485.833984375 76.8330078125 499.5 76.5 c 0
 513.166992188 76.1669921875 523 76 529 76 c 0
 547.666992188 76 560.333984375 72.5 567.001953125 65.5 c 0
 572.42578125 59.8046875 578.08203125 50.1865234375 578.08203125 34.8388671875 c 0xb0
EndSplineSet
EndChar

StartChar: two
Encoding: 50 50 18
Width: 670
GlyphClass: 2
Flags: HMW
HStem: -18.0049 84.0049 -14.0059 91.0059 637.997 83.999
VStem: 101.835 99.9971 454.833 98.9971
LayerCount: 2
Fore
SplineSet
534.83203125 -12 m 0x78
 506.83203125 -12 472.001953125 -12.6728515625 430.334960938 -14.005859375 c 0x78
 388.66796875 -15.3388671875 351.834960938 -16.671875 319.834960938 -18.0048828125 c 0
 287.834960938 -19.337890625 255.001953125 -20.0048828125 221.334960938 -20.0048828125 c 0
 187.66796875 -20.0048828125 161.500976562 -18.671875 142.833984375 -16.0048828125 c 0
 128.166992188 -14.671875 117.666992188 -5.671875 111.333984375 10.9951171875 c 0
 105.000976562 27.662109375 101.833984375 51.662109375 101.833984375 82.9951171875 c 0
 101.833984375 111.662109375 108.000976562 141.829101562 120.333984375 173.49609375 c 0
 132.666992188 205.163085938 150.833984375 235.49609375 174.833984375 264.49609375 c 0
 198.833984375 293.49609375 226.833984375 316.99609375 258.833984375 334.99609375 c 0
 330.166992188 374.99609375 376.166992188 402.99609375 396.833984375 418.99609375 c 0
 424.166992188 440.329101562 441.5 462.99609375 448.833007812 486.99609375 c 0
 452.833007812 500.99609375 454.833007812 518.329101562 454.833007812 538.99609375 c 0
 454.833007812 573.663085938 444.666015625 598.830078125 424.333007812 614.497070312 c 0
 404 630.1640625 375.166992188 637.997070312 337.833984375 637.997070312 c 0
 311.833984375 637.997070312 287.000976562 629.997070312 263.333984375 613.997070312 c 0
 239.666992188 597.997070312 221.5 580.330078125 208.833007812 560.997070312 c 0
 202.833007812 552.330078125 197.166015625 545.497070312 191.833007812 540.497070312 c 0
 186.5 535.497070312 180.833007812 532.6640625 174.833007812 531.997070312 c 0
 168.833007812 531.330078125 163.5 531.663085938 158.833007812 532.99609375 c 0
 154.166015625 534.329101562 147.833007812 536.662109375 139.833007812 539.995117188 c 0
 128.5 545.995117188 121.5 554.662109375 118.833007812 565.995117188 c 0
 118.166015625 568.828125 117.833007812 571.870117188 117.833007812 575.120117188 c 0
 117.833007812 584.870117188 120.833007812 596.495117188 126.833007812 609.995117188 c 0
 133.5 622.662109375 143.5 635.329101562 156.833007812 647.99609375 c 0
 170.166015625 660.663085938 185.499023438 672.663085938 202.83203125 683.99609375 c 0
 220.165039062 695.329101562 240.498046875 704.49609375 263.831054688 711.49609375 c 0
 287.1640625 718.49609375 310.497070312 721.99609375 333.830078125 721.99609375 c 0
 405.830078125 721.99609375 460.497070312 705.329101562 497.830078125 671.99609375 c 0
 535.163085938 638.663085938 553.830078125 588.663085938 553.830078125 521.99609375 c 0
 553.830078125 466.663085938 539.830078125 422.330078125 511.830078125 388.997070312 c 0
 491.163085938 364.330078125 453.830078125 336.997070312 399.830078125 306.997070312 c 0
 386.497070312 298.997070312 363.497070312 286.6640625 330.830078125 269.997070312 c 0
 302.163085938 254.6640625 278.163085938 235.831054688 258.830078125 213.498046875 c 0
 239.497070312 191.165039062 225.6640625 168.33203125 217.331054688 144.999023438 c 0
 208.998046875 121.666015625 203.831054688 96.3330078125 201.831054688 69 c 1
 239.1640625 67 275.1640625 66 309.831054688 66 c 0xb8
 344.498046875 66 371.498046875 66.5 390.831054688 67.5 c 0
 410.1640625 68.5 432.497070312 70 457.830078125 72 c 0
 483.163085938 74 499.830078125 75.3330078125 507.830078125 76 c 0
 508.497070312 76 511.6640625 76.1669921875 517.331054688 76.5 c 0
 522.998046875 76.8330078125 526.831054688 77 528.831054688 77 c 2
 538.831054688 77 l 2
 543.498046875 77 546.998046875 76.3330078125 549.331054688 75 c 0
 551.6640625 73.6669921875 554.331054688 72 557.331054688 70 c 0
 560.331054688 68 562.6640625 65.3330078125 564.331054688 62 c 0
 565.998046875 58.6669921875 567.165039062 54.6669921875 567.83203125 50 c 0
 568.499023438 42 568.166015625 33.5 566.833007812 24.5 c 0
 565.5 15.5 562 7.1669921875 556.333007812 -0.5 c 0
 550.666015625 -8.1669921875 543.499023438 -12 534.83203125 -12 c 0x78
EndSplineSet
EndChar

StartChar: three
Encoding: 51 51 19
Width: 670
GlyphClass: 2
Flags: HMW
HStem: -23.9941 84 318.006 100 638.006 83.998
VStem: 442.02 99.0491 464.002 99.998
LayerCount: 2
Fore
SplineSet
564 199 m 0xe8
 564 130.333007812 542.830078125 76.0078125 500.497070312 36.0078125 c 0
 458.1640625 -3.9921875 398.6640625 -23.9921875 321.997070312 -23.9921875 c 0
 298.6640625 -23.9921875 275.33203125 -20.4921875 251.998046875 -13.4921875 c 0
 228.665039062 -6.4921875 208.498046875 2.5078125 191.498046875 13.5078125 c 0
 174.498046875 24.5078125 159.33203125 36.5078125 145.998046875 49.5078125 c 0
 132.666015625 62.5078125 122.33203125 75.3408203125 115 88.0078125 c 0
 109 99.5078125 106 110.2578125 106 120.2578125 c 0
 106 123.590820312 106.33203125 126.840820312 107 130.0078125 c 0
 109.666015625 142.674804688 117 151.674804688 129 157.0078125 c 0
 138.1953125 161.60546875 146.755859375 163.904296875 154.68359375 163.904296875 c 0
 158.25 163.904296875 161.689453125 163.438476562 165 162.5078125 c 0
 175.66796875 159.5078125 186.333984375 151.0078125 197.000976562 137.0078125 c 0
 211.66796875 117.0078125 230.3359375 99.1748046875 253.001953125 83.5078125 c 0
 275.668945312 67.8408203125 300.001953125 60.0078125 326.001953125 60.0078125 c 0
 366.001953125 60.0078125 399.001953125 71.3408203125 425.001953125 94.0078125 c 0
 451.001953125 116.674804688 464.001953125 146.0078125 464.001953125 182.0078125 c 0xe8
 464.001953125 204.0078125 460.668945312 223.0078125 454.001953125 239.0078125 c 0
 447.3359375 255.0078125 436.66796875 269.0078125 422.000976562 281.0078125 c 0
 407.333984375 293.0078125 387.16796875 302.174804688 361.5 308.5078125 c 0
 335.833007812 314.840820312 306 318.0078125 272 318.0078125 c 0
 258 318.0078125 245.833007812 323.5078125 235.5 334.5078125 c 0
 225.16796875 345.5078125 220 357.674804688 220 371.0078125 c 0
 220 385.0078125 223.66796875 396.340820312 231 405.0078125 c 0
 238.333007812 413.674804688 249 418.0078125 263 418.0078125 c 0
 319 418.0078125 363 429.174804688 395 451.5078125 c 0
 426.34765625 473.384765625 442.020507812 505.017578125 442.020507812 546.407226562 c 0
 442.020507812 547.26953125 442.013671875 548.13671875 442 549.0078125 c 0
 442.01953125 549.903320312 442.029296875 550.791992188 442.029296875 551.673828125 c 0
 442.029296875 580.333984375 431.51953125 601.778320312 410.5 616.006835938 c 0
 388.833007812 630.673828125 357.666015625 638.006835938 317 638.006835938 c 0
 309 638.006835938 301.166015625 637.173828125 293.5 635.506835938 c 0
 285.83203125 633.83984375 279.665039062 632.172851562 274.998046875 630.505859375 c 0
 270.33203125 628.838867188 265.33203125 626.005859375 259.998046875 622.005859375 c 0
 254.665039062 618.005859375 250.165039062 614.672851562 246.498046875 612.005859375 c 0
 242.83203125 609.338867188 238.83203125 605.005859375 234.498046875 599.005859375 c 0
 230.165039062 593.005859375 226.83203125 588.838867188 224.5 586.505859375 c 0
 222.166015625 584.172851562 219 579.33984375 215 572.006835938 c 0
 204.33203125 557.33984375 193.5 548.672851562 182.5 546.005859375 c 0
 179.356445312 545.244140625 176.118164062 544.86328125 172.78515625 544.86328125 c 0
 164.451171875 544.86328125 155.5234375 547.244140625 146 552.005859375 c 0
 134.666015625 557.338867188 127.833984375 566.171875 125.5 578.504882812 c 0
 124.896484375 581.702148438 124.59375 585.044921875 124.59375 588.533203125 c 0
 124.59375 598.500976562 127.0625 609.658203125 132.001953125 622.004882812 c 0
 138.66796875 635.337890625 147.3359375 647.504882812 158.001953125 658.504882812 c 0
 168.668945312 669.504882812 181.001953125 680.004882812 195.001953125 690.004882812 c 0
 209.001953125 700.004882812 226.168945312 707.837890625 246.501953125 713.504882812 c 0
 266.8359375 719.171875 288.66796875 722.004882812 312.000976562 722.004882812 c 0
 388.66796875 722.004882812 446.3359375 706.004882812 485.001953125 674.004882812 c 0
 522.379882812 643.071289062 541.0703125 597.809570312 541.0703125 538.21875 c 0xf0
 541.0703125 536.1640625 541.046875 534.092773438 541.00390625 532.00390625 c 0
 541.00390625 512.670898438 538.50390625 495.170898438 533.50390625 479.50390625 c 0
 528.50390625 463.836914062 521.669921875 450.50390625 513.00390625 439.50390625 c 0
 504.3359375 428.50390625 493.668945312 418.836914062 481.001953125 410.50390625 c 0
 468.3359375 402.170898438 455.501953125 395.670898438 442.501953125 391.00390625 c 0
 429.501953125 386.336914062 415.668945312 382.669921875 401.001953125 380.002929688 c 1
 428.3359375 374.002929688 451.66796875 366.669921875 471.000976562 358.002929688 c 0
 490.333984375 349.3359375 507.16796875 338.168945312 521.5 324.501953125 c 0
 535.833007812 310.834960938 546.5 293.66796875 553.5 273.000976562 c 0
 560.5 252.333984375 564 227.666992188 564 199 c 0xe8
EndSplineSet
EndChar

StartChar: four
Encoding: 52 52 20
Width: 670
GlyphClass: 2
Flags: HMW
HStem: -23.001 21G 224.234 80.335
VStem: 402.003 87.4971 409.002 88.998 409.002 97.0561
LayerCount: 2
Fore
SplineSet
504 55 m 0xd0
 505.372070312 47.68359375 506.057617188 40.71875 506.057617188 34.107421875 c 0
 506.057617188 21.4423828125 503.540039062 10.072265625 498.502929688 -0.001953125 c 0
 490.8359375 -15.3349609375 479.668945312 -23.001953125 465.001953125 -23.001953125 c 0
 452.334960938 -23.001953125 440.001953125 -18.1689453125 428.001953125 -8.501953125 c 0
 416.001953125 1.1650390625 409.668945312 10.998046875 409.001953125 20.998046875 c 2
 409.001953125 59.998046875 l 1
 409.001953125 137.498046875 l 1xc8
 409.001953125 223.998046875 l 1xd0
 394.729492188 224.155273438 380.973632812 224.233398438 367.734375 224.233398438 c 0
 268.423828125 224.233398438 198.1796875 219.822265625 157.001953125 210.999023438 c 0
 146.334960938 208.999023438 136.66796875 209.33203125 128.000976562 211.999023438 c 0
 119.333984375 214.666015625 112.500976562 219.333007812 107.500976562 226 c 0
 102.500976562 232.666992188 98.66796875 240.333984375 96.0009765625 249.000976562 c 0
 93.333984375 257.66796875 92.0009765625 266.66796875 92.0009765625 276.000976562 c 0
 92.0009765625 285.333984375 93.66796875 294.333984375 97.0009765625 303.000976562 c 0
 103.66796875 321.66796875 121.500976562 352.16796875 150.500976562 394.500976562 c 0
 179.500976562 436.833984375 217.16796875 489.166992188 263.500976562 551.5 c 0
 309.833984375 613.833007812 342.666992188 659 362 687 c 0
 370.666992188 699.666992188 380.5 709.166992188 391.5 715.5 c 0
 402.5 721.833007812 413 725 423 725 c 0
 425.423828125 725.2421875 427.809570312 725.36328125 430.15625 725.36328125 c 0
 440.71875 725.36328125 450.5 722.909179688 459.5 718 c 0
 470.5 712 477.333007812 701.666992188 480 687 c 0
 484 663.666992188 487.166992188 627.666992188 489.5 579 c 0xe0
 491.833007812 530.333007812 493.333007812 489.166015625 494 455.499023438 c 0
 494.666992188 421.83203125 495.666992188 370.999023438 497 302.999023438 c 1
 508.333007812 302.33203125 521 301.999023438 535 301.999023438 c 0
 550.333007812 301.999023438 561.166015625 298.499023438 567.499023438 291.499023438 c 0
 573.83203125 284.499023438 577.33203125 275.33203125 577.999023438 263.999023438 c 0
 577.999023438 234.666015625 563.666015625 219.999023438 534.999023438 219.999023438 c 0
 521.666015625 219.999023438 509.333007812 220.33203125 498 220.999023438 c 1
 499.333007812 123.666015625 501.333007812 68.3330078125 504 55 c 0xd0
402.001953125 601.997070312 m 1xe0
 303.334960938 472.6640625 236.334960938 372.330078125 201.001953125 300.997070312 c 1
 238.146484375 303.377929688 284.134765625 304.568359375 338.967773438 304.568359375 c 0
 360.897460938 304.568359375 384.2421875 304.377929688 409.001953125 303.997070312 c 1
 409.001953125 428.6640625 406.668945312 527.997070312 402.001953125 601.997070312 c 1xe0
EndSplineSet
EndChar

StartChar: five
Encoding: 53 53 21
Width: 670
GlyphClass: 2
Flags: HMW
HStem: -18.001 83.998 419.997 89.0029 619 88.998 630 79.998
VStem: 107.598 93.405 114.998 88.0029 472.996 100.006
LayerCount: 2
Fore
SplineSet
573.001953125 296 m 0xda
 573.001953125 246.666992188 566.827148438 202.166015625 554.494140625 162.499023438 c 0
 542.162109375 122.83203125 524.828125 89.83203125 502.495117188 63.4990234375 c 0
 480.162109375 37.166015625 453.330078125 16.9990234375 421.99609375 2.9990234375 c 0
 390.663085938 -11.0009765625 356.330078125 -18.0009765625 318.998046875 -18.0009765625 c 0
 289.6640625 -18.0009765625 262.6640625 -15.0009765625 237.998046875 -9.0009765625 c 0
 213.330078125 -3.0009765625 192.663085938 5.33203125 175.99609375 15.9990234375 c 0
 159.330078125 26.666015625 145.330078125 37.8330078125 133.99609375 49.5 c 0
 122.6640625 61.1669921875 113.330078125 73.333984375 105.998046875 86.0009765625 c 0
 99.998046875 99.5009765625 96.998046875 111.125976562 96.998046875 120.875976562 c 0
 96.998046875 124.125976562 97.330078125 127.16796875 97.998046875 130.000976562 c 0
 100.6640625 141.333984375 107.6640625 150.000976562 118.998046875 156.000976562 c 0
 126.330078125 159.333984375 132.498046875 161.666992188 137.498046875 163 c 0
 142.498046875 164.333007812 147.998046875 164.666015625 153.998046875 163.999023438 c 0
 159.998046875 163.33203125 165.6640625 160.665039062 170.998046875 155.998046875 c 0
 176.330078125 151.331054688 181.998046875 144.6640625 187.998046875 135.997070312 c 0
 217.998046875 89.9970703125 258.6640625 66.6640625 309.998046875 65.9970703125 c 0
 359.998046875 65.9970703125 399.6640625 85.830078125 428.998046875 125.497070312 c 0
 458.330078125 165.1640625 472.998046875 218.331054688 472.998046875 284.998046875 c 0
 472.998046875 326.331054688 463.830078125 359.1640625 445.498046875 383.497070312 c 0
 427.1640625 407.830078125 398.998046875 419.997070312 360.998046875 419.997070312 c 0
 350.998046875 419.997070312 341.330078125 419.497070312 331.998046875 418.497070312 c 0
 322.6640625 417.497070312 314.6640625 416.1640625 307.998046875 414.497070312 c 0
 301.330078125 412.830078125 294.330078125 410.330078125 286.998046875 406.997070312 c 0
 279.6640625 403.6640625 273.831054688 400.997070312 269.498046875 398.997070312 c 0
 265.166015625 396.997070312 259.83203125 393.330078125 253.499023438 387.997070312 c 0
 247.166015625 382.6640625 242.999023438 378.997070312 240.999023438 376.997070312 c 0
 238.999023438 374.997070312 234.666015625 370.830078125 227.999023438 364.497070312 c 0
 221.33203125 358.1640625 217.33203125 354.331054688 215.999023438 352.998046875 c 0
 210.666015625 348.331054688 204.166015625 344.331054688 196.499023438 340.998046875 c 0
 188.83203125 337.665039062 180.33203125 335.498046875 170.999023438 334.498046875 c 0
 161.666015625 333.498046875 152.333984375 334.998046875 143 338.998046875 c 0
 131.66796875 343.665039062 123.16796875 353.998046875 117.5 369.998046875 c 0
 111.833984375 385.998046875 108.666015625 405.665039062 108 428.998046875 c 0
 107.732421875 438.331054688 107.599609375 447.530273438 107.599609375 456.596679688 c 0xda
 107.599609375 470.197265625 107.8984375 483.498046875 108.498046875 496.499023438 c 0
 109.498046875 518.166015625 110.83203125 541.499023438 112.498046875 566.499023438 c 0
 114.166015625 591.499023438 114.998046875 608.666015625 114.998046875 617.999023438 c 1
 109.666015625 626.666015625 106.33203125 636.499023438 105 647.499023438 c 0
 103.666015625 658.499023438 104.166015625 668.666015625 106.5 677.999023438 c 0
 108.83203125 687.33203125 113.5 695.33203125 120.5 701.999023438 c 0
 127.5 708.666015625 135.666015625 711.999023438 144.999023438 711.999023438 c 0
 169.666015625 711.999023438 227.833984375 711.33203125 319.5 709.999023438 c 0xd6
 411.166992188 708.666015625 481 707.999023438 529 707.999023438 c 0
 537.666992188 707.999023438 544.833984375 704.33203125 550.501953125 696.999023438 c 0
 556.16796875 689.666015625 559.834960938 681.333007812 561.501953125 672 c 0
 563.169921875 662.666992188 563.3359375 654 562.002929688 646 c 0
 561.3359375 641.333007812 560.169921875 637.333007812 558.501953125 634 c 0
 556.834960938 630.666992188 554.501953125 628.166992188 551.501953125 626.5 c 0
 548.501953125 624.833007812 545.834960938 623.333007812 543.501953125 622 c 0
 541.169921875 620.666992188 537.669921875 619.833984375 533.001953125 619.500976562 c 0
 528.334960938 619.16796875 525.001953125 619.000976562 523.001953125 619.000976562 c 0xe6
 521.001953125 619.000976562 517.169921875 619.333984375 511.501953125 620.000976562 c 0
 505.834960938 620.66796875 502.66796875 621.000976562 502.001953125 621.000976562 c 0
 492.66796875 621.000976562 476.001953125 622.000976562 452.001953125 624.000976562 c 0
 428.001953125 626.000976562 406.66796875 627.500976562 388.001953125 628.500976562 c 0
 369.333984375 629.500976562 343.333984375 630.000976562 310.001953125 630.000976562 c 0
 276.66796875 630.000976562 241.66796875 629.000976562 205.001953125 627.000976562 c 1
 205.001953125 620.333984375 204.333984375 601.000976562 203.001953125 569.000976562 c 0xd6
 201.66796875 537.000976562 200.834960938 513.833984375 200.501953125 499.500976562 c 0
 200.390625 494.727539062 200.334960938 489.270507812 200.334960938 483.129882812 c 0
 200.334960938 470.830078125 200.557617188 455.787109375 201.002929688 438 c 1
 219.669921875 458.666992188 245.002929688 475.666992188 277.002929688 489 c 0
 309.002929688 502.333007812 345.669921875 509 387.002929688 509 c 0
 416.3359375 509 442.8359375 503.5 466.502929688 492.5 c 0
 490.169921875 481.5 509.669921875 466.333007812 525.002929688 447 c 0
 540.3359375 427.666992188 552.169921875 405.166992188 560.501953125 379.5 c 0
 568.834960938 353.833007812 573.001953125 326 573.001953125 296 c 0xda
EndSplineSet
EndChar

StartChar: six
Encoding: 54 54 22
Width: 670
GlyphClass: 2
Flags: HMW
HStem: -21.9971 84.0049 393.004 87.9961
VStem: 94.9672 91.0658 477.033 98<227.333 249.672>
LayerCount: 2
Fore
SplineSet
575.033203125 246 m 0
 575.033203125 208.666992188 568.866210938 173.502929688 556.533203125 140.502929688 c 0
 544.200195312 107.502929688 527.3671875 79.169921875 506.034179688 55.5029296875 c 0
 484.701171875 31.8359375 459.201171875 13.0029296875 429.534179688 -0.9970703125 c 0
 399.8671875 -14.9970703125 368.3671875 -21.9970703125 335.034179688 -21.9970703125 c 0
 293.701171875 -21.9970703125 257.701171875 -14.1640625 227.034179688 1.5029296875 c 0
 196.3671875 17.169921875 171.200195312 39.8369140625 151.533203125 69.50390625 c 0
 131.866210938 99.1708984375 117.366210938 134.670898438 108.033203125 176.00390625 c 0
 99.322265625 214.580078125 94.966796875 257.51171875 94.966796875 304.798828125 c 0
 94.966796875 308.177734375 94.9892578125 311.579101562 95.0341796875 315.002929688 c 0
 95.701171875 372.3359375 101.368164062 424.002929688 112.03515625 470.002929688 c 0
 122.702148438 516.002929688 137.53515625 554.669921875 156.53515625 586.002929688 c 0
 175.53515625 617.3359375 199.03515625 643.8359375 227.03515625 665.502929688 c 0
 255.03515625 687.169921875 285.202148438 703.669921875 317.53515625 715.002929688 c 0
 349.868164062 726.3359375 385.701171875 733.668945312 425.034179688 737.001953125 c 0
 427.954101562 737.255859375 430.807617188 737.3828125 433.594726562 737.3828125 c 0
 445.442382812 737.3828125 456.088867188 735.088867188 465.534179688 730.500976562 c 0
 477.201171875 724.833984375 483.701171875 715.666992188 485.034179688 703 c 0
 485.701171875 695 481.701171875 686.166992188 473.034179688 676.5 c 0
 464.3671875 666.833007812 454.700195312 660.333007812 444.033203125 657 c 0
 436.700195312 655 425.533203125 652.333007812 410.533203125 649 c 0
 395.533203125 645.666992188 382.700195312 642.5 372.033203125 639.5 c 0
 361.366210938 636.5 348.69921875 632 334.032226562 626 c 0
 319.365234375 620 304.865234375 611.333007812 290.532226562 600 c 0
 276.19921875 588.666992188 262.032226562 575 248.032226562 559 c 0
 233.365234375 541.666992188 219.865234375 518 207.532226562 488 c 0
 195.19921875 458 187.366210938 431.333007812 184.033203125 408 c 1
 204.700195312 432.666992188 231.700195312 451 265.033203125 463 c 0
 298.366210938 475 335.366210938 481 376.033203125 481 c 0
 406.700195312 481 434.033203125 476.666992188 458.033203125 468 c 0
 482.033203125 459.333007812 502.866210938 445.666015625 520.533203125 426.999023438 c 0
 538.200195312 408.33203125 551.700195312 383.83203125 561.033203125 353.499023438 c 0
 570.366210938 323.166015625 575.033203125 287.333007812 575.033203125 246 c 0
186.033203125 230.002929688 m 0
 187.366210938 215.3359375 190.3671875 200.506835938 195.034179688 185.506835938 c 0
 199.701171875 170.506835938 206.201171875 155.33984375 214.534179688 140.006835938 c 0
 222.8671875 124.673828125 232.700195312 111.340820312 244.033203125 100.0078125 c 0
 255.366210938 88.6748046875 269.033203125 79.5078125 285.033203125 72.5078125 c 0
 301.033203125 65.5078125 318.033203125 62.0078125 336.033203125 62.0078125 c 0
 360.700195312 62.0078125 384.033203125 70.6748046875 406.033203125 88.0078125 c 0
 428.033203125 105.340820312 445.366210938 127.173828125 458.033203125 153.506835938 c 0
 470.700195312 179.83984375 477.033203125 206.672851562 477.033203125 234.005859375 c 0
 477.033203125 265.338867188 474.366210938 291.671875 469.033203125 313.004882812 c 0
 463.700195312 334.337890625 455.200195312 350.670898438 443.533203125 362.00390625 c 0
 431.866210938 373.336914062 418.69921875 381.336914062 404.032226562 386.00390625 c 0
 389.365234375 390.670898438 371.365234375 393.00390625 350.032226562 393.00390625 c 0
 316.69921875 393.00390625 285.366210938 384.336914062 256.033203125 367.00390625 c 0
 226.700195312 349.670898438 202.700195312 327.670898438 184.033203125 301.00390625 c 1
 184.033203125 272.336914062 184.700195312 248.669921875 186.033203125 230.002929688 c 0
EndSplineSet
EndChar

StartChar: seven
Encoding: 55 55 23
Width: 670
GlyphClass: 2
Flags: HMW
HStem: -22.9443 21G 622.497 90.5
LayerCount: 2
Fore
SplineSet
234.741210938 26 m 0
 226.741210938 8.6669921875 216.236328125 -4.3349609375 203.236328125 -13.001953125 c 0
 193.294921875 -19.6298828125 183.451171875 -22.943359375 173.705078125 -22.943359375 c 0
 170.706054688 -22.943359375 167.715820312 -22.6298828125 164.735351562 -22.001953125 c 0
 150.735351562 -18.6689453125 140.90234375 -10.6689453125 135.235351562 1.998046875 c 0
 132.631835938 7.818359375 131.330078125 13.919921875 131.330078125 20.302734375 c 0
 131.330078125 27.8115234375 133.131835938 35.7099609375 136.735351562 43.998046875 c 0
 170.735351562 112.665039062 207.235351562 180.998046875 246.235351562 248.998046875 c 0
 285.235351562 316.998046875 317.568359375 371.165039062 343.235351562 411.498046875 c 0
 368.90234375 451.831054688 392.569335938 490.998046875 414.236328125 528.998046875 c 0
 435.903320312 566.998046875 450.403320312 597.998046875 457.736328125 621.998046875 c 1
 426.098632812 623.088867188 393.370117188 623.634765625 359.55078125 623.634765625 c 0
 331.370117188 623.634765625 302.431640625 623.255859375 272.736328125 622.498046875 c 0
 207.403320312 620.831054688 164.736328125 617.331054688 144.736328125 611.998046875 c 0
 136.736328125 609.998046875 129.569335938 610.331054688 123.236328125 612.998046875 c 0
 116.903320312 615.665039062 111.736328125 619.665039062 107.736328125 624.998046875 c 0
 103.736328125 630.331054688 100.736328125 635.998046875 98.736328125 641.998046875 c 0
 96.736328125 647.998046875 95.736328125 653.998046875 95.736328125 659.998046875 c 0
 95.736328125 671.998046875 98.736328125 681.498046875 104.736328125 688.498046875 c 0
 110.736328125 695.498046875 121.736328125 700.665039062 137.736328125 703.998046875 c 0
 162.403320312 708.665039062 196.5703125 711.665039062 240.237304688 712.998046875 c 0
 262.071289062 713.6640625 283.030273438 713.997070312 303.114257812 713.997070312 c 0
 323.198242188 713.997070312 342.407226562 713.6640625 360.740234375 712.998046875 c 0
 397.407226562 711.665039062 433.407226562 710.33203125 468.740234375 708.999023438 c 0
 504.073242188 707.666015625 523.073242188 706.999023438 525.740234375 706.999023438 c 0
 532.407226562 706.999023438 539.240234375 705.499023438 546.240234375 702.499023438 c 0
 553.240234375 699.499023438 559.573242188 694.666015625 565.240234375 687.999023438 c 0
 569.575195312 682.8984375 574.263671875 674.20703125 574.263671875 660.463867188 c 0
 574.263671875 650.153320312 571.088867188 638.331054688 564.739257812 624.997070312 c 0
 555.40625 604.997070312 538.573242188 574.830078125 514.240234375 534.497070312 c 0
 489.907226562 494.1640625 464.57421875 452.831054688 438.241210938 410.498046875 c 0
 411.908203125 368.165039062 379.908203125 311.83203125 342.241210938 241.499023438 c 0
 304.57421875 171.166015625 268.741210938 99.3330078125 234.741210938 26 c 0
EndSplineSet
EndChar

StartChar: eight
Encoding: 56 56 24
Width: 670
GlyphClass: 2
Flags: W
HStem: -27.9922 85.9971<241.679 416.527> 646.004 72.001<257.915 391.632>
VStem: 88.998 85.998<120.066 256.492> 115.999 93.998<487.944 598.703> 446.997 90.002<483.938 592.01> 487.996 93.0059<121.363 264.134>
LayerCount: 2
Fore
SplineSet
581.001953125 204 m 0xc4
 581.001953125 182.666992188 578.1640625 161.338867188 572.497070312 140.005859375 c 0
 566.830078125 118.672851562 557.330078125 97.83984375 543.997070312 77.5068359375 c 0
 530.6640625 57.173828125 514.331054688 39.3408203125 494.998046875 24.0078125 c 0
 475.665039062 8.6748046875 450.998046875 -3.8251953125 420.998046875 -13.4921875 c 0
 390.998046875 -23.1591796875 357.665039062 -27.9921875 320.998046875 -27.9921875 c 0
 287.665039062 -27.9921875 257.33203125 -23.3251953125 229.999023438 -13.9921875 c 0
 202.666015625 -4.6591796875 180.499023438 7.173828125 163.499023438 21.5068359375 c 0
 146.499023438 35.83984375 132.166015625 53.0068359375 120.499023438 73.0068359375 c 0
 108.83203125 93.0068359375 100.665039062 113.173828125 95.998046875 133.506835938 c 0
 91.3310546875 153.83984375 88.998046875 174.672851562 88.998046875 196.005859375 c 0xe4
 88.998046875 218.672851562 94.6650390625 243.005859375 105.998046875 269.005859375 c 0
 117.331054688 295.005859375 133.831054688 319.005859375 155.498046875 341.005859375 c 0
 177.165039062 363.005859375 201.33203125 378.338867188 227.999023438 387.005859375 c 1
 192.666015625 403.672851562 165.166015625 425.505859375 145.499023438 452.505859375 c 0
 125.83203125 479.505859375 115.999023438 507.005859375 115.999023438 535.005859375 c 0
 115.999023438 543.005859375 116.666015625 551.505859375 117.999023438 560.505859375 c 0
 119.33203125 569.505859375 121.83203125 580.172851562 125.499023438 592.505859375 c 0
 129.166015625 604.838867188 134.166015625 616.671875 140.499023438 628.004882812 c 0
 146.83203125 639.337890625 155.499023438 650.504882812 166.499023438 661.504882812 c 0
 177.499023438 672.504882812 189.999023438 682.171875 203.999023438 690.504882812 c 0
 217.999023438 698.837890625 235.499023438 705.504882812 256.499023438 710.504882812 c 0
 277.499023438 715.504882812 300.33203125 718.004882812 324.999023438 718.004882812 c 0
 350.999023438 718.004882812 374.499023438 715.504882812 395.499023438 710.504882812 c 0
 416.499023438 705.504882812 434.166015625 698.837890625 448.499023438 690.504882812 c 0
 462.83203125 682.171875 475.499023438 672.504882812 486.499023438 661.504882812 c 0
 497.499023438 650.504882812 505.999023438 639.337890625 511.999023438 628.004882812 c 0
 517.999023438 616.671875 522.999023438 604.671875 526.999023438 592.004882812 c 0
 530.999023438 579.337890625 533.666015625 568.170898438 534.999023438 558.50390625 c 0
 536.33203125 548.836914062 536.999023438 539.669921875 536.999023438 531.002929688 c 0xd8
 536.999023438 523.002929688 535.999023438 515.002929688 533.999023438 507.002929688 c 0
 531.999023438 499.002929688 529.33203125 492.002929688 525.999023438 486.002929688 c 0
 522.666015625 480.002929688 518.333007812 473.669921875 513 467.002929688 c 0
 507.666992188 460.3359375 502.666992188 454.668945312 498 450.001953125 c 0
 493.333007812 445.334960938 487.333007812 440.001953125 480 434.001953125 c 0
 472.666992188 428.001953125 466.833984375 423.501953125 462.500976562 420.501953125 c 0
 458.16796875 417.501953125 452.000976562 413.334960938 444.000976562 408.001953125 c 0
 436.000976562 402.668945312 430.66796875 399.001953125 428.000976562 397.001953125 c 1
 452.66796875 386.334960938 474.334960938 374.334960938 493.001953125 361.001953125 c 0
 511.668945312 347.668945312 526.501953125 334.501953125 537.501953125 321.501953125 c 0
 548.501953125 308.501953125 557.334960938 294.668945312 564.001953125 280.001953125 c 0
 570.668945312 265.334960938 575.168945312 252.16796875 577.501953125 240.500976562 c 0
 579.834960938 228.833984375 581.001953125 216.666992188 581.001953125 204 c 0xc4
209.997070312 538.004882812 m 0xd8
 209.997070312 516.004882812 220.1640625 496.504882812 240.497070312 479.504882812 c 0
 260.830078125 462.504882812 294.330078125 445.337890625 340.997070312 428.004882812 c 1
 368.997070312 439.337890625 393.6640625 454.670898438 414.997070312 474.00390625 c 0
 436.330078125 493.336914062 446.997070312 511.336914062 446.997070312 528.00390625 c 0
 446.997070312 546.670898438 441.6640625 565.00390625 430.997070312 583.00390625 c 0
 420.330078125 601.00390625 405.497070312 616.00390625 386.497070312 628.00390625 c 0
 367.497070312 640.00390625 346.997070312 646.00390625 324.997070312 646.00390625 c 0
 293.6640625 646.00390625 266.6640625 634.836914062 243.997070312 612.50390625 c 0
 221.330078125 590.170898438 209.997070312 565.337890625 209.997070312 538.004882812 c 0xd8
324.997070312 58.0048828125 m 0
 344.330078125 58.0048828125 363.662109375 60.8330078125 382.995117188 66.5 c 0
 402.328125 72.1669921875 419.828125 80.333984375 435.495117188 91.0009765625 c 0
 451.162109375 101.66796875 463.829101562 115.66796875 473.49609375 133.000976562 c 0
 483.163085938 150.333984375 487.99609375 168.666992188 487.99609375 188 c 0
 487.99609375 198.666992188 486.99609375 208.833984375 484.99609375 218.500976562 c 0
 482.99609375 228.16796875 478.99609375 239.334960938 472.99609375 252.001953125 c 0
 466.99609375 264.668945312 458.663085938 276.3359375 447.99609375 287.002929688 c 0
 437.329101562 297.669921875 422.49609375 308.836914062 403.49609375 320.50390625 c 0
 384.49609375 332.170898438 362.329101562 342.670898438 336.99609375 352.00390625 c 1
 288.99609375 339.336914062 249.99609375 317.336914062 219.99609375 286.00390625 c 0
 189.99609375 254.670898438 174.99609375 221.337890625 174.99609375 186.004882812 c 0xe4
 174.99609375 161.337890625 182.49609375 139.004882812 197.49609375 119.004882812 c 0
 212.49609375 99.0048828125 231.329101562 83.837890625 253.99609375 73.5048828125 c 0
 276.663085938 63.171875 300.330078125 58.0048828125 324.997070312 58.0048828125 c 0
EndSplineSet
EndChar

StartChar: nine
Encoding: 57 57 25
Width: 670
GlyphClass: 2
Flags: HMW
HStem: -22.3812 21G 234.998 89 654.995 84.0049
VStem: 94.4688 98.0049 487.639 87.8928
LayerCount: 2
Fore
SplineSet
221.466796875 -22 m 0
 218.543945312 -22.25390625 215.686523438 -22.3828125 212.897460938 -22.3828125 c 0
 201.0546875 -22.3828125 190.416015625 -20.091796875 180.973632812 -15.5048828125 c 0
 169.306640625 -9.837890625 162.806640625 -0.6708984375 161.473632812 11.99609375 c 0
 160.806640625 20.6630859375 164.639648438 29.6630859375 172.97265625 38.99609375 c 0
 181.305664062 48.3291015625 191.138671875 54.662109375 202.471679688 57.9951171875 c 0
 209.8046875 59.9951171875 221.637695312 62.662109375 237.970703125 65.9951171875 c 0
 254.303710938 69.328125 268.970703125 72.828125 281.970703125 76.4951171875 c 0
 294.970703125 80.162109375 309.637695312 84.9951171875 325.970703125 90.9951171875 c 0
 342.303710938 96.9951171875 358.13671875 105.328125 373.469726562 115.995117188 c 0
 388.802734375 126.662109375 402.802734375 139.329101562 415.469726562 153.99609375 c 0
 432.13671875 173.329101562 446.969726562 195.829101562 459.969726562 221.49609375 c 0
 472.969726562 247.163085938 482.13671875 270.330078125 487.469726562 290.997070312 c 1
 468.802734375 269.6640625 444.802734375 254.997070312 415.469726562 246.997070312 c 0
 386.13671875 238.997070312 350.13671875 234.997070312 307.469726562 234.997070312 c 0
 278.13671875 234.997070312 250.13671875 241.830078125 223.469726562 255.497070312 c 0
 196.802734375 269.1640625 174.135742188 287.331054688 155.46875 309.998046875 c 0
 136.801757812 332.665039062 121.96875 358.83203125 110.96875 388.499023438 c 0
 99.96875 418.166015625 94.46875 448.333007812 94.46875 479 c 0
 94.46875 516.333007812 100.801757812 551.166015625 113.46875 583.499023438 c 0
 126.135742188 615.83203125 143.135742188 643.33203125 164.46875 665.999023438 c 0
 185.801757812 688.666015625 211.134765625 706.499023438 240.467773438 719.499023438 c 0
 269.80078125 732.499023438 301.133789062 738.999023438 334.466796875 738.999023438 c 0
 416.466796875 738.999023438 477.466796875 707.999023438 517.466796875 645.999023438 c 0
 556.176757812 585.999023438 575.53125 500.711914062 575.53125 390.138671875 c 0
 575.53125 386.454101562 575.509765625 382.741210938 575.466796875 379 c 0
 574.799804688 325.666992188 568.1328125 277.5 555.465820312 234.5 c 0
 542.798828125 191.5 525.798828125 155 504.465820312 125 c 0
 483.1328125 95 457.6328125 69.3330078125 427.965820312 48 c 0
 398.298828125 26.6669921875 366.298828125 10.5 331.965820312 -0.5 c 0
 297.6328125 -11.5 260.799804688 -18.6669921875 221.466796875 -22 c 0
192.47265625 490.993164062 m 0
 192.47265625 436.326171875 204.302734375 394.829101562 227.969726562 366.49609375 c 0
 251.63671875 338.163085938 286.803710938 323.99609375 333.470703125 323.99609375 c 0
 362.803710938 323.99609375 391.470703125 330.663085938 419.470703125 343.99609375 c 0
 447.470703125 357.329101562 470.137695312 375.662109375 487.470703125 398.995117188 c 0
 487.58203125 402.21875 487.637695312 405.720703125 487.637695312 409.500976562 c 0
 487.637695312 428.388671875 486.249023438 454.219726562 483.471679688 486.994140625 c 0
 482.138671875 501.661132812 479.305664062 516.494140625 474.97265625 531.494140625 c 0
 470.639648438 546.494140625 464.139648438 561.661132812 455.47265625 576.994140625 c 0
 446.805664062 592.327148438 436.805664062 605.66015625 425.47265625 616.993164062 c 0
 414.139648438 628.326171875 400.47265625 637.493164062 384.47265625 644.493164062 c 0
 368.47265625 651.493164062 351.47265625 654.993164062 333.47265625 654.993164062 c 0
 308.805664062 654.993164062 285.47265625 646.993164062 263.47265625 630.993164062 c 0
 241.47265625 614.993164062 224.139648438 594.493164062 211.47265625 569.493164062 c 0
 198.805664062 544.493164062 192.47265625 518.326171875 192.47265625 490.993164062 c 0
EndSplineSet
EndChar

StartChar: colon
Encoding: 58 58 26
Width: 670
GlyphClass: 2
Flags: HMW
HStem: 39.8998 155.096 306.91 155.09
VStem: 269.71 127.695
LayerCount: 2
Fore
SplineSet
397.041015625 417 m 0
 397.283203125 413 397.404296875 408.956054688 397.404296875 404.868164062 c 0
 397.404296875 386.470703125 394.951171875 367.1796875 390.041015625 346.997070312 c 0
 386.708984375 333.6640625 379.375 323.497070312 368.041992188 316.497070312 c 0
 357.694335938 310.106445312 347.625 306.91015625 337.833984375 306.91015625 c 0
 336.900390625 306.91015625 335.970703125 306.939453125 335.041992188 306.997070312 c 0
 295.041992188 308.997070312 273.708984375 324.330078125 271.041992188 352.997070312 c 0
 270.154296875 364.994140625 269.708984375 379.211914062 269.708984375 395.651367188 c 0
 269.708984375 403.876953125 269.8203125 412.659179688 270.04296875 421.997070312 c 0
 270.04296875 430.6640625 272.54296875 437.831054688 277.54296875 443.498046875 c 0
 282.54296875 449.165039062 288.709960938 453.33203125 296.04296875 455.999023438 c 0
 303.376953125 458.666015625 310.376953125 460.333007812 317.04296875 461 c 0
 323.709960938 461.666992188 330.04296875 462 336.04296875 462 c 0
 342.04296875 462 348.209960938 461.333007812 354.54296875 460 c 0
 360.876953125 458.666992188 367.208984375 456.5 373.541992188 453.5 c 0
 379.875 450.5 385.208984375 445.833007812 389.541015625 439.5 c 0
 393.874023438 433.166992188 396.374023438 425.666992188 397.041015625 417 c 0
398.041015625 149.997070312 m 0
 399.541015625 141.249023438 400.291015625 132.40625 400.291015625 123.469726562 c 0
 400.291015625 108.571289062 398.206054688 93.412109375 394.0390625 77.9931640625 c 0
 390.706054688 64.66015625 382.373046875 54.8271484375 369.041015625 48.494140625 c 0
 356.978515625 42.7646484375 345.733398438 39.8994140625 335.307617188 39.8994140625 c 0
 334.209960938 39.8994140625 333.12109375 39.931640625 332.041015625 39.9951171875 c 0
 318.708984375 40.662109375 305.708984375 44.8291015625 293.041015625 52.49609375 c 0
 280.374023438 60.1630859375 273.374023438 70.99609375 272.041015625 84.99609375 c 0
 271.374023438 98.99609375 270.874023438 107.829101562 270.541015625 111.49609375 c 0
 270.208984375 115.163085938 270.541015625 121.99609375 271.541015625 131.99609375 c 0
 272.541015625 141.99609375 273.041015625 149.663085938 273.041015625 154.99609375 c 0
 273.041015625 162.99609375 275.374023438 169.99609375 280.041015625 175.99609375 c 0
 284.708984375 181.99609375 290.541015625 186.163085938 297.541015625 188.49609375 c 0
 304.541015625 190.829101562 311.374023438 192.49609375 318.041015625 193.49609375 c 0
 324.708984375 194.49609375 331.041015625 194.99609375 337.041015625 194.99609375 c 0
 345.041015625 194.99609375 353.041015625 193.829101562 361.041015625 191.49609375 c 0
 369.041015625 189.163085938 376.708984375 184.330078125 384.041015625 176.997070312 c 0
 391.374023438 169.6640625 396.041015625 160.6640625 398.041015625 149.997070312 c 0
EndSplineSet
EndChar

StartChar: semicolon
Encoding: 59 59 27
Width: 670
GlyphClass: 2
Flags: HMW
HStem: 264.912 155.087
VStem: 300.098 127.698
LayerCount: 2
Fore
SplineSet
427.432617188 375 m 0
 427.674804688 371.000976562 427.795898438 366.958984375 427.795898438 362.872070312 c 0
 427.795898438 344.473632812 425.340820312 325.182617188 420.431640625 304.999023438 c 0
 417.098632812 291.666015625 409.931640625 281.499023438 398.931640625 274.499023438 c 0
 388.888671875 268.108398438 378.706054688 264.912109375 368.384765625 264.912109375 c 0
 367.401367188 264.912109375 366.416992188 264.94140625 365.431640625 264.999023438 c 0
 356.764648438 265.666015625 347.931640625 267.499023438 338.931640625 270.499023438 c 0
 329.931640625 273.499023438 321.598632812 278.666015625 313.931640625 285.999023438 c 0
 306.264648438 293.33203125 302.09765625 301.999023438 301.430664062 311.999023438 c 0
 300.541992188 323.99609375 300.09765625 338.213867188 300.09765625 354.653320312 c 0
 300.09765625 362.87890625 300.208984375 371.661132812 300.431640625 380.999023438 c 0
 300.431640625 388.999023438 302.764648438 395.999023438 307.431640625 401.999023438 c 0
 312.098632812 407.999023438 318.265625 412.166015625 325.932617188 414.499023438 c 0
 333.599609375 416.83203125 340.932617188 418.499023438 347.932617188 419.499023438 c 0
 354.932617188 420.499023438 361.099609375 420.666015625 366.432617188 419.999023438 c 0
 372.432617188 419.999023438 378.432617188 419.499023438 384.432617188 418.499023438 c 0
 390.432617188 417.499023438 396.765625 415.33203125 403.432617188 411.999023438 c 0
 410.099609375 408.666015625 415.599609375 403.833007812 419.932617188 397.5 c 0
 424.265625 391.166992188 426.765625 383.666992188 427.432617188 375 c 0
408.431640625 74 m 0
 407.098632812 52.6669921875 385.431640625 -34.333984375 343.431640625 -187.000976562 c 0
 340.098632812 -201.000976562 333.265625 -211.16796875 322.932617188 -217.500976562 c 0
 313.583984375 -223.23046875 304.098632812 -226.095703125 294.4765625 -226.095703125 c 0
 293.462890625 -226.095703125 292.448242188 -226.063476562 291.431640625 -226 c 0
 278.098632812 -225.333007812 266.265625 -221 255.932617188 -213 c 0
 246.780273438 -205.9140625 242.204101562 -196.474609375 242.204101562 -184.681640625 c 0
 242.204101562 -172.114257812 250.10546875 -128.228515625 263.431640625 -63 c 0
 276.098632812 -1 286.098632812 46.3330078125 293.431640625 79 c 0
 295.431640625 89 298.431640625 97 302.431640625 103 c 0
 306.431640625 109 310.931640625 113 315.931640625 115 c 0
 320.931640625 117 326.264648438 118.333007812 331.931640625 119 c 0
 337.598632812 119.666992188 342.431640625 119.666992188 346.431640625 119 c 0
 352.431640625 119 358.931640625 118.166992188 365.931640625 116.5 c 0
 372.931640625 114.833007812 379.931640625 112.5 386.931640625 109.5 c 0
 393.931640625 106.5 399.431640625 102 403.431640625 96 c 0
 407.431640625 90 409.098632812 82.6669921875 408.431640625 74 c 0
EndSplineSet
EndChar

StartChar: less
Encoding: 60 60 28
Width: 670
GlyphClass: 2
Flags: HMW
HStem: -12.3989 21G
LayerCount: 2
Fore
SplineSet
580.041015625 14 m 0
 576.708007812 7.3330078125 571.708007812 1.6689453125 565.041015625 -2.998046875 c 0
 558.374023438 -7.6650390625 549.541015625 -10.6650390625 538.541015625 -11.998046875 c 0
 536.341796875 -12.2646484375 534.041992188 -12.3974609375 531.642578125 -12.3974609375 c 0
 522.041992188 -12.3974609375 510.841796875 -10.2646484375 498.041015625 -5.998046875 c 0
 481.374023438 -0.6650390625 460.874023438 11.001953125 436.541015625 29.001953125 c 0
 412.208007812 47.001953125 385.875 68.501953125 357.541992188 93.501953125 c 0
 329.208984375 118.501953125 301.041992188 144.001953125 273.041992188 170.001953125 c 0
 245.041992188 196.001953125 215.541992188 222.834960938 184.541992188 250.501953125 c 0
 153.541992188 278.168945312 127.375 299.668945312 106.041992188 315.001953125 c 0
 97.375 321.001953125 91.7080078125 330.001953125 89.041015625 342.001953125 c 0
 87.7861328125 347.6484375 87.158203125 353.184570312 87.158203125 358.610351562 c 0
 87.158203125 364.713867188 87.9521484375 370.677734375 89.5400390625 376.500976562 c 0
 92.5400390625 387.500976562 98.373046875 395.333984375 107.040039062 400.000976562 c 0
 145.040039062 428.000976562 189.540039062 463.16796875 240.540039062 505.500976562 c 0
 291.540039062 547.833984375 338.20703125 586.166992188 380.540039062 620.5 c 0
 422.873046875 654.833007812 460.373046875 682 493.040039062 702 c 0
 503.70703125 708.666992188 513.540039062 712.166992188 522.540039062 712.5 c 0
 531.540039062 712.833007812 539.373046875 711.166015625 546.040039062 707.499023438 c 0
 552.70703125 703.83203125 558.540039062 699.33203125 563.540039062 693.999023438 c 0
 568.540039062 688.666015625 572.373046875 682.999023438 575.040039062 676.999023438 c 0
 577.673828125 672.0234375 578.991210938 667.015625 578.991210938 661.975585938 c 0
 578.991210938 655.536132812 576.840820312 649.043945312 572.540039062 642.499023438 c 0
 564.873046875 630.83203125 550.040039062 616.999023438 528.040039062 600.999023438 c 0
 490.70703125 574.999023438 433.874023438 532.33203125 357.541015625 472.999023438 c 0
 281.208007812 413.666015625 233.041015625 375.999023438 213.041015625 359.999023438 c 1
 239.041015625 339.999023438 267.708007812 315.83203125 299.041015625 287.499023438 c 0
 330.374023438 259.166015625 358.374023438 233.499023438 383.041015625 210.499023438 c 0
 407.708007812 187.499023438 434.041015625 163.999023438 462.041015625 139.999023438 c 0
 490.041015625 115.999023438 514.041015625 96.9990234375 534.041015625 82.9990234375 c 0
 555.374023438 68.9990234375 569.541015625 56.83203125 576.541015625 46.4990234375 c 0
 580.741210938 40.298828125 582.841796875 33.9189453125 582.841796875 27.359375 c 0
 582.841796875 22.986328125 581.908203125 18.533203125 580.041015625 14 c 0
EndSplineSet
EndChar

StartChar: equal
Encoding: 61 61 29
Width: 670
GlyphClass: 2
Flags: HMW
HStem: 246.996 83 442.999 85.0725
LayerCount: 2
Fore
SplineSet
191.038085938 528 m 0
 229.038085938 526.666992188 268.206054688 525.99609375 308.540039062 525.99609375 c 0
 348.873046875 525.99609375 386.540039062 526.329101562 421.540039062 526.99609375 c 0
 456.540039062 527.663085938 477.373046875 527.99609375 484.040039062 527.99609375 c 0
 499.373046875 527.99609375 510.206054688 524.663085938 516.538085938 517.99609375 c 0
 522.872070312 511.329101562 526.372070312 502.329101562 527.038085938 490.99609375 c 0
 527.038085938 484.99609375 526.372070312 479.49609375 525.038085938 474.49609375 c 0
 523.706054688 469.49609375 521.706054688 464.663085938 519.038085938 459.99609375 c 0
 516.372070312 455.329101562 512.038085938 451.829101562 506.038085938 449.49609375 c 0
 500.038085938 447.163085938 492.706054688 446.330078125 484.038085938 446.997070312 c 0
 468.030273438 447.442382812 451.502929688 447.665039062 434.458007812 447.665039062 c 0
 425.947265625 447.665039062 417.307617188 447.609375 408.538085938 447.498046875 c 0
 382.205078125 447.165039062 345.705078125 446.33203125 299.038085938 444.999023438 c 0
 252.370117188 443.666015625 218.038085938 442.999023438 196.038085938 442.999023438 c 0
 179.370117188 442.999023438 166.370117188 446.999023438 157.038085938 454.999023438 c 0
 143.095703125 466.950195312 142.959960938 479.587890625 142.959960938 486.887695312 c 0
 142.959960938 498.295898438 146.653320312 508 154.038085938 516 c 0
 161.466796875 524.047851562 172.630859375 528.071289062 187.530273438 528.071289062 c 0
 188.677734375 528.071289062 189.846679688 528.047851562 191.038085938 528 c 0
194.040039062 329.99609375 m 0
 211.626953125 329.7734375 230.180664062 329.662109375 249.700195312 329.662109375 c 0
 288.635742188 329.662109375 331.416015625 330.10546875 378.041015625 330.993164062 c 0
 448.041015625 332.326171875 483.374023438 332.993164062 484.041015625 332.993164062 c 0
 499.374023438 332.993164062 510.206054688 329.493164062 516.540039062 322.493164062 c 0
 522.873046875 315.493164062 526.373046875 306.326171875 527.040039062 294.993164062 c 0
 527.040039062 288.993164062 526.373046875 283.493164062 525.040039062 278.493164062 c 0
 523.706054688 273.493164062 521.706054688 268.66015625 519.040039062 263.993164062 c 0
 516.373046875 259.326171875 512.040039062 255.826171875 506.040039062 253.493164062 c 0
 500.040039062 251.16015625 492.706054688 250.327148438 484.040039062 250.994140625 c 0
 468.032226562 251.439453125 451.357421875 251.662109375 434.014648438 251.662109375 c 0
 425.356445312 251.662109375 416.530273438 251.606445312 407.540039062 251.495117188 c 0
 380.540039062 251.162109375 343.373046875 250.329101562 296.040039062 248.99609375 c 0
 248.706054688 247.663085938 214.040039062 246.99609375 192.040039062 246.99609375 c 0
 175.373046875 246.99609375 163.040039062 251.163085938 155.040039062 259.49609375 c 0
 143.663085938 271.346679688 142.967773438 284.059570312 142.967773438 292.397460938 c 0
 142.967773438 302.677734375 146.991210938 311.376953125 155.040039062 318.49609375 c 0
 163.706054688 326.163085938 176.706054688 329.99609375 194.040039062 329.99609375 c 0
EndSplineSet
EndChar

StartChar: greater
Encoding: 62 62 30
Width: 670
GlyphClass: 2
Flags: W
LayerCount: 2
Fore
SplineSet
176.842773438 5 m 0
 166.842773438 -1 157.174804688 -4.33203125 147.840820312 -4.9990234375 c 0
 138.5078125 -5.666015625 130.5078125 -4.166015625 123.840820312 -0.4990234375 c 0
 117.173828125 3.16796875 111.506835938 7.66796875 106.83984375 13.0009765625 c 0
 102.172851562 18.333984375 98.505859375 24.0009765625 95.8388671875 30.0009765625 c 0
 93.138671875 35.1005859375 91.7890625 40.234375 91.7890625 45.4013671875 c 0
 91.7890625 51.716796875 93.8056640625 58.0830078125 97.8388671875 64.5 c 0
 105.171875 76.1669921875 120.171875 90 142.838867188 106 c 0
 180.171875 132 236.838867188 174.666992188 312.838867188 234 c 0
 388.838867188 293.333007812 437.506835938 331 458.838867188 347 c 1
 432.838867188 367 403.671875 391.166992188 371.338867188 419.5 c 0
 339.006835938 447.833007812 310.838867188 473.5 286.838867188 496.5 c 0
 262.838867188 519.5 236.838867188 543 208.838867188 567 c 0
 180.838867188 591 156.171875 610 134.838867188 624 c 0
 113.505859375 638 99.3388671875 650.166992188 92.3388671875 660.5 c 0
 88.3662109375 666.364257812 86.3798828125 672.389648438 86.3798828125 678.576171875 c 0
 86.3798828125 683.290039062 87.533203125 688.09765625 89.83984375 692.998046875 c 0
 93.1728515625 699.665039062 98.005859375 705.33203125 104.338867188 709.999023438 c 0
 110.671875 714.666015625 119.671875 717.666015625 131.338867188 718.999023438 c 0
 133.671875 719.265625 136.078125 719.3984375 138.557617188 719.3984375 c 0
 148.479492188 719.3984375 159.573242188 717.265625 171.838867188 712.999023438 c 0
 188.506835938 707.666015625 209.172851562 696.166015625 233.83984375 678.499023438 c 0
 258.506835938 660.83203125 285.006835938 639.33203125 313.33984375 613.999023438 c 0
 341.672851562 588.666015625 369.83984375 562.999023438 397.83984375 536.999023438 c 0
 425.83984375 510.999023438 455.172851562 484.33203125 485.83984375 456.999023438 c 0
 516.506835938 429.666015625 543.174804688 407.999023438 565.840820312 391.999023438 c 0
 573.840820312 385.999023438 579.174804688 376.999023438 581.840820312 364.999023438 c 0
 583.026367188 359.665039062 583.620117188 354.4296875 583.620117188 349.29296875 c 0
 583.620117188 342.874023438 582.694335938 336.609375 580.842773438 330.499023438 c 0
 577.508789062 319.499023438 571.842773438 311.666015625 563.842773438 306.999023438 c 0
 525.842773438 278.999023438 481.342773438 243.83203125 430.342773438 201.499023438 c 0
 379.342773438 159.166015625 332.674804688 120.833007812 290.342773438 86.5 c 0
 248.008789062 52.1669921875 210.17578125 25 176.842773438 5 c 0
EndSplineSet
EndChar

StartChar: question
Encoding: 63 63 31
Width: 670
GlyphClass: 2
Flags: HMW
HStem: -14.5656 154.604 637.999 84.001
VStem: 231.326 163 443.328 99
LayerCount: 2
Fore
SplineSet
366.328125 262 m 0
 363.661132812 244.666992188 357.490234375 231.330078125 347.82421875 221.997070312 c 0
 341.37890625 215.775390625 333.083007812 212.6640625 322.935546875 212.6640625 c 0
 317.861328125 212.6640625 312.32421875 213.442382812 306.32421875 214.998046875 c 0
 287.657226562 219.665039062 275.32421875 228.33203125 269.32421875 240.999023438 c 0
 266.1484375 247.705078125 264.559570312 255.625 264.559570312 264.759765625 c 0
 264.559570312 272.879882812 265.814453125 281.959960938 268.32421875 291.999023438 c 0
 272.9921875 309.999023438 279.82421875 326.999023438 288.82421875 342.999023438 c 0
 297.82421875 358.999023438 307.657226562 372.666015625 318.32421875 383.999023438 c 0
 328.9921875 395.33203125 340.158203125 406.165039062 351.825195312 416.498046875 c 0
 363.4921875 426.831054688 374.66015625 436.498046875 385.326171875 445.498046875 c 0
 395.993164062 454.498046875 405.66015625 463.665039062 414.328125 472.998046875 c 0
 422.994140625 482.331054688 429.994140625 492.498046875 435.328125 503.498046875 c 0
 440.66015625 514.498046875 443.328125 526.331054688 443.328125 538.998046875 c 0
 443.328125 573.665039062 433.16015625 598.83203125 412.828125 614.499023438 c 0
 392.494140625 630.166015625 363.661132812 637.999023438 326.328125 637.999023438 c 0
 316.99609375 637.999023438 307.662109375 635.83203125 298.329101562 631.499023438 c 0
 288.99609375 627.166015625 280.829101562 622.333007812 273.829101562 617 c 0
 266.829101562 611.666992188 259.49609375 604.5 251.829101562 595.5 c 0
 244.162109375 586.5 238.162109375 578.833007812 233.829101562 572.5 c 0
 229.49609375 566.166992188 224.329101562 558.666992188 218.329101562 550 c 0
 212.329101562 541.333007812 206.662109375 534.5 201.329101562 529.5 c 0
 195.99609375 524.5 190.329101562 521.833007812 184.329101562 521.5 c 0
 178.329101562 521.166992188 172.99609375 521.5 168.329101562 522.5 c 0
 163.662109375 523.5 157.662109375 525.666992188 150.329101562 529 c 0
 138.99609375 535 131.829101562 543.666992188 128.829101562 555 c 0
 128.057617188 557.9140625 127.671875 561.048828125 127.671875 564.404296875 c 0
 127.671875 574.096679688 130.890625 585.62890625 137.329101562 599 c 0
 144.662109375 613 153.49609375 626.5 163.828125 639.5 c 0
 174.161132812 652.5 186.994140625 665.5 202.328125 678.5 c 0
 217.66015625 691.5 235.828125 702 256.828125 710 c 0
 277.828125 718 299.66015625 722 322.328125 722 c 0
 394.328125 722 448.994140625 705.333007812 486.328125 672 c 0
 523.66015625 638.666992188 542.328125 588.666992188 542.328125 522 c 0
 542.328125 504 539.494140625 487.666992188 533.828125 473 c 0
 528.16015625 458.333007812 520.66015625 445.666015625 511.328125 434.999023438 c 0
 501.994140625 424.33203125 491.494140625 414.33203125 479.828125 404.999023438 c 0
 468.16015625 395.666015625 456.16015625 386.333007812 443.828125 377 c 0
 431.494140625 367.666992188 420.161132812 358 409.828125 348 c 0
 399.49609375 338 390.328125 325.5 382.328125 310.5 c 0
 374.328125 295.5 368.99609375 279.333007812 366.328125 262 c 0
315.32421875 -14.00390625 m 0
 311.861328125 -14.3779296875 308.486328125 -14.5654296875 305.200195312 -14.5654296875 c 0
 285.083007812 -14.5654296875 268.291015625 -7.5478515625 254.82421875 6.4921875 c 0
 239.157226562 22.8251953125 231.32421875 41.9921875 231.32421875 63.9921875 c 0
 231.32421875 84.6591796875 239.82421875 102.326171875 256.82421875 116.993164062 c 0
 273.82421875 131.66015625 293.32421875 139.327148438 315.32421875 139.994140625 c 0
 316.361328125 140.0234375 317.390625 140.038085938 318.411132812 140.038085938 c 0
 340.33984375 140.038085938 358.309570312 133.190429688 372.32421875 119.495117188 c 0
 386.9921875 105.162109375 394.32421875 86.9951171875 394.32421875 64.9951171875 c 0
 394.32421875 43.662109375 387.157226562 25.8291015625 372.82421875 11.49609375 c 0
 358.4921875 -2.8369140625 339.32421875 -11.3369140625 315.32421875 -14.00390625 c 0
EndSplineSet
EndChar

StartChar: at
Encoding: 64 64 32
Width: 670
GlyphClass: 2
Flags: HMW
HStem: -129.182 85.178 102.002 77.9951 118.002 79.9941 381 77.1335 612.994 90.0078
VStem: 77.0004 87.0029 200.001 76.999 381.999 80.002 520.003 72.998
LayerCount: 2
Fore
SplineSet
542.005859375 5 m 0xdf80
 538.673828125 -4.3330078125 535.166015625 -12.5009765625 531.499023438 -19.5009765625 c 0
 527.83203125 -26.5009765625 522.83203125 -35.16796875 516.499023438 -45.5009765625 c 0
 510.166015625 -55.833984375 503.499023438 -64.6669921875 496.499023438 -72 c 0
 489.499023438 -79.3330078125 480.33203125 -86.8330078125 468.999023438 -94.5 c 0
 457.666015625 -102.166992188 445.499023438 -108.5 432.499023438 -113.5 c 0
 419.499023438 -118.5 403.999023438 -122.5 385.999023438 -125.5 c 0
 371.272460938 -127.954101562 355.654296875 -129.181640625 339.142578125 -129.181640625 c 0
 335.471679688 -129.181640625 331.7578125 -129.12109375 327.999023438 -129 c 0
 292.666015625 -129 259.666015625 -120.333007812 228.999023438 -103 c 0
 198.33203125 -85.6669921875 171.83203125 -61.5 149.499023438 -30.5 c 0
 127.166015625 0.5 109.5 38.1669921875 96.5 82.5 c 0
 83.5 126.833007812 77 175.333007812 77 228 c 0
 77 286.666992188 81.5 341.333984375 90.5 392.000976562 c 0
 99.5 442.66796875 112.33203125 486.834960938 129 524.501953125 c 0
 145.666015625 562.168945312 165.333984375 594.501953125 188 621.501953125 c 0
 210.666992188 648.501953125 235.666992188 668.834960938 263 682.501953125 c 0
 290.333984375 696.168945312 319 703.001953125 349 703.001953125 c 0
 371.666992188 703.001953125 392 701.168945312 410 697.501953125 c 0
 428 693.834960938 445.5 687.834960938 462.5 679.501953125 c 0
 479.5 671.168945312 494.5 660.001953125 507.5 646.001953125 c 0
 520.5 632.001953125 532.5 614.501953125 543.5 593.501953125 c 0
 554.5 572.501953125 563.5 548.001953125 570.5 520.001953125 c 0
 577.5 492.001953125 583 459.001953125 587 421.001953125 c 0
 591 383.001953125 593 340.334960938 593 293.001953125 c 0
 593 269.001953125 591.166992188 246.168945312 587.5 224.501953125 c 0
 583.833984375 202.834960938 578.5 182.501953125 571.5 163.501953125 c 0
 564.5 144.501953125 554.166992188 129.501953125 540.5 118.501953125 c 0
 526.833984375 107.501953125 511 102.001953125 493 102.001953125 c 0xdf80
 445 102.001953125 418 130.001953125 412 186.001953125 c 1
 396.666992188 140.668945312 367.666992188 118.001953125 325 118.001953125 c 0
 285.666992188 118.001953125 255 130.334960938 233 155.001953125 c 0
 211 179.668945312 200 217.3359375 200 268.002929688 c 0
 200 293.3359375 202.833984375 316.668945312 208.5 338.001953125 c 0
 214.166992188 359.334960938 221.833984375 377.501953125 231.501953125 392.501953125 c 0
 241.16796875 407.501953125 252.501953125 420.168945312 265.501953125 430.501953125 c 0
 278.501953125 440.834960938 292.66796875 448.16796875 308.001953125 452.500976562 c 0
 321.2890625 456.255859375 334.827148438 458.133789062 348.616210938 458.133789062 c 0
 350.73828125 458.133789062 352.8671875 458.088867188 355.001953125 458 c 0
 371.001953125 457.333007812 387.001953125 453.666015625 403.001953125 446.999023438 c 0
 418.334960938 440.999023438 430.66796875 432.999023438 440.001953125 422.999023438 c 0
 449.333984375 412.999023438 451.666992188 403.999023438 447 395.999023438 c 0
 444.333984375 390.666015625 441.333984375 386.333007812 438 383 c 0
 434.666992188 379.666992188 430.666992188 377.333984375 426 376.000976562 c 0
 421.333984375 374.66796875 417 373.66796875 413 373.000976562 c 0
 409 372.333984375 404 372.500976562 398 373.500976562 c 0
 392 374.500976562 387.333984375 375.333984375 384 376.000976562 c 0
 380.666992188 376.66796875 375.666992188 378.000976562 369 380.000976562 c 0
 360.333984375 381.333984375 351.833984375 381.666992188 343.5 381 c 0
 335.166992188 380.333007812 327 377.5 319 372.5 c 0
 311 367.5 304 361.166992188 298 353.5 c 0
 292 345.833007812 287 335.666015625 283 322.999023438 c 0
 279 310.33203125 277 295.999023438 277 279.999023438 c 0
 277 271.33203125 277.5 263.165039062 278.5 255.498046875 c 0
 279.5 247.831054688 281.5 239.1640625 284.5 229.497070312 c 0
 287.5 219.830078125 292.166992188 212.163085938 298.5 206.49609375 c 0
 304.833984375 200.829101562 312.666015625 197.99609375 321.999023438 197.99609375 c 0xbf80
 343.33203125 197.99609375 358.33203125 206.163085938 366.999023438 222.49609375 c 0
 375.666015625 238.829101562 380.666015625 265.99609375 381.999023438 303.99609375 c 0
 381.999023438 314.663085938 390.666015625 323.330078125 407.999023438 329.997070312 c 0
 418.806640625 334.2421875 428.608398438 336.365234375 437.404296875 336.365234375 c 0
 443.802734375 336.365234375 449.666992188 335.2421875 455 332.997070312 c 0
 463.666992188 329.6640625 467.333984375 322.997070312 466.001953125 312.997070312 c 0
 463.333984375 289.44140625 462.001953125 269.3671875 462.001953125 252.774414062 c 0
 462.001953125 244.478515625 462.333984375 237.052734375 463.001953125 230.497070312 c 0
 465.001953125 210.830078125 468.333984375 197.497070312 473.001953125 190.497070312 c 0
 477.66796875 183.497070312 484.334960938 179.997070312 493.001953125 179.997070312 c 0
 498.334960938 179.997070312 503.001953125 184.330078125 507.001953125 192.997070312 c 0
 511.001953125 201.6640625 513.834960938 212.997070312 515.501953125 226.997070312 c 0
 517.169921875 240.997070312 518.3359375 253.330078125 519.002929688 263.997070312 c 0
 519.669921875 274.6640625 520.002929688 284.997070312 520.002929688 294.997070312 c 0
 520.002929688 328.997070312 518.502929688 360.330078125 515.502929688 388.997070312 c 0
 512.502929688 417.6640625 508.8359375 442.1640625 504.502929688 462.497070312 c 0
 500.169921875 482.830078125 494.337890625 501.163085938 487.00390625 517.49609375 c 0
 479.670898438 533.829101562 472.670898438 547.162109375 466.00390625 557.495117188 c 0
 459.337890625 567.828125 451.337890625 576.661132812 442.00390625 583.994140625 c 0
 432.670898438 591.327148438 424.50390625 596.827148438 417.50390625 600.494140625 c 0
 410.50390625 604.161132812 402.50390625 606.994140625 393.50390625 608.994140625 c 0
 384.50390625 610.994140625 377.670898438 612.161132812 373.00390625 612.494140625 c 0
 368.337890625 612.827148438 362.669921875 612.994140625 356.002929688 612.994140625 c 0
 329.3359375 612.994140625 304.502929688 604.661132812 281.502929688 587.994140625 c 0
 258.502929688 571.327148438 238.169921875 548.16015625 220.502929688 518.493164062 c 0
 202.8359375 488.826171875 189.002929688 451.993164062 179.002929688 407.993164062 c 0
 169.002929688 363.993164062 164.002929688 315.993164062 164.002929688 263.993164062 c 0
 164.002929688 218.66015625 167.3359375 177.827148438 174.002929688 141.494140625 c 0
 180.669921875 105.161132812 189.669921875 75.828125 201.002929688 53.4951171875 c 0
 212.3359375 31.162109375 225.502929688 12.3291015625 240.502929688 -3.00390625 c 0
 255.502929688 -18.3369140625 270.502929688 -29.00390625 285.502929688 -35.00390625 c 0
 300.502929688 -41.00390625 316.002929688 -44.00390625 332.002929688 -44.00390625 c 0
 349.3359375 -44.00390625 365.3359375 -42.3369140625 380.002929688 -39.00390625 c 0
 394.669921875 -35.6708984375 406.837890625 -31.6708984375 416.50390625 -27.00390625 c 0
 426.170898438 -22.3369140625 435.337890625 -16.00390625 444.005859375 -8.00390625 c 0
 452.671875 -0.00390625 459.338867188 7.3291015625 464.005859375 13.99609375 c 0
 468.673828125 20.6630859375 474.005859375 29.330078125 480.005859375 39.9970703125 c 0
 482.673828125 44.6640625 485.005859375 48.3310546875 487.005859375 50.998046875 c 0
 489.005859375 53.6650390625 491.338867188 56.83203125 494.005859375 60.4990234375 c 0
 496.673828125 64.166015625 499.005859375 66.8330078125 501.005859375 68.5 c 0
 503.005859375 70.1669921875 505.505859375 71.6669921875 508.505859375 73 c 0
 511.505859375 74.3330078125 514.505859375 75 517.505859375 75 c 0
 520.505859375 75 523.673828125 74.3330078125 527.005859375 73 c 0
 532.338867188 71 536.838867188 68.5 540.505859375 65.5 c 0
 544.173828125 62.5 547.005859375 58.5 549.005859375 53.5 c 0
 551.005859375 48.5 551.338867188 41.8330078125 550.005859375 33.5 c 0
 548.673828125 25.1669921875 546.005859375 15.6669921875 542.005859375 5 c 0xdf80
EndSplineSet
EndChar

StartChar: A
Encoding: 65 65 33
Width: 670
GlyphClass: 2
Flags: HMW
HStem: -5.55122 21G 251 81.0059
VStem: 68.5711 90.5231
LayerCount: 2
Fore
SplineSet
159.094726562 41 m 2
 152.426757812 20.3330078125 143.094726562 6.6708984375 131.094726562 0.00390625 c 0
 124.427734375 -3.7001953125 117.658203125 -5.5517578125 110.78515625 -5.5517578125 c 0
 105.287109375 -5.5517578125 99.7236328125 -4.3671875 94.09375 -1.9970703125 c 0
 77.080078125 5.78125 68.5732421875 21.3564453125 68.5732421875 44.7294921875 c 0
 68.5732421875 53.4111328125 69.7470703125 63.1689453125 72.0947265625 74.0029296875 c 0
 76.0947265625 95.3359375 95.427734375 147.3359375 130.094726562 230.002929688 c 1
 118.094726562 238.002929688 112.094726562 247.669921875 112.094726562 259.002929688 c 0
 111.427734375 268.3359375 115.594726562 277.168945312 124.594726562 285.501953125 c 0
 133.594726562 293.834960938 145.426757812 300.334960938 160.094726562 305.001953125 c 1
 242.094726562 495.668945312 305.094726562 623.001953125 349.094726562 687.001953125 c 0
 359.094726562 700.334960938 367.926757812 710.001953125 375.594726562 716.001953125 c 0
 383.26171875 722.001953125 391.76171875 725.001953125 401.094726562 725.001953125 c 0
 403.397460938 725.244140625 405.661132812 725.365234375 407.887695312 725.365234375 c 0
 417.903320312 725.365234375 427.139648438 722.911132812 435.59375 718.001953125 c 0
 445.926757812 712.001953125 452.09375 701.668945312 454.09375 687.001953125 c 0
 468.09375 604.334960938 491.59375 487.16796875 524.59375 335.500976562 c 0
 557.59375 183.833984375 580.426757812 96.6669921875 593.09375 74 c 0
 598.649414062 63.443359375 601.426757812 53.697265625 601.426757812 44.76171875 c 0
 601.426757812 42.9755859375 601.31640625 41.2216796875 601.094726562 39.5 c 0
 599.76171875 29.1669921875 596.428710938 20.5 591.094726562 13.5 c 0
 585.762695312 6.5 579.4296875 1.3330078125 572.096679688 -2 c 0
 566.305664062 -4.4375 560.514648438 -5.65625 554.723632812 -5.65625 c 2
 534.094726562 -0.4990234375 l 2
 521.426757812 5.833984375 511.094726562 19.6669921875 503.094726562 41 c 0
 494.426757812 61.6669921875 477.760742188 131.666992188 453.09375 251 c 1
 367.760742188 247.666992188 291.426757812 240.666992188 224.094726562 230 c 1
 159.094726562 41 l 2
381.094726562 602.004882812 m 1
 351.76171875 557.337890625 310.094726562 462.671875 256.094726562 318.004882812 c 1
 324.094726562 326.004882812 384.426757812 330.671875 437.094726562 332.004882812 c 1
 381.094726562 602.004882812 l 1
EndSplineSet
EndChar

StartChar: B
Encoding: 66 66 34
Width: 670
GlyphClass: 2
Flags: HMW
HStem: -22.9961 21G 297.004 72 630.004 78.999
VStem: 93.0005 96.4978 446.997 90.0384 480.998 98.001
LayerCount: 2
Fore
SplineSet
284 -14 m 0xf4
 272.66796875 -14.6669921875 259.998046875 -15.6640625 245.998046875 -16.9970703125 c 0
 231.998046875 -18.330078125 220.665039062 -19.330078125 211.998046875 -19.9970703125 c 2
 185.998046875 -21.9970703125 l 2
 177.33203125 -22.6640625 169.498046875 -22.9970703125 162.498046875 -22.9970703125 c 0
 155.498046875 -22.9970703125 148.998046875 -22.330078125 142.998046875 -20.9970703125 c 2
 138.998046875 -20.9970703125 l 2
 125.665039062 -20.9970703125 114.83203125 -16.4970703125 106.499023438 -7.4970703125 c 0
 98.783203125 0.8359375 94.92578125 12.1689453125 94.92578125 26.5029296875 c 0
 94.92578125 33.943359375 97.25 48.533203125 97.25 135.748046875 c 0
 97.25 152.249023438 97.1669921875 170.333984375 97 190.002929688 c 0
 96.3330078125 268.669921875 95 349.669921875 93 433.002929688 c 0
 91.6669921875 477.669921875 91 507.669921875 91 523.002929688 c 0
 91 538.3359375 91.5 559.002929688 92.5 585.002929688 c 0
 93.5 611.002929688 94 629.002929688 94 639.002929688 c 0
 94.6669921875 657.002929688 99.5 670.502929688 108.5 679.502929688 c 0
 117.5 688.502929688 129 693.002929688 143 693.002929688 c 2
 148 693.002929688 l 2
 158.66796875 696.3359375 169.66796875 699.168945312 181 701.501953125 c 0
 192.333007812 703.834960938 202.833007812 705.501953125 212.5 706.501953125 c 0
 222.16796875 707.501953125 232.66796875 708.168945312 244 708.501953125 c 0
 255.333007812 708.834960938 264.166015625 709.001953125 270.5 709.001953125 c 2
 291 709.001953125 l 1
 302 709.001953125 l 2
 347.33203125 709.001953125 387.5 700.668945312 422.5 684.001953125 c 0
 457.5 667.334960938 485.166015625 643.16796875 505.5 611.500976562 c 0
 527.921875 576.581054688 537.03515625 537.415039062 537.03515625 496.803710938 c 0xf8
 537.03515625 459.928710938 528.5234375 428.161132812 511.5 401.500976562 c 0
 493.83203125 373.833984375 469.33203125 353.666992188 438 341 c 1
 460.666015625 333.666992188 482.5 322.833984375 503.5 308.500976562 c 0
 524.5 294.16796875 542.33203125 278.16796875 557 260.500976562 c 0
 571.666015625 242.833984375 579 226.333984375 579 211.000976562 c 0
 579 185.66796875 572.666015625 160.500976562 560 135.500976562 c 0
 547.33203125 110.500976562 528.83203125 87.66796875 504.5 67.0009765625 c 0
 480.166015625 46.333984375 448.833007812 28.6669921875 410.5 14 c 0
 372.16796875 -0.6669921875 330 -10 284 -14 c 0xf4
299.998046875 630.002929688 m 0
 263.998046875 630.002929688 228.998046875 625.668945312 194.998046875 617.001953125 c 1
 194.998046875 604.334960938 194.33203125 584.001953125 192.998046875 556.001953125 c 0
 191.665039062 528.001953125 190.665039062 498.334960938 189.998046875 467.001953125 c 0
 189.6640625 451.3359375 189.497070312 435.502929688 189.497070312 419.502929688 c 0
 189.497070312 403.502929688 189.6640625 387.3359375 189.998046875 371.002929688 c 1
 221.33203125 369.669921875 250.998046875 369.002929688 278.998046875 369.002929688 c 0
 298.998046875 369.002929688 317.33203125 370.669921875 333.998046875 374.002929688 c 0
 350.665039062 377.3359375 364.498046875 381.668945312 375.498046875 387.001953125 c 0
 386.498046875 392.334960938 396.498046875 398.834960938 405.498046875 406.501953125 c 0
 414.498046875 414.168945312 421.33203125 422.001953125 425.998046875 430.001953125 c 0
 430.665039062 438.001953125 434.665039062 446.834960938 437.998046875 456.501953125 c 0
 441.33203125 466.168945312 443.6640625 474.8359375 444.997070312 482.502929688 c 0
 446.330078125 490.169921875 446.997070312 498.336914062 446.997070312 507.00390625 c 0
 446.997070312 524.336914062 443.497070312 540.336914062 436.497070312 555.00390625 c 0
 429.497070312 569.670898438 420.830078125 581.50390625 410.497070312 590.50390625 c 0
 400.1640625 599.50390625 388.33203125 607.170898438 374.998046875 613.50390625 c 0
 361.665039062 619.836914062 348.665039062 624.169921875 335.998046875 626.502929688 c 0
 323.33203125 628.8359375 311.33203125 630.002929688 299.998046875 630.002929688 c 0
285.998046875 297.001953125 m 1
 237.33203125 297.001953125 205.998046875 296.66796875 191.998046875 296.000976562 c 1
 194.665039062 188.66796875 196.665039062 112.334960938 197.998046875 67.001953125 c 1
 205.33203125 67.001953125 217.498046875 67.3349609375 234.498046875 68.001953125 c 0
 251.498046875 68.6689453125 264.33203125 69.001953125 272.998046875 69.001953125 c 0
 303.665039062 70.3349609375 332.498046875 75.66796875 359.498046875 85.0009765625 c 0
 386.498046875 94.333984375 408.33203125 105.500976562 424.998046875 118.500976562 c 0
 441.665039062 131.500976562 455.165039062 145.16796875 465.498046875 159.500976562 c 0
 475.83203125 173.833984375 480.998046875 187.000976562 480.998046875 199.000976562 c 0xf4
 480.998046875 207.66796875 477.33203125 216.334960938 469.998046875 225.001953125 c 0
 462.665039062 233.668945312 451.498046875 242.668945312 436.498046875 252.001953125 c 0
 421.498046875 261.334960938 400.998046875 270.001953125 374.998046875 278.001953125 c 0
 348.998046875 286.001953125 319.33203125 292.334960938 285.998046875 297.001953125 c 1
EndSplineSet
EndChar

StartChar: C
Encoding: 67 67 35
Width: 670
GlyphClass: 2
Flags: HMW
HStem: -31.0911 90.092 518.417 222.246 632.001 80.9961
VStem: 76.9985 100.998 490 103.001
LayerCount: 2
Fore
SplineSet
564.994140625 64 m 0xb8
 510.009765625 0.607421875 425.845703125 -31.091796875 312.490234375 -31.091796875 c 0
 309.01953125 -31.091796875 305.522460938 -31.0625 301.998046875 -31.0029296875 c 0
 274.666015625 -31.0029296875 248.666015625 -26.3359375 223.998046875 -17.0029296875 c 0
 199.331054688 -7.669921875 178.498046875 4.6630859375 161.498046875 19.99609375 c 0
 144.498046875 35.3291015625 129.33203125 53.162109375 115.998046875 73.4951171875 c 0
 102.666015625 93.828125 92.83203125 115.495117188 86.5 138.495117188 c 0
 80.166015625 161.495117188 77 184.662109375 77 207.995117188 c 0
 77 256.662109375 82 303.662109375 92 348.995117188 c 0
 102 394.328125 115.5 435.328125 132.5 471.995117188 c 0
 149.499023438 508.662109375 169.33203125 542.329101562 191.999023438 572.99609375 c 0
 214.666015625 603.663085938 238.833984375 629.163085938 264.5 649.49609375 c 0
 290.166992188 669.829101562 316.5 685.49609375 343.5 696.49609375 c 0
 370.5 707.49609375 396.333984375 712.99609375 421 712.99609375 c 0xb8
 445.666992188 712.99609375 468.333984375 710.329101562 489.001953125 704.99609375 c 1
 491.66796875 714.99609375 496.66796875 723.163085938 504.001953125 729.49609375 c 0
 511.333984375 735.829101562 520.001953125 739.329101562 530.001953125 739.99609375 c 0
 532.37109375 740.440429688 534.75 740.663085938 537.13671875 740.663085938 c 0
 545.490234375 740.663085938 553.944335938 737.940429688 562.5 732.49609375 c 0
 573.5 725.49609375 580.333984375 715.329101562 583 701.99609375 c 0
 585 691.99609375 587 682.163085938 589 672.49609375 c 0
 591 662.829101562 592.166992188 653.329101562 592.5 643.99609375 c 0
 592.833984375 634.663085938 593 626.99609375 593 620.99609375 c 2
 593 599.99609375 l 1
 593 584.99609375 l 2
 593 570.99609375 587.666992188 556.829101562 577 542.49609375 c 0
 566.333984375 528.163085938 555.666015625 520.330078125 544.999023438 518.997070312 c 0
 542.677734375 518.610351562 540.34765625 518.416992188 538.013671875 518.416992188 c 0xd8
 528.283203125 518.416992188 518.4453125 521.77734375 508.499023438 528.498046875 c 0
 496.166015625 536.831054688 489.999023438 547.998046875 489.999023438 561.998046875 c 0
 489.999023438 567.331054688 490.33203125 581.331054688 490.999023438 603.998046875 c 0
 490.33203125 604.665039062 487.166015625 606.83203125 481.498046875 610.499023438 c 0
 475.831054688 614.166015625 471.831054688 616.833007812 469.498046875 618.5 c 0
 467.166015625 620.166992188 463.33203125 622.333984375 457.999023438 625.000976562 c 0
 452.666015625 627.66796875 447.499023438 629.500976562 442.499023438 630.500976562 c 0
 437.499023438 631.500976562 432.666015625 632.000976562 427.999023438 632.000976562 c 0
 407.33203125 632.000976562 385.166015625 625.333984375 361.498046875 612.000976562 c 0
 337.831054688 598.66796875 315.1640625 579.66796875 293.498046875 555.000976562 c 0
 271.830078125 530.333984375 252.163085938 502.000976562 234.49609375 470.000976562 c 0
 216.830078125 438.000976562 202.99609375 401.833984375 192.99609375 361.500976562 c 0
 182.99609375 321.16796875 177.99609375 280.66796875 177.99609375 240.000976562 c 0
 177.99609375 210.66796875 183.663085938 182.000976562 194.99609375 154.000976562 c 0
 206.330078125 126.000976562 222.49609375 103.16796875 243.49609375 85.5009765625 c 0
 264.49609375 67.833984375 287.330078125 59.0009765625 311.99609375 59.0009765625 c 0
 333.330078125 59.0009765625 354.49609375 61.16796875 375.49609375 65.5009765625 c 0
 396.49609375 69.833984375 414.99609375 75.5009765625 430.99609375 82.5009765625 c 0
 446.99609375 89.5009765625 460.830078125 96.5009765625 472.49609375 103.500976562 c 0
 484.163085938 110.500976562 494.99609375 118.000976562 504.99609375 126.000976562 c 0
 513.663085938 132.000976562 521.163085938 136.66796875 527.49609375 140.000976562 c 0
 533.830078125 143.333984375 540.662109375 145.000976562 547.995117188 145.000976562 c 0
 555.328125 145.000976562 562.662109375 142.66796875 569.994140625 138.000976562 c 0
 581.21484375 129.2734375 586.826171875 119.234375 586.826171875 107.883789062 c 0
 586.826171875 94.95703125 579.548828125 80.3291015625 564.994140625 64 c 0xb8
EndSplineSet
EndChar

StartChar: D
Encoding: 68 68 36
Width: 670
GlyphClass: 2
Flags: HMW
HStem: -31 85.998 694.001 20G
VStem: 75.1877 98.6278 79.8135 102.002 498.815 95.9971
LayerCount: 2
Fore
SplineSet
174.815429688 348 m 0xe8
 175.482421875 319.333007812 176.645507812 276.1640625 178.3125 218.497070312 c 0
 179.979492188 160.830078125 181.1484375 117.330078125 181.815429688 87.9970703125 c 1
 209.1484375 75.9970703125 237.813476562 67.4970703125 267.813476562 62.4970703125 c 0
 297.813476562 57.4970703125 331.813476562 54.9970703125 369.813476562 54.9970703125 c 0
 388.48046875 54.9970703125 406.147460938 61.1640625 422.814453125 73.4970703125 c 0
 439.481445312 85.830078125 453.1484375 101.830078125 463.815429688 121.497070312 c 0
 474.482421875 141.1640625 482.982421875 162.831054688 489.315429688 186.498046875 c 0
 495.6484375 210.165039062 498.815429688 233.33203125 498.815429688 255.999023438 c 0
 498.815429688 381.33203125 447.482421875 476.999023438 344.815429688 542.999023438 c 0
 308.1484375 566.33203125 255.815429688 590.33203125 187.815429688 614.999023438 c 1
 186.815429688 615.999023438 l 1
 185.815429688 615.999023438 l 1
 184.815429688 615.999023438 l 1
 183.815429688 616.999023438 l 1
 182.815429688 616.999023438 l 1
 181.815429688 616.999023438 l 1
 181.815429688 617.999023438 l 1xd8
 180.815429688 617.999023438 l 1
 179.815429688 617.999023438 l 1
 178.815429688 618.999023438 l 1
 177.815429688 618.999023438 l 1
 176.815429688 618.999023438 l 1
 175.815429688 619.999023438 l 1
 174.815429688 619.999023438 l 1
 173.815429688 619.999023438 l 1
 173.815429688 620.999023438 l 1
 172.958007812 583.854492188 172.529296875 545.9140625 172.529296875 507.177734375 c 0
 172.529296875 455.533203125 173.291015625 402.473632812 174.815429688 348 c 0xe8
370.814453125 -31.0009765625 m 0
 337.481445312 -31.0009765625 304.982421875 -29.5 273.315429688 -26.5 c 0
 241.6484375 -23.5 216.481445312 -20 197.814453125 -16 c 0
 179.147460938 -12 162.814453125 -8.3330078125 148.814453125 -5 c 0
 134.814453125 -1.6669921875 126.481445312 0 123.814453125 0 c 0
 110.481445312 0 99.4814453125 4.5 90.814453125 13.5 c 0
 83.302734375 21.2998046875 79.546875 31.7294921875 79.546875 44.7880859375 c 0
 79.546875 46.796875 79.6357421875 48.8671875 79.8134765625 51 c 0xd8
 81.3134765625 74.9990234375 82.0634765625 112.965820312 82.0634765625 164.901367188 c 0
 82.0634765625 182.21484375 81.98046875 201.081054688 81.8134765625 221.5 c 0
 81.146484375 303.166992188 79.4794921875 391.666992188 76.8125 487 c 0
 76.1455078125 524.333007812 75.6455078125 548.833007812 75.3125 560.5 c 0
 75.2294921875 563.416015625 75.1875 566.73828125 75.1875 570.466796875 c 0xe8
 75.1875 581.654296875 75.5625 596.498046875 76.3125 614.999023438 c 0
 77.3125 639.666015625 77.8125 654.666992188 77.8125 660 c 0
 78.4794921875 678 83.4794921875 691.5 92.8125 700.5 c 0
 102.145507812 709.5 113.8125 714 127.8125 714 c 0
 136.479492188 714 147.479492188 713.333007812 160.8125 712 c 0
 174.145507812 710.666992188 191.3125 708 212.3125 704 c 0
 233.3125 700 254.8125 694.5 276.8125 687.5 c 0
 298.8125 680.5 322.645507812 670.666992188 348.3125 658 c 0
 373.979492188 645.333007812 398.3125 630.666015625 421.3125 613.999023438 c 0
 444.3125 597.33203125 466.479492188 576.499023438 487.8125 551.499023438 c 0
 509.145507812 526.499023438 527.645507812 499.166015625 543.3125 469.499023438 c 0
 558.979492188 439.83203125 571.479492188 404.499023438 580.8125 363.499023438 c 0
 590.145507812 322.499023438 594.8125 278.33203125 594.8125 230.999023438 c 0
 594.8125 207.666015625 591.645507812 183.999023438 585.3125 159.999023438 c 0
 578.979492188 135.999023438 569.3125 112.499023438 556.3125 89.4990234375 c 0
 543.3125 66.4990234375 528.145507812 45.9990234375 510.8125 27.9990234375 c 0
 493.479492188 9.9990234375 472.646484375 -4.333984375 448.313476562 -15.0009765625 c 0
 423.98046875 -25.66796875 398.147460938 -31.0009765625 370.814453125 -31.0009765625 c 0
EndSplineSet
EndChar

StartChar: E
Encoding: 69 69 37
Width: 670
GlyphClass: 2
Flags: HMW
HStem: -17.498 85.4132 -6.2352 90.7323 312.001 85.999 332.001 80.999 615.159 82.8417
VStem: 88.3136 97.4971
LayerCount: 2
Fore
SplineSet
531.30859375 -6 m 0x4c
 529.124023438 -5.87890625 526.376953125 -5.818359375 523.06640625 -5.818359375 c 0
 508.189453125 -5.818359375 481.939453125 -7.044921875 444.311523438 -9.4990234375 c 0
 398.311523438 -12.4990234375 347.811523438 -15.166015625 292.811523438 -17.4990234375 c 0
 263.1953125 -18.7548828125 237.009765625 -19.3828125 214.255859375 -19.3828125 c 0
 194.75390625 -19.3828125 177.772460938 -18.9208984375 163.311523438 -17.998046875 c 0
 147.978515625 -17.3310546875 132.645507812 -9.8310546875 117.3125 4.501953125 c 0
 101.979492188 18.8349609375 92.9794921875 36.3349609375 90.3125 57.001953125 c 0
 88.3125 74.3349609375 87.3125 105.501953125 87.3125 150.501953125 c 0
 87.3125 195.501953125 87.6455078125 243.334960938 88.3125 294.001953125 c 0
 88.53515625 310.899414062 88.646484375 328.500976562 88.646484375 346.806640625 c 0
 88.646484375 383.391601562 88.2021484375 422.790039062 87.3134765625 465.001953125 c 0
 86.646484375 505.001953125 86.146484375 531.501953125 85.8134765625 544.501953125 c 0
 85.73046875 547.750976562 85.6884765625 551.385742188 85.6884765625 555.405273438 c 0
 85.6884765625 567.467773438 86.0634765625 583 86.8134765625 602.000976562 c 0
 87.8134765625 627.333984375 88.3134765625 643.000976562 88.3134765625 649.000976562 c 0
 88.98046875 667.000976562 93.98046875 680.66796875 103.313476562 690.000976562 c 0
 112.646484375 699.333984375 124.313476562 704.000976562 138.313476562 704.000976562 c 0
 139.2265625 704.036132812 140.127929688 704.053710938 141.018554688 704.053710938 c 0
 157.040039062 704.053710938 169.471679688 698.369140625 178.313476562 687.000976562 c 1
 216.313476562 692.333984375 260.813476562 695.666992188 311.813476562 697 c 0
 337.313476562 697.666015625 361.35546875 697.999023438 383.938476562 697.999023438 c 0
 406.521484375 697.999023438 427.646484375 697.666015625 447.3125 697 c 0
 486.645507812 695.666992188 517.978515625 693.666992188 541.311523438 691 c 0
 557.311523438 689 568.311523438 685 574.311523438 679 c 0
 580.311523438 673 583.64453125 664.666992188 584.311523438 654 c 0
 584.311523438 648 583.64453125 642.333007812 582.311523438 637 c 0
 580.978515625 631.666992188 578.811523438 626.833984375 575.811523438 622.500976562 c 0
 572.811523438 618.16796875 568.311523438 614.66796875 562.311523438 612.000976562 c 0
 556.311523438 609.333984375 549.311523438 608.666992188 541.311523438 610 c 0
 495.137695312 613.438476562 448.692382812 615.158203125 401.975585938 615.158203125 c 0
 385.2890625 615.158203125 368.567382812 614.938476562 351.811523438 614.5 c 0
 288.14453125 612.833007812 233.64453125 608.666015625 188.311523438 601.999023438 c 1
 185.64453125 532.666015625 184.311523438 464.666015625 184.311523438 397.999023438 c 1xac
 232.978515625 397.999023438 299.311523438 400.499023438 383.311523438 405.499023438 c 0
 467.311523438 410.499023438 514.64453125 412.999023438 525.311523438 412.999023438 c 0
 540.64453125 412.999023438 551.477539062 409.666015625 557.810546875 402.999023438 c 0
 564.143554688 396.33203125 567.310546875 386.999023438 567.310546875 374.999023438 c 0
 567.310546875 346.318359375 553.92578125 331.977539062 527.157226562 331.977539062 c 0
 526.548828125 331.977539062 525.93359375 331.985351562 525.311523438 332 c 0x1c
 513.311523438 332 461.811523438 328.666992188 370.811523438 322 c 0
 279.811523438 315.333007812 217.978515625 312 185.311523438 312 c 1
 185.311523438 297.333007812 185.478515625 278.166015625 185.811523438 254.499023438 c 0
 186.14453125 230.83203125 186.477539062 210.499023438 186.810546875 193.499023438 c 0
 187.143554688 176.499023438 187.4765625 158.999023438 187.809570312 140.999023438 c 0
 188.142578125 122.999023438 188.809570312 108.166015625 189.809570312 96.4990234375 c 0
 190.809570312 84.83203125 192.309570312 76.6650390625 194.309570312 71.998046875 c 0
 204.420898438 69.275390625 226.387695312 67.9140625 260.208984375 67.9140625 c 0xac
 284.36328125 67.9140625 314.563476562 68.6083984375 350.809570312 69.9970703125 c 0
 437.809570312 73.330078125 493.642578125 77.6630859375 518.309570312 82.99609375 c 0
 527.642578125 84.3291015625 535.642578125 84.8291015625 542.309570312 84.49609375 c 0
 548.9765625 84.1630859375 554.809570312 82.830078125 559.809570312 80.4970703125 c 0
 564.809570312 78.1640625 568.809570312 75.6640625 571.809570312 72.9970703125 c 0
 574.809570312 70.330078125 577.142578125 66.830078125 578.809570312 62.4970703125 c 0
 580.4765625 58.1640625 581.809570312 54.3310546875 582.809570312 50.998046875 c 0
 583.809570312 47.6650390625 584.309570312 44.33203125 584.309570312 40.9990234375 c 0
 584.309570312 28.33203125 579.809570312 16.9990234375 570.809570312 6.9990234375 c 0
 562.868164062 -1.82421875 551.682617188 -6.2353515625 537.252929688 -6.2353515625 c 0
 535.329101562 -6.2353515625 533.34765625 -6.1572265625 531.30859375 -6 c 0x4c
EndSplineSet
EndChar

StartChar: F
Encoding: 70 70 38
Width: 670
GlyphClass: 2
Flags: HMW
HStem: -21.0722 21G 322.534 84.6107 621.784 84.7164 694.192 20G
VStem: 90.2351 103.262 92.7521 93.745
LayerCount: 2
Fore
SplineSet
193.497070312 24 m 0xe8
 192.1640625 10 185.669921875 -1.166015625 174.002929688 -9.4990234375 c 0
 163.200195312 -17.21484375 151.112304688 -21.072265625 137.73828125 -21.072265625 c 0
 136.66796875 -21.072265625 135.588867188 -21.0478515625 134.501953125 -20.998046875 c 0
 121.168945312 -20.998046875 110.168945312 -16.498046875 101.501953125 -7.498046875 c 0
 93.990234375 0.302734375 90.234375 10.732421875 90.234375 23.791015625 c 0xe8
 90.234375 25.7998046875 90.3232421875 27.8701171875 90.5009765625 30.0029296875 c 0
 92.0009765625 52.001953125 92.7509765625 89.09375 92.7509765625 141.279296875 c 0
 92.7509765625 158.676757812 92.66796875 177.750976562 92.5009765625 198.502929688 c 0
 91.833984375 281.502929688 90.1669921875 367.002929688 87.5 455.002929688 c 0
 86.1669921875 499.669921875 85.5 529.669921875 85.5 545.002929688 c 0
 85.5 560.3359375 86 581.002929688 87 607.002929688 c 0
 88 633.002929688 88.5 650.669921875 88.5 660.002929688 c 0
 89.1669921875 678.002929688 94.1669921875 691.502929688 103.5 700.502929688 c 0
 112.833007812 709.502929688 124.5 714.002929688 138.5 714.002929688 c 0
 140.213867188 714.129882812 141.888671875 714.193359375 143.524414062 714.193359375 c 0xd4
 159.063476562 714.193359375 171.055664062 708.462890625 179.5 697.001953125 c 1
 244.833007812 701.668945312 311 704.668945312 378 706.001953125 c 0
 394.749023438 706.334960938 410.73828125 706.501953125 425.966796875 706.501953125 c 0
 471.655273438 706.501953125 510.5 705.001953125 542.500976562 702.001953125 c 0
 557.833984375 700.668945312 568.666992188 696.8359375 575 690.502929688 c 0
 581.333007812 684.169921875 584.5 675.336914062 584.5 664.00390625 c 0
 584.5 651.336914062 580.833007812 640.669921875 573.5 632.002929688 c 0
 566.166992188 623.3359375 554.5 619.002929688 538.5 619.002929688 c 0
 501.166992188 620.857421875 462.704101562 621.78515625 423.112304688 621.78515625 c 0
 348.877929688 621.78515625 270.673828125 618.524414062 188.5 612.002929688 c 1
 188.5 600.669921875 188.166992188 582.502929688 187.5 557.502929688 c 0
 186.833007812 532.502929688 186.166015625 507.002929688 185.499023438 481.002929688 c 0
 185.165039062 468.002929688 184.998046875 454.919921875 184.998046875 441.752929688 c 0
 184.998046875 428.5859375 185.165039062 415.3359375 185.499023438 402.001953125 c 1
 215.783203125 405.430664062 249.005859375 407.145507812 285.166992188 407.145507812 c 0
 291.1953125 407.145507812 297.305664062 407.09765625 303.498046875 407.001953125 c 0
 346.831054688 406.334960938 386.1640625 404.501953125 421.497070312 401.501953125 c 0
 456.830078125 398.501953125 484.497070312 395.334960938 504.497070312 392.001953125 c 0
 520.497070312 389.334960938 531.497070312 385.001953125 537.497070312 379.001953125 c 0
 543.497070312 373.001953125 546.830078125 364.668945312 547.497070312 354.001953125 c 0
 547.497070312 348.001953125 546.997070312 342.501953125 545.997070312 337.501953125 c 0
 544.997070312 332.501953125 543.1640625 327.668945312 540.497070312 323.001953125 c 0
 537.830078125 318.334960938 533.497070312 314.834960938 527.497070312 312.501953125 c 0
 521.497070312 310.168945312 513.830078125 309.3359375 504.497070312 310.002929688 c 0
 483.830078125 313.3359375 455.497070312 316.168945312 419.497070312 318.501953125 c 0
 383.497070312 320.834960938 342.997070312 322.16796875 297.997070312 322.500976562 c 0
 295 322.5234375 292.038085938 322.534179688 289.110351562 322.534179688 c 0
 248.081054688 322.534179688 213.875976562 320.356445312 186.497070312 316 c 1xe4
 190.497070312 139.333007812 192.830078125 42 193.497070312 24 c 0xe8
EndSplineSet
EndChar

StartChar: G
Encoding: 71 71 39
Width: 670
GlyphClass: 2
Flags: HMW
HStem: -31.0616 90.0616 278 81.8571 643.002 80.999
VStem: 75.665 100.001
LayerCount: 2
Fore
SplineSet
563.669921875 244 m 0
 562.336914062 230 558.162109375 213.669921875 551.162109375 195.002929688 c 0
 544.162109375 176.3359375 535.495117188 156.502929688 525.162109375 135.502929688 c 0
 514.829101562 114.502929688 501.49609375 94.169921875 485.163085938 74.5029296875 c 0
 468.830078125 54.8359375 451.663085938 37.0029296875 433.663085938 21.0029296875 c 0
 415.663085938 5.0029296875 394.663085938 -7.830078125 370.663085938 -17.4970703125 c 0
 348.211914062 -26.5400390625 326.052734375 -31.0615234375 304.185546875 -31.0615234375 c 0
 302.676757812 -31.0615234375 301.168945312 -31.0400390625 299.663085938 -30.9970703125 c 0
 272.330078125 -30.9970703125 246.497070312 -26.330078125 222.1640625 -16.9970703125 c 0
 197.831054688 -7.6640625 176.998046875 4.6689453125 159.665039062 20.001953125 c 0
 142.33203125 35.3349609375 127.165039062 53.16796875 114.165039062 73.5009765625 c 0
 101.165039062 93.833984375 91.498046875 115.500976562 85.1650390625 138.500976562 c 0
 78.83203125 161.500976562 75.6650390625 184.66796875 75.6650390625 208.000976562 c 0
 75.6650390625 257.333984375 80.498046875 305.333984375 90.1650390625 352.000976562 c 0
 99.83203125 398.66796875 113.33203125 440.66796875 130.665039062 478.000976562 c 0
 147.998046875 515.333984375 167.998046875 549.500976562 190.665039062 580.500976562 c 0
 213.33203125 611.500976562 237.499023438 637.500976562 263.166015625 658.500976562 c 0
 288.833007812 679.500976562 315 695.66796875 341.666992188 707.000976562 c 0
 368.333984375 718.333984375 394.000976562 724.000976562 418.66796875 724.000976562 c 0
 446.66796875 724.000976562 477.834960938 717.500976562 512.16796875 704.500976562 c 0
 546.500976562 691.500976562 569.000976562 680.333984375 579.66796875 671.000976562 c 0
 589.446289062 661.22265625 594.334960938 649.518554688 594.334960938 635.888671875 c 0
 594.334960938 629.07421875 593.11328125 621.778320312 590.668945312 614.000976562 c 0
 588.001953125 605.333984375 581.668945312 599.000976562 571.668945312 595.000976562 c 0
 566.668945312 593.000976562 561.501953125 592.000976562 556.168945312 592.000976562 c 0
 550.8359375 592.000976562 545.3359375 593.000976562 539.669921875 595.000976562 c 0
 535.669921875 596.333984375 526.502929688 601.333984375 512.169921875 610.000976562 c 0
 497.836914062 618.66796875 483.169921875 626.334960938 468.169921875 633.001953125 c 0
 453.169921875 639.668945312 439.336914062 643.001953125 426.669921875 643.001953125 c 0
 406.002929688 643.001953125 383.8359375 636.168945312 360.168945312 622.501953125 c 0
 336.501953125 608.834960938 313.834960938 589.16796875 292.16796875 563.500976562 c 0
 270.500976562 537.833984375 250.833984375 508.666992188 233.166992188 476 c 0
 215.5 443.333007812 201.5 406.333007812 191.166992188 365 c 0
 180.833984375 323.666992188 175.666992188 282 175.666992188 240 c 0
 175.666992188 210.666992188 181.333984375 182 192.666992188 154 c 0
 204 126 220.166992188 103.166992188 241.166992188 85.5 c 0
 262.166992188 67.8330078125 285.333984375 59 310.666992188 59 c 0
 326.666992188 59 343.166992188 64.1669921875 360.166992188 74.5 c 0
 377.166992188 84.8330078125 392.333984375 98 405.666992188 114 c 0
 419 130 431.5 148 443.166992188 168 c 0
 454.833984375 188 464.833984375 207.333007812 473.166992188 226 c 0
 481.5 244.666992188 488 262 492.666992188 278 c 1
 450.666992188 276 409.5 272.333007812 369.166992188 267 c 0
 328.833984375 261.666992188 301.000976562 254.666992188 285.66796875 246 c 0
 280.299804688 243.158203125 275.043945312 241.737304688 269.900390625 241.737304688 c 0
 264.184570312 241.737304688 258.607421875 243.491210938 253.168945312 247 c 0
 242.8359375 253.666992188 237.002929688 262.666992188 235.669921875 274 c 0
 235.1796875 277.1015625 234.934570312 280.118164062 234.934570312 283.05078125 c 0
 234.934570312 304.064453125 247.512695312 320.713867188 272.668945312 333 c 0
 291.3359375 342.333007812 332.168945312 349.5 395.168945312 354.5 c 0
 440.168945312 358.071289062 478.111328125 359.857421875 508.99609375 359.857421875 c 0
 521.349609375 359.857421875 532.57421875 359.571289062 542.668945312 359 c 0
 559.3359375 358.333007812 570.8359375 355.5 577.168945312 350.5 c 0
 583.501953125 345.5 588.001953125 337.666992188 590.668945312 327 c 0
 591.024414062 323.7109375 591.202148438 320.587890625 591.202148438 317.630859375 c 0
 591.202148438 298.41015625 583.69140625 286.200195312 568.669921875 281 c 0
 568.669921875 279 567.836914062 273.666992188 566.169921875 265 c 0
 564.502929688 256.333007812 563.669921875 249.333007812 563.669921875 244 c 0
EndSplineSet
EndChar

StartChar: H
Encoding: 72 72 40
Width: 670
GlyphClass: 2
Flags: HMW
HStem: -21.0741 21G 311.999 86.001 694.074 20G
VStem: 102.63 98.002 473.723 99.5773
LayerCount: 2
Fore
SplineSet
566.633789062 24 m 0
 565.30078125 10 558.799804688 -1.169921875 547.1328125 -9.5029296875 c 0
 536.329101562 -17.21875 524.528320312 -21.076171875 511.725585938 -21.076171875 c 0
 510.700195312 -21.076171875 509.668945312 -21.0517578125 508.6328125 -21.001953125 c 0
 495.299804688 -21.001953125 484.299804688 -16.501953125 475.6328125 -7.501953125 c 0
 468.12109375 0.2978515625 464.364257812 10.7275390625 464.364257812 23.7861328125 c 0
 464.364257812 25.794921875 464.454101562 27.865234375 464.631835938 29.998046875 c 0
 470.692382812 114.237304688 473.72265625 207.841796875 473.72265625 310.811523438 c 0
 473.72265625 321.11328125 473.692382812 331.508789062 473.631835938 341.998046875 c 1
 462.297851562 341.331054688 421.465820312 336.1640625 351.1328125 326.497070312 c 0
 280.799804688 316.830078125 230.6328125 311.997070312 200.6328125 311.997070312 c 1
 200.6328125 309.997070312 200.465820312 306.497070312 200.1328125 301.497070312 c 0
 199.799804688 296.497070312 199.6328125 292.997070312 199.6328125 290.997070312 c 0
 197.6328125 257.997070312 196.6328125 219.247070312 196.6328125 174.747070312 c 0
 196.6328125 130.247070312 197.6328125 79.9970703125 199.6328125 23.9970703125 c 0
 198.299804688 9.9970703125 191.6328125 -1.169921875 179.6328125 -9.5029296875 c 0
 168.522460938 -17.21875 156.5546875 -21.076171875 143.729492188 -21.076171875 c 0
 142.703125 -21.076171875 141.670898438 -21.0517578125 140.633789062 -21.001953125 c 0
 127.30078125 -21.001953125 116.30078125 -16.501953125 107.633789062 -7.501953125 c 0
 100.122070312 0.298828125 96.3662109375 10.728515625 96.3662109375 23.787109375 c 0
 96.3662109375 25.7958984375 96.455078125 27.8662109375 96.6328125 29.9990234375 c 0
 97.2998046875 39.33203125 97.7998046875 54.33203125 98.1328125 74.9990234375 c 0
 98.4658203125 95.666015625 98.6328125 123.333007812 98.6328125 158 c 0
 98.6328125 192.666992188 98.9658203125 224 99.6328125 252 c 0
 99.6328125 274.666992188 100.299804688 307.166992188 101.6328125 349.5 c 0
 102.965820312 391.833007812 103.798828125 423.166015625 104.131835938 443.499023438 c 0
 104.243164062 450.270507812 104.298828125 458.168945312 104.298828125 467.1953125 c 0
 104.298828125 485.2734375 104.076171875 507.875 103.630859375 535 c 0
 102.963867188 565 102.630859375 584.166992188 102.630859375 592.5 c 0
 102.630859375 600.833007812 102.963867188 612.333007812 103.630859375 627 c 0
 104.297851562 641.666992188 104.96484375 652.666992188 105.631835938 660 c 0
 106.298828125 678 111.131835938 691.5 120.131835938 700.5 c 0
 129.131835938 709.5 140.631835938 714 154.631835938 714 c 0
 155.71875 714.049804688 156.791992188 714.07421875 157.8515625 714.07421875 c 0
 171.088867188 714.07421875 182.182617188 710.216796875 191.1328125 702.500976562 c 0
 200.799804688 694.16796875 205.6328125 681.000976562 205.6328125 663.000976562 c 0
 205.6328125 656.333984375 204.799804688 642.000976562 203.1328125 620.000976562 c 0
 201.465820312 598.000976562 200.6328125 577.66796875 200.6328125 559.000976562 c 0
 200.6328125 541.66796875 200.965820312 515.16796875 201.6328125 479.500976562 c 0
 202.299804688 443.833984375 202.6328125 416.666992188 202.6328125 398 c 1
 237.299804688 398 272.965820312 400 309.633789062 404 c 0
 346.30078125 408 379.633789062 412 409.633789062 416 c 0
 439.633789062 420 460.633789062 422.666992188 472.633789062 424 c 1
 472.633789062 428.666992188 472.30078125 435.5 471.633789062 444.5 c 0
 470.965820312 453.5 470.633789062 460.333007812 470.633789062 465 c 0
 469.965820312 506.333007812 469.633789062 533.666015625 469.633789062 546.999023438 c 0
 469.633789062 560.33203125 470.133789062 580.999023438 471.133789062 608.999023438 c 0
 472.133789062 636.999023438 472.965820312 653.999023438 473.633789062 659.999023438 c 0
 473.633789062 677.999023438 478.465820312 691.499023438 488.133789062 700.499023438 c 0
 497.80078125 709.499023438 509.30078125 713.999023438 522.633789062 713.999023438 c 0
 523.719726562 714.048828125 524.793945312 714.073242188 525.852539062 714.073242188 c 0
 539.090820312 714.073242188 550.184570312 710.215820312 559.133789062 702.5 c 0
 568.801757812 694.166992188 573.633789062 681 573.633789062 663 c 0
 573.633789062 650.333007812 573.301757812 624.333007812 572.633789062 585 c 0
 571.967773438 545.666992188 571.467773438 511.166992188 571.133789062 481.5 c 0
 571.067382812 475.5703125 571.03515625 469.114257812 571.03515625 462.131835938 c 0
 571.03515625 434.18359375 571.567382812 397.806640625 572.633789062 353 c 0
 573.079101562 337.448242188 573.30078125 320.267578125 573.30078125 301.458007812 c 0
 573.30078125 263.825195312 572.411132812 219.672851562 570.633789062 169 c 0
 567.965820312 93 566.633789062 44.6669921875 566.633789062 24 c 0
EndSplineSet
EndChar

StartChar: I
Encoding: 73 73 41
Width: 670
GlyphClass: 2
Flags: HMW
HStem: -13.998 80.001 -6.39919 77.8992 612.001 89.001 625.002 85.3327
VStem: 280.043 101.995 288.109 100.596
LayerCount: 2
Fore
SplineSet
543.036132812 -11 m 0x68
 525.703125 -8.3330078125 497.213867188 -6.8310546875 457.546875 -6.498046875 c 0
 449.618164062 -6.431640625 441.743164062 -6.3984375 433.920898438 -6.3984375 c 0x68
 402.609375 -6.3984375 372.151367188 -6.931640625 342.546875 -7.998046875 c 0
 305.546875 -9.3310546875 265.879882812 -10.6640625 223.546875 -11.9970703125 c 0
 181.213867188 -13.330078125 151.713867188 -13.9970703125 135.046875 -13.9970703125 c 0
 117.713867188 -13.9970703125 105.046875 -10.6640625 97.046875 -3.9970703125 c 0
 85.25 5.833984375 84.9638671875 17.4921875 84.9638671875 24.966796875 c 0
 84.9638671875 35.6865234375 88.32421875 44.865234375 95.0458984375 52.50390625 c 0
 102.37890625 60.8369140625 114.711914062 65.3369140625 132.044921875 66.00390625 c 0
 160.043945312 67.3369140625 209.377929688 69.00390625 280.043945312 71.00390625 c 1x88
 285.421875 154.600585938 288.110351562 241.782226562 288.110351562 332.547851562 c 0
 288.110351562 365.559570312 287.754882812 399.044921875 287.043945312 433.004882812 c 0
 286.375976562 457.004882812 285.875976562 479.671875 285.543945312 501.004882812 c 0
 285.2109375 522.337890625 285.043945312 537.670898438 285.043945312 547.00390625 c 0
 285.043945312 556.336914062 285.7109375 570.836914062 287.043945312 590.50390625 c 0
 288.375976562 610.170898438 289.043945312 621.670898438 289.043945312 625.00390625 c 0
 258.709960938 625.669921875 231.375976562 626.002929688 207.041992188 626.002929688 c 0
 182.708007812 626.002929688 161.374023438 625.669921875 143.040039062 625.002929688 c 0
 126.374023438 625.002929688 113.541015625 628.669921875 104.541015625 636.002929688 c 0
 91.2666015625 646.818359375 90.966796875 659.26953125 90.966796875 666.641601562 c 0
 90.966796875 677.5234375 94.82421875 686.9765625 102.540039062 695.000976562 c 0
 110.873046875 703.66796875 124.040039062 708.000976562 142.040039062 708.000976562 c 0
 197.598632812 709.556640625 249.305664062 710.334960938 297.161132812 710.334960938 c 0x94
 392.860351562 710.334960938 473.153320312 707.223632812 538.040039062 701.001953125 c 0
 567.372070312 698.334960938 582.706054688 684.66796875 584.0390625 660.000976562 c 0
 584.0390625 654.000976562 583.206054688 648.16796875 581.5390625 642.500976562 c 0
 579.872070312 636.833984375 577.0390625 631.333984375 573.0390625 626.000976562 c 0
 569.0390625 620.66796875 563.706054688 616.500976562 557.0390625 613.500976562 c 0
 550.372070312 610.500976562 543.372070312 610.000976562 536.0390625 612.000976562 c 0
 516.0390625 615.333984375 467.0390625 619.000976562 389.0390625 623.000976562 c 1
 389.0390625 617.66796875 388.706054688 602.66796875 388.0390625 578.000976562 c 0
 387.372070312 553.333984375 387.0390625 533.666992188 387.0390625 519 c 2
 387.0390625 456 l 2
 387.0390625 428.666992188 387.372070312 401.666992188 388.0390625 375 c 0
 388.483398438 359.2265625 388.704101562 342.157226562 388.704101562 323.791992188 c 0x24
 388.704101562 287.047851562 387.81640625 245.1171875 386.038085938 198 c 0
 383.37109375 127.333007812 382.038085938 85.3330078125 382.038085938 72 c 1
 410.704101562 72 444.038085938 71.8330078125 482.038085938 71.5 c 0
 520.038085938 71.1669921875 540.37109375 71 543.038085938 71 c 0
 558.37109375 71 569.204101562 67.5 575.536132812 60.5 c 0
 581.870117188 53.5 585.036132812 44.3330078125 585.036132812 33 c 0
 585.036132812 27 584.704101562 21.5 584.036132812 16.5 c 0
 583.370117188 11.5 581.370117188 6.5 578.036132812 1.5 c 0
 574.704101562 -3.5 570.204101562 -7.1669921875 564.536132812 -9.5 c 0
 558.870117188 -11.8330078125 551.703125 -12.3330078125 543.036132812 -11 c 0x68
EndSplineSet
EndChar

StartChar: J
Encoding: 74 74 42
Width: 670
GlyphClass: 2
Flags: HMW
HStem: -35.001 101.001 625 82.999
VStem: 82.1683 89 345.168 93.9971
LayerCount: 2
Fore
SplineSet
436.165039062 215 m 0
 430.83203125 155 422.833007812 106.33203125 412.166015625 68.9990234375 c 0
 401.499023438 31.666015625 388.499023438 4.9990234375 373.166015625 -11.0009765625 c 0
 357.833007812 -27.0009765625 339.833007812 -35.0009765625 319.166015625 -35.0009765625 c 0
 296.499023438 -35.0009765625 274.166015625 -31.0009765625 252.166015625 -23.0009765625 c 0
 230.166015625 -15.0009765625 210.999023438 -4.333984375 194.666015625 8.9990234375 c 0
 178.333007812 22.33203125 163.166015625 36.83203125 149.166015625 52.4990234375 c 0
 135.166015625 68.166015625 123.499023438 83.8330078125 114.166015625 99.5 c 0
 104.833007812 115.166992188 97.5 129.166992188 92.1669921875 141.5 c 0
 86.833984375 153.833007812 83.833984375 163.666015625 83.1669921875 170.999023438 c 0
 81.833984375 176.999023438 81.5009765625 184.166015625 82.16796875 192.499023438 c 0
 82.8349609375 200.83203125 84.3349609375 208.665039062 86.66796875 215.998046875 c 0
 89.0009765625 223.331054688 93.0009765625 229.831054688 98.66796875 235.498046875 c 0
 104.334960938 241.165039062 112.16796875 244.665039062 122.16796875 245.998046875 c 0
 125.723632812 246.64453125 129.11328125 246.967773438 132.3359375 246.967773438 c 0
 142.40625 246.967773438 150.849609375 243.811523438 157.66796875 237.499023438 c 0
 166.66796875 229.166015625 171.16796875 218.666015625 171.16796875 205.999023438 c 0
 171.16796875 198.666015625 172.500976562 189.833007812 175.16796875 179.5 c 0
 177.834960938 169.166992188 182.334960938 157.166992188 188.66796875 143.5 c 0
 195.000976562 129.833007812 202.833984375 117.333007812 212.166992188 106 c 0
 221.5 94.6669921875 234.666992188 85.1669921875 251.666992188 77.5 c 0
 268.666992188 69.8330078125 286.833984375 66 306.166992188 66 c 0
 330.166992188 66 343.833984375 124 347.166992188 240 c 0
 347.166992188 254.666992188 346.5 301.666992188 345.166992188 381 c 0
 344.500976562 420.666015625 344.16796875 460.749023438 344.16796875 501.249023438 c 0
 344.16796875 541.749023438 344.500976562 582.666015625 345.166992188 624 c 1
 300.368164062 625.200195312 258.688476562 625.799804688 220.12890625 625.799804688 c 0
 194.421875 625.799804688 170.1015625 625.533203125 147.16796875 625 c 0
 130.500976562 625 117.833984375 628.666992188 109.166992188 636 c 0
 96.4384765625 646.76953125 96.0927734375 659.155273438 96.0927734375 666.639648438 c 0
 96.0927734375 677.521484375 99.9501953125 686.974609375 107.666015625 694.999023438 c 0
 115.999023438 703.666015625 128.83203125 707.999023438 146.165039062 707.999023438 c 0
 201.724609375 709.5546875 253.39453125 710.333007812 301.174804688 710.333007812 c 0
 396.7265625 710.333007812 476.723632812 707.221679688 541.166015625 701 c 0
 570.499023438 698.333007812 586.166015625 684.666015625 588.166015625 659.999023438 c 0
 588.166015625 653.999023438 587.166015625 648.166015625 585.166015625 642.499023438 c 0
 583.166015625 636.83203125 580.499023438 631.33203125 577.166015625 625.999023438 c 0
 573.833007812 620.666015625 568.833007812 616.499023438 562.166015625 613.499023438 c 0
 555.499023438 610.499023438 547.83203125 609.999023438 539.165039062 611.999023438 c 0
 515.83203125 615.33203125 480.165039062 618.33203125 432.165039062 620.999023438 c 1
 432.165039062 601.666015625 432.83203125 572.333007812 434.165039062 533 c 0
 435.498046875 493.666992188 436.665039062 457.833984375 437.665039062 425.500976562 c 0
 438.665039062 393.16796875 439.165039062 357.16796875 439.165039062 317.500976562 c 0
 439.165039062 277.833984375 438.165039062 243.666992188 436.165039062 215 c 0
EndSplineSet
EndChar

StartChar: K
Encoding: 75 75 43
Width: 670
GlyphClass: 2
Flags: HMW
HStem: -21.0751 21G 694.072 20G
VStem: 91.7335 95.2646
LayerCount: 2
Fore
SplineSet
194.999023438 24 m 0
 193.666015625 10 187.170898438 -1.16796875 175.502929688 -9.5009765625 c 0
 164.701171875 -17.216796875 152.612304688 -21.07421875 139.239257812 -21.07421875 c 0
 138.168945312 -21.07421875 137.08984375 -21.0498046875 136.002929688 -21 c 0
 122.669921875 -21 111.669921875 -16.5 103.002929688 -7.5 c 0
 95.4912109375 0.30078125 91.7353515625 10.73046875 91.7353515625 23.7890625 c 0
 91.7353515625 25.7978515625 91.82421875 27.8681640625 92.001953125 30.0009765625 c 0
 93.501953125 52 94.251953125 89.091796875 94.251953125 141.276367188 c 0
 94.251953125 158.673828125 94.1689453125 177.748046875 94.001953125 198.5 c 0
 93.3349609375 281.5 91.66796875 367 89.0009765625 455 c 0
 87.66796875 497.666992188 87.0009765625 526.5 87.0009765625 541.5 c 0
 87.0009765625 556.5 87.5009765625 578.166992188 88.5009765625 606.5 c 0
 89.5009765625 634.833007812 90.0009765625 652.666015625 90.0009765625 659.999023438 c 0
 90.66796875 677.999023438 95.66796875 691.499023438 105.000976562 700.499023438 c 0
 114.333984375 709.499023438 126.000976562 713.999023438 140.000976562 713.999023438 c 0
 141.087890625 714.048828125 142.161132812 714.073242188 143.220703125 714.073242188 c 0
 156.458007812 714.073242188 167.551757812 710.215820312 176.501953125 702.5 c 0
 186.168945312 694.166992188 191.001953125 681 191.001953125 663 c 0
 191.001953125 647 190.334960938 612 189.001953125 558 c 0
 187.668945312 504 187.001953125 459.333007812 187.001953125 424 c 1
 211.001953125 447.333007812 247.001953125 482.666015625 295.001953125 529.999023438 c 0
 343.001953125 577.33203125 381.334960938 614.83203125 410.001953125 642.499023438 c 0
 438.668945312 670.166015625 457.001953125 687.333007812 465.001953125 694 c 0
 474.334960938 702.666992188 483.334960938 708.5 492.001953125 711.5 c 0
 500.668945312 714.5 508.168945312 715.166992188 514.501953125 713.5 c 0
 520.834960938 711.833007812 526.666992188 708.333007812 532.000976562 703 c 0
 539.510742188 694.911132812 543.267578125 685.946289062 543.267578125 676.10546875 c 0
 543.267578125 663.235351562 536.844726562 648.8671875 523.999023438 633 c 0
 513.999023438 621 478.666992188 584.5 417.999023438 523.5 c 0
 357.333007812 462.5 303.333007812 409.333007812 255.999023438 364 c 1
 278.666992188 340 317.166992188 302.5 371.499023438 251.5 c 0
 425.833007812 200.5 472.999023438 155.666992188 512.999023438 117 c 0
 552.999023438 78.3330078125 575.333007812 54 579.999023438 44 c 0
 581.999023438 37.666015625 582.999023438 31.666015625 582.999023438 25.9990234375 c 0
 582.999023438 20.33203125 581.999023438 14.9990234375 579.999023438 9.9990234375 c 0
 575.999023438 -0.0009765625 569.999023438 -7.66796875 561.999023438 -13.0009765625 c 0
 553.724609375 -18.5986328125 545.494140625 -21.3974609375 537.307617188 -21.3974609375 c 0
 523.069335938 -21.3974609375 508.967773438 -12.931640625 494.999023438 4 c 0
 488.331054688 12.6669921875 464.499023438 35.6669921875 423.499023438 73 c 0
 382.499023438 110.333007812 338.331054688 151.5 290.999023438 196.5 c 0
 243.666015625 241.5 208.999023438 277.333007812 186.999023438 304 c 1
 186.999023438 284 l 2
 186.999023438 272.666992188 189.666015625 186 194.999023438 24 c 0
EndSplineSet
EndChar

StartChar: L
Encoding: 76 76 44
Width: 670
GlyphClass: 2
Flags: HMW
HStem: -15.0049 86.9159
VStem: 87.1323 103.002 116.932 91.7021
LayerCount: 2
Fore
SplineSet
540.134765625 10 m 0xc0
 494.801757812 1.3330078125 426.133789062 -5.005859375 334.133789062 -9.005859375 c 0
 242.133789062 -13.005859375 174.466796875 -15.005859375 131.1328125 -15.005859375 c 0
 117.80078125 -15.005859375 106.80078125 -10.505859375 98.1328125 -1.505859375 c 0
 90.62109375 6.294921875 86.865234375 16.724609375 86.865234375 29.783203125 c 0
 86.865234375 31.7919921875 86.955078125 33.8623046875 87.1328125 35.9951171875 c 0xc0
 87.1328125 41.328125 90.96484375 79.4951171875 98.6328125 150.495117188 c 0
 106.298828125 221.495117188 111.798828125 289.995117188 115.1328125 355.995117188 c 0
 116.33203125 373.995117188 116.931640625 400.994140625 116.931640625 436.993164062 c 0
 116.931640625 460.993164062 116.666015625 488.994140625 116.1328125 520.995117188 c 0
 114.798828125 600.995117188 114.1328125 644.328125 114.1328125 650.995117188 c 0
 114.798828125 668.995117188 119.966796875 682.662109375 129.6328125 691.995117188 c 0
 139.30078125 701.328125 150.80078125 705.995117188 164.133789062 705.995117188 c 0
 165.220703125 706.044921875 166.293945312 706.069335938 167.353515625 706.069335938 c 0
 180.590820312 706.069335938 191.684570312 702.211914062 200.634765625 694.49609375 c 0
 210.301757812 686.163085938 215.134765625 672.99609375 215.134765625 654.99609375 c 0
 215.134765625 635.663085938 214.466796875 609.330078125 213.134765625 575.997070312 c 0
 211.801757812 542.6640625 210.301757812 500.6640625 208.634765625 449.997070312 c 0xa0
 206.966796875 399.330078125 205.466796875 355.330078125 204.134765625 317.997070312 c 0
 203.466796875 289.997070312 200.966796875 249.330078125 196.634765625 195.997070312 c 0
 192.301757812 142.6640625 190.134765625 101.331054688 190.134765625 71.998046875 c 1
 195.005859375 71.9404296875 199.946289062 71.9111328125 204.955078125 71.9111328125 c 0
 257.541015625 71.9111328125 317.767578125 75.107421875 385.634765625 81.498046875 c 0
 459.966796875 88.498046875 509.466796875 95.3310546875 534.134765625 101.998046875 c 0
 542.134765625 103.998046875 549.301757812 103.665039062 555.634765625 100.998046875 c 0
 561.966796875 98.3310546875 566.966796875 94.3310546875 570.634765625 88.998046875 c 0
 574.301757812 83.6650390625 577.301757812 77.83203125 579.634765625 71.4990234375 c 0
 581.966796875 65.166015625 583.134765625 59.3330078125 583.134765625 54 c 0
 583.134765625 42 580.134765625 32.3330078125 574.134765625 25 c 0
 568.134765625 17.6669921875 556.801757812 12.6669921875 540.134765625 10 c 0xc0
EndSplineSet
EndChar

StartChar: M
Encoding: 77 77 45
Width: 670
GlyphClass: 2
Flags: HMW
HStem: -9.99414 21G<104.999 111.665>
VStem: 68.9975 83.001 281 104.999
LayerCount: 2
Fore
SplineSet
151.998046875 59 m 0
 152.04296875 57.578125 152.06640625 56.17578125 152.06640625 54.7939453125 c 0
 152.06640625 35.443359375 147.708984375 20.0166015625 138.998046875 8.505859375 c 0
 129.666015625 -3.8271484375 118.33203125 -9.994140625 105 -9.994140625 c 0
 81 -9.3271484375 69 15.33984375 69 64.0068359375 c 0
 69 72.0068359375 70 85.673828125 72 105.006835938 c 0
 74 124.33984375 76.5 149.672851562 79.5 181.005859375 c 0
 82.5 212.338867188 85 239.671875 87 263.004882812 c 0
 87.666015625 271.004882812 88.666015625 283.337890625 90 300.004882812 c 0
 94 349.337890625 97.166015625 387.837890625 99.5 415.504882812 c 0
 101.83203125 443.171875 105.33203125 477.671875 110 519.004882812 c 0
 114.666015625 560.337890625 118.833984375 592.837890625 122.5 616.504882812 c 0
 126.16796875 640.171875 130.66796875 656.671875 136 666.004882812 c 0
 142.666992188 680.004882812 152.833984375 690.171875 166.501953125 696.504882812 c 0
 177.791015625 701.736328125 188.740234375 704.352539062 199.349609375 704.352539062 c 0
 201.581054688 704.352539062 203.798828125 704.236328125 206.001953125 704.004882812 c 0
 236.001953125 704.004882812 254.66796875 691.671875 262.001953125 667.004882812 c 0
 270.001953125 637.671875 278.66796875 589.171875 288.001953125 521.504882812 c 0
 297.333984375 453.837890625 306.833984375 376.670898438 316.501953125 290.00390625 c 0
 326.16796875 203.336914062 333.001953125 146.00390625 337.001953125 118.00390625 c 1
 343.66796875 212.00390625 351.334960938 296.670898438 360.001953125 372.00390625 c 0
 366.001953125 427.336914062 374.169921875 483.00390625 384.501953125 539.00390625 c 0
 394.834960938 595.00390625 404.001953125 637.670898438 412.001953125 667.00390625 c 0
 414.669921875 677.00390625 420.169921875 685.170898438 428.501953125 691.50390625 c 0
 436.834960938 697.836914062 445.66796875 701.669921875 455.001953125 703.002929688 c 0
 461.221679688 703.891601562 466.998046875 704.3359375 472.330078125 704.3359375 c 0
 474.998046875 704.3359375 477.5546875 704.224609375 480 704.001953125 c 2
 484 704.001953125 l 1
 497.5 704.001953125 l 2
 501.166992188 704.001953125 506.166992188 703.168945312 512.5 701.501953125 c 0
 518.833984375 699.834960938 524 697.66796875 528 695.000976562 c 0
 532 692.333984375 535.666992188 688.166992188 539 682.5 c 0
 542.333984375 676.833007812 544.666015625 670 545.999023438 662 c 0
 548.666015625 642 556.333984375 544.333007812 569 369 c 0
 581.666992188 193.666992188 591 94.6669921875 597 72 c 0
 599.666992188 60.5712890625 601 50.33984375 601 41.3056640625 c 0
 601 18.720703125 592.666992188 3.6181640625 576 -4.0009765625 c 0
 570.208984375 -6.4384765625 564.41796875 -7.6572265625 558.626953125 -7.6572265625 c 2
 537.998046875 -2.5 l 2
 525.331054688 3.8330078125 515.998046875 17.666015625 509.998046875 38.9990234375 c 0
 495.998046875 83.666015625 483.666015625 278.333007812 472.998046875 623 c 1
 453.666015625 526.333007812 440.998046875 438.333007812 434.998046875 359 c 0
 428.998046875 283 420.831054688 210.833007812 410.498046875 142.5 c 0
 400.166015625 74.1669921875 391.998046875 32.333984375 385.998046875 17.0009765625 c 0
 378.666015625 1.0009765625 359.998046875 -6.9990234375 329.998046875 -6.9990234375 c 0
 328.331054688 -7.08203125 326.703125 -7.1240234375 325.115234375 -7.1240234375 c 0
 313.995117188 -7.1240234375 304.791015625 -5.08203125 297.499023438 -0.9990234375 c 0
 289.166015625 3.66796875 283.666015625 10.3349609375 280.999023438 19.001953125 c 0
 272.999023438 51.001953125 259.666015625 124.501953125 240.999023438 239.501953125 c 0
 222.33203125 354.501953125 205.33203125 464.668945312 189.999023438 570.001953125 c 1
 187.999023438 548.668945312 186.166015625 524.668945312 184.499023438 498.001953125 c 0
 182.83203125 471.334960938 181.33203125 448.16796875 179.999023438 428.500976562 c 0
 178.666015625 408.833984375 176.499023438 379.666992188 173.499023438 341 c 0
 170.499023438 302.333007812 168.33203125 273 166.999023438 253 c 0
 165.666015625 225 163.666015625 196.166992188 160.999023438 166.5 c 0
 158.33203125 136.833007812 156.166015625 113.5 154.498046875 96.5 c 0
 152.831054688 79.5 151.998046875 67 151.998046875 59 c 0
EndSplineSet
EndChar

StartChar: N
Encoding: 78 78 46
Width: 670
GlyphClass: 2
Flags: HMW
HStem: -14.1178 21G
VStem: 88.9102 82.7479 488.33 92.5787 497.911 83.18
LayerCount: 2
Fore
SplineSet
506.909179688 -14 m 0xd0
 505.416992188 -14.078125 503.955078125 -14.1181640625 502.5234375 -14.1181640625 c 0
 491.797851562 -14.1181640625 482.7578125 -11.9140625 475.40625 -7.5029296875 c 0
 467.073242188 -2.5029296875 461.240234375 4.330078125 457.907226562 12.9970703125 c 0
 451.907226562 26.330078125 435.907226562 55.6630859375 409.907226562 100.99609375 c 0
 383.907226562 146.329101562 357.07421875 193.49609375 329.407226562 242.49609375 c 0
 301.740234375 291.49609375 272.740234375 346.329101562 242.407226562 406.99609375 c 0
 212.07421875 467.663085938 189.241210938 519.330078125 173.908203125 561.997070312 c 1
 177.108398438 503.86328125 178.708007812 448.9296875 178.708007812 397.196289062 c 0
 178.708007812 384.262695312 178.608398438 371.529296875 178.408203125 358.99609375 c 0
 177.408203125 296.329101562 175.908203125 232.49609375 173.908203125 167.49609375 c 0
 172.408203125 118.748046875 171.658203125 84.3427734375 171.658203125 64.2802734375 c 0
 171.658203125 55.919921875 171.974609375 44.9990234375 171.974609375 44.8046875 c 0
 171.974609375 25.599609375 167.619140625 11.330078125 158.908203125 1.9970703125 c 0
 150.159179688 -7.3779296875 139.65234375 -12.0654296875 127.387695312 -12.0654296875 c 0
 126.569335938 -12.0654296875 125.743164062 -12.044921875 124.909179688 -12.0029296875 c 0
 110.909179688 -12.0029296875 101.409179688 -6.3359375 96.4091796875 4.9970703125 c 0
 91.4091796875 16.330078125 88.9091796875 32.9970703125 88.9091796875 54.9970703125 c 0
 88.9091796875 68.330078125 89.9091796875 119.997070312 91.9091796875 209.997070312 c 0
 93.9091796875 299.997070312 95.2421875 378.6640625 95.9091796875 445.997070312 c 0
 96.076171875 462.83203125 96.1591796875 479.5 96.1591796875 496.001953125 c 0
 96.1591796875 545.5 95.4091796875 593.499023438 93.9091796875 639.998046875 c 0
 93.8134765625 641.903320312 93.765625 643.767578125 93.765625 645.590820312 c 0
 93.765625 656.528320312 95.48046875 665.997070312 98.9091796875 673.99609375 c 0
 102.909179688 683.329101562 108.576171875 690.162109375 115.909179688 694.495117188 c 0
 123.2421875 698.828125 130.909179688 701.828125 138.909179688 703.495117188 c 0
 146.909179688 705.162109375 155.576171875 705.329101562 164.909179688 703.99609375 c 0
 193.576171875 703.99609375 211.576171875 691.663085938 218.909179688 666.99609375 c 0
 232.909179688 622.99609375 271.576171875 541.99609375 334.909179688 423.99609375 c 0
 398.2421875 305.99609375 451.909179688 210.663085938 495.909179688 137.99609375 c 1
 497.6875 179.779296875 498.576171875 234.232421875 498.576171875 301.35546875 c 0
 498.576171875 334.904296875 498.354492188 371.618164062 497.91015625 411.497070312 c 0xd0
 496.577148438 531.1640625 493.577148438 609.997070312 488.91015625 647.997070312 c 0
 488.5234375 651.09375 488.330078125 654.096679688 488.330078125 657.005859375 c 0
 488.330078125 669.12890625 491.690429688 679.625976562 498.411132812 688.497070312 c 0
 506.744140625 699.497070312 517.577148438 704.997070312 530.91015625 704.997070312 c 0
 538.243164062 704.997070312 544.576171875 704.1640625 549.909179688 702.497070312 c 0
 555.2421875 700.830078125 559.409179688 698.830078125 562.409179688 696.497070312 c 0
 565.409179688 694.1640625 567.909179688 690.331054688 569.909179688 684.998046875 c 0
 571.909179688 679.665039062 573.409179688 674.83203125 574.409179688 670.499023438 c 0
 575.409179688 666.166015625 576.576171875 659.333007812 577.909179688 650 c 0
 579.2421875 639.333007812 580.2421875 585.833007812 580.909179688 489.5 c 0xe0
 581.030273438 471.981445312 581.090820312 454.34765625 581.090820312 436.59765625 c 0
 581.090820312 356.741210938 579.86328125 274.541992188 577.409179688 190 c 0
 574.409179688 86.6669921875 569.2421875 27 561.909179688 11 c 0
 555.2421875 -5.6669921875 536.909179688 -14 506.909179688 -14 c 0xd0
EndSplineSet
EndChar

StartChar: O
Encoding: 79 79 47
Width: 670
GlyphClass: 2
Flags: HMW
HStem: -24 83.998 636.997 81.001
VStem: 90.2358 96.3855 483.736 96.0643
LayerCount: 2
Fore
SplineSet
302.237304688 -24 m 0
 260.904296875 -23.3330078125 223.904296875 -10.8369140625 191.237304688 13.49609375 c 0
 158.569335938 37.8291015625 133.403320312 70.49609375 115.736328125 111.49609375 c 0
 98.7119140625 151.004882812 90.2001953125 194.072265625 90.2001953125 240.700195312 c 0
 90.2001953125 242.4609375 90.2119140625 244.2265625 90.236328125 245.997070312 c 2
 90.236328125 262.997070312 l 2
 90.236328125 292.997070312 90.4033203125 316.997070312 90.736328125 334.997070312 c 0
 91.0693359375 352.997070312 92.40234375 376.997070312 94.7353515625 406.997070312 c 0
 97.068359375 436.997070312 101.068359375 465.497070312 106.735351562 492.497070312 c 0
 112.40234375 519.497070312 119.569335938 544.997070312 128.236328125 568.997070312 c 0
 144.903320312 612.330078125 174.569335938 647.997070312 217.237304688 675.997070312 c 0
 259.904296875 703.997070312 307.237304688 717.997070312 359.237304688 717.997070312 c 0
 385.904296875 717.997070312 411.571289062 712.830078125 436.237304688 702.497070312 c 0
 460.905273438 692.1640625 482.905273438 677.331054688 502.237304688 657.998046875 c 0
 521.571289062 638.665039062 537.737304688 613.998046875 550.737304688 583.998046875 c 0
 563.737304688 553.998046875 571.905273438 520.331054688 575.237304688 482.998046875 c 0
 577.905273438 449.665039062 579.405273438 413.998046875 579.737304688 375.998046875 c 0
 579.780273438 371.251953125 579.799804688 366.498046875 579.799804688 361.736328125 c 0
 579.799804688 328.374023438 578.780273438 294.627929688 576.737304688 260.499023438 c 0
 574.405273438 221.499023438 569.905273438 190.666015625 563.237304688 167.999023438 c 0
 554.571289062 136.666015625 543.904296875 109.666015625 531.237304688 86.9990234375 c 0
 518.569335938 64.33203125 504.569335938 45.83203125 489.237304688 31.4990234375 c 0
 473.904296875 17.166015625 456.237304688 5.8330078125 436.237304688 -2.5 c 0
 416.237304688 -10.8330078125 395.737304688 -16.5 374.737304688 -19.5 c 0
 353.737304688 -22.5 329.569335938 -24 302.237304688 -24 c 0
302.237304688 59.99609375 m 0
 320.237304688 59.99609375 337.233398438 62.1640625 353.233398438 66.4970703125 c 0
 369.233398438 70.830078125 384.901367188 77.830078125 400.233398438 87.4970703125 c 0
 415.567382812 97.1640625 429.233398438 109.997070312 441.233398438 125.997070312 c 0
 453.233398438 141.997070312 462.567382812 160.6640625 469.233398438 181.997070312 c 0
 471.901367188 190.6640625 474.568359375 210.6640625 477.235351562 241.997070312 c 0
 479.901367188 273.330078125 482.069335938 310.663085938 483.736328125 353.99609375 c 0
 484.225585938 366.741210938 484.471679688 379.428710938 484.471679688 392.05859375 c 0
 484.471679688 422.370117188 483.059570312 452.349609375 480.236328125 481.99609375 c 0
 476.236328125 525.99609375 462.069335938 562.829101562 437.736328125 592.49609375 c 0
 413.403320312 622.163085938 383.569335938 636.99609375 348.237304688 636.99609375 c 0
 312.237304688 636.99609375 282.069335938 623.829101562 257.737304688 597.49609375 c 0
 233.404296875 571.163085938 215.904296875 534.330078125 205.237304688 486.997070312 c 0
 192.827148438 433.408203125 186.622070312 371.466796875 186.622070312 301.171875 c 0
 186.622070312 288.389648438 186.827148438 275.331054688 187.237304688 261.99609375 c 0
 187.904296875 240.663085938 189.737304688 220.99609375 192.737304688 202.99609375 c 0
 195.737304688 184.99609375 199.904296875 166.99609375 205.237304688 148.99609375 c 0
 210.569335938 130.99609375 217.569335938 115.49609375 226.237304688 102.49609375 c 0
 234.904296875 89.49609375 245.737304688 79.1630859375 258.737304688 71.49609375 c 0
 271.737304688 63.8291015625 286.237304688 59.99609375 302.237304688 59.99609375 c 0
EndSplineSet
EndChar

StartChar: P
Encoding: 80 80 48
Width: 670
GlyphClass: 2
Flags: HMW
HStem: -19.0771 21G 230.001 81.9374 630.003 80.998
VStem: 109.712 94.3366 114.788 102.314 479.046 92.0029
LayerCount: 2
Fore
SplineSet
217.102539062 21.7568359375 m 0xec
 217.102539062 8.837890625 211.583984375 -1.2421875 200.547851562 -8.4951171875 c 0
 189.814453125 -15.548828125 177.811523438 -19.0751953125 164.5390625 -19.0751953125 c 0
 163.384765625 -19.0751953125 162.220703125 -19.048828125 161.046875 -18.9951171875 c 0
 147.046875 -18.9951171875 135.546875 -14.828125 126.546875 -6.4951171875 c 0
 118.708007812 0.7626953125 114.7890625 10.9287109375 114.7890625 24.0029296875 c 0xec
 114.7890625 25.939453125 114.875 27.939453125 115.046875 30.00390625 c 0
 115.713867188 40.6708984375 116.046875 56.50390625 116.046875 77.50390625 c 0
 116.046875 98.50390625 115.879882812 124.50390625 115.546875 155.50390625 c 0
 115.213867188 186.50390625 114.713867188 216.50390625 114.046875 245.50390625 c 0
 113.379882812 274.50390625 112.546875 310.00390625 111.546875 352.00390625 c 0
 110.546875 394.00390625 110.046875 429.00390625 110.046875 457.00390625 c 0
 109.82421875 471.455078125 109.712890625 487.463867188 109.712890625 505.029296875 c 0xf4
 109.712890625 540.134765625 110.157226562 581.458984375 111.045898438 629.002929688 c 0
 107.712890625 632.3359375 105.712890625 634.002929688 105.045898438 634.002929688 c 0
 99.712890625 642.002929688 97.8798828125 650.169921875 99.546875 658.502929688 c 0
 101.213867188 666.8359375 104.880859375 674.3359375 110.547851562 681.002929688 c 0
 116.21484375 687.669921875 122.381835938 691.669921875 129.048828125 693.002929688 c 0
 153.048828125 698.3359375 188.215820312 702.668945312 234.548828125 706.001953125 c 0
 280.881835938 709.334960938 313.381835938 711.001953125 332.048828125 711.001953125 c 0
 377.381835938 711.001953125 417.881835938 703.001953125 453.548828125 687.001953125 c 0
 489.215820312 671.001953125 517.548828125 646.834960938 538.548828125 614.501953125 c 0
 559.548828125 582.168945312 570.381835938 543.668945312 571.048828125 499.001953125 c 0
 571.048828125 461.668945312 564.881835938 426.501953125 552.548828125 393.501953125 c 0
 540.215820312 360.501953125 523.548828125 332.001953125 502.548828125 308.001953125 c 0
 481.548828125 284.001953125 455.715820312 265.001953125 425.048828125 251.001953125 c 0
 394.381835938 237.001953125 361.048828125 230.001953125 325.048828125 230.001953125 c 0
 273.048828125 230.001953125 232.048828125 233.668945312 202.048828125 241.001953125 c 1
 203.381835938 213.001953125 205.048828125 186.168945312 207.048828125 160.501953125 c 0
 209.048828125 134.834960938 211.048828125 108.16796875 213.048828125 80.5009765625 c 0
 215.313476562 49.16796875 217.102539062 24.41796875 217.102539062 21.7568359375 c 0xec
332.047851562 630.005859375 m 0
 308.71484375 630.005859375 266.716796875 627.336914062 206.049804688 622.00390625 c 1
 206.049804688 608.670898438 205.3828125 584.00390625 204.049804688 548.00390625 c 0xf4
 202.716796875 512.00390625 201.716796875 475.00390625 201.049804688 437.00390625 c 0
 200.3828125 399.00390625 200.049804688 362.00390625 200.049804688 326.00390625 c 1
 225.673828125 316.62890625 255.399414062 311.94140625 289.2265625 311.94140625 c 0
 291.482421875 311.94140625 293.756835938 311.961914062 296.049804688 312.00390625 c 0
 315.3828125 312.00390625 332.8828125 313.336914062 348.549804688 316.00390625 c 0
 364.216796875 318.670898438 377.883789062 322.337890625 389.55078125 327.004882812 c 0
 401.217773438 331.671875 411.717773438 337.838867188 421.05078125 345.505859375 c 0
 430.383789062 353.172851562 438.216796875 360.83984375 444.549804688 368.506835938 c 0
 450.8828125 376.173828125 456.215820312 385.173828125 460.548828125 395.506835938 c 0
 464.881835938 405.83984375 468.21484375 415.172851562 470.547851562 423.505859375 c 0
 472.880859375 431.838867188 474.713867188 441.505859375 476.046875 452.505859375 c 0
 477.379882812 463.505859375 478.212890625 472.505859375 478.545898438 479.505859375 c 0
 478.87890625 486.505859375 479.045898438 495.005859375 479.045898438 505.005859375 c 0
 479.045898438 523.672851562 475.545898438 540.505859375 468.545898438 555.505859375 c 0
 461.545898438 570.505859375 452.87890625 582.505859375 442.545898438 591.505859375 c 0
 432.212890625 600.505859375 420.379882812 608.005859375 407.046875 614.005859375 c 0
 393.713867188 620.005859375 380.880859375 624.172851562 368.547851562 626.505859375 c 0
 356.21484375 628.838867188 344.047851562 630.005859375 332.047851562 630.005859375 c 0
EndSplineSet
EndChar

StartChar: Q
Encoding: 81 81 49
Width: 670
GlyphClass: 2
Flags: HMW
HStem: -24.1963 84.2021 637.005 80.9971
VStem: 85.8144 95.6075 290.602 73.1323 483.845 93.3379
LayerCount: 2
Fore
SplineSet
560.744140625 -206 m 0
 553.634765625 -210.443359375 546.225585938 -212.6640625 538.521484375 -212.6640625 c 0
 534.666015625 -212.6640625 530.737304688 -212.108398438 526.735351562 -210.997070312 c 0
 514.735351562 -207.6640625 504.068359375 -199.997070312 494.735351562 -187.997070312 c 0
 485.40234375 -175.997070312 469.40234375 -153.6640625 446.735351562 -120.997070312 c 0
 424.068359375 -88.330078125 402.068359375 -54.9970703125 380.735351562 -20.9970703125 c 1
 366.870117188 -23.130859375 351.938476562 -24.197265625 335.939453125 -24.197265625 c 0
 331.938476562 -24.197265625 327.870117188 -24.130859375 323.735351562 -23.9970703125 c 0
 294.40234375 -23.9970703125 267.069335938 -19.330078125 241.736328125 -9.9970703125 c 0
 216.403320312 -0.6640625 194.5703125 12.3359375 176.237304688 29.0029296875 c 0
 157.904296875 45.669921875 142.071289062 65.5029296875 128.73828125 88.5029296875 c 0
 115.405273438 111.502929688 105.405273438 136.169921875 98.73828125 162.502929688 c 0
 92.0712890625 188.8359375 88.0712890625 216.668945312 86.73828125 246.001953125 c 0
 86.1220703125 263.084960938 85.8134765625 279.766601562 85.8134765625 296.046875 c 0
 85.8134765625 403.024414062 99.1220703125 492.67578125 125.73828125 565.001953125 c 0
 143.071289062 609.001953125 172.73828125 645.501953125 214.73828125 674.501953125 c 0
 256.73828125 703.501953125 303.73828125 718.001953125 355.73828125 718.001953125 c 0
 383.071289062 718.001953125 408.571289062 713.334960938 432.23828125 704.001953125 c 0
 455.905273438 694.668945312 477.405273438 681.001953125 496.73828125 663.001953125 c 0
 516.071289062 645.001953125 532.23828125 620.668945312 545.23828125 590.001953125 c 0
 558.23828125 559.334960938 567.071289062 523.66796875 571.73828125 483.000976562 c 0
 575.368164062 447.220703125 577.18359375 405.2890625 577.18359375 357.20703125 c 0
 577.18359375 343.473632812 577.03515625 329.23828125 576.739257812 314.500976562 c 0
 575.40625 248.16796875 571.073242188 197.66796875 563.740234375 163.000976562 c 0
 549.740234375 91.0009765625 517.073242188 39.66796875 465.740234375 9.0009765625 c 1
 479.073242188 -10.33203125 493.240234375 -29.9990234375 508.240234375 -49.9990234375 c 0
 523.240234375 -69.9990234375 537.573242188 -88.666015625 551.240234375 -105.999023438 c 0
 564.907226562 -123.33203125 574.07421875 -134.999023438 578.741210938 -140.999023438 c 0
 583.408203125 -148.33203125 585.075195312 -156.33203125 583.7421875 -164.999023438 c 0
 582.409179688 -173.666015625 579.576171875 -181.833007812 575.243164062 -189.5 c 0
 570.91015625 -197.166992188 566.077148438 -202.666992188 560.744140625 -206 c 0
183.735351562 262.004882812 m 0
 185.735351562 224.004882812 192.901367188 189.837890625 205.234375 159.504882812 c 0
 217.567382812 129.171875 234.067382812 105.004882812 254.734375 87.0048828125 c 0
 275.401367188 69.0048828125 298.401367188 60.0048828125 323.734375 60.0048828125 c 2
 333.734375 60.0048828125 l 1
 317.734375 90.0048828125 306.401367188 113.337890625 299.734375 130.004882812 c 0
 293.646484375 146.33203125 290.602539062 160.706054688 290.602539062 173.127929688 c 0
 290.602539062 190.630859375 296.646484375 204.256835938 308.734375 214.005859375 c 0
 314.734375 218.672851562 321.234375 221.505859375 328.234375 222.505859375 c 0
 335.234375 223.505859375 341.901367188 221.505859375 348.234375 216.505859375 c 0
 354.567382812 211.505859375 359.734375 204.005859375 363.734375 194.005859375 c 0
 375.734375 160.672851562 393.067382812 124.33984375 415.734375 85.0068359375 c 1
 444.401367188 104.33984375 463.401367188 135.33984375 472.734375 178.006835938 c 0
 474.734375 188.006835938 476.901367188 208.173828125 479.234375 238.506835938 c 0
 481.567382812 268.83984375 483.067382812 306.672851562 483.734375 352.005859375 c 0
 483.80859375 357.044921875 483.845703125 362.059570312 483.845703125 367.049804688 c 0
 483.845703125 406.948242188 481.475585938 445.266601562 476.735351562 482.004882812 c 0
 471.40234375 529.337890625 456.90234375 567.004882812 433.235351562 595.004882812 c 0
 409.568359375 623.004882812 380.068359375 637.004882812 344.735351562 637.004882812 c 0
 308.068359375 637.004882812 277.568359375 624.004882812 253.235351562 598.004882812 c 0
 228.90234375 572.004882812 211.40234375 535.671875 200.735351562 489.004882812 c 0
 187.859375 437.5 181.420898438 382.5 181.420898438 324.004882812 c 0
 181.420898438 303.756835938 182.192382812 283.08984375 183.735351562 262.004882812 c 0
EndSplineSet
EndChar

StartChar: R
Encoding: 82 82 50
Width: 670
GlyphClass: 2
Flags: HMW
HStem: -19.0801 21G 694.06 20G
VStem: 91.0342 95 95.4892 102.598 95.5342 93.498 99.0342 81 476.034 92
LayerCount: 2
Fore
SplineSet
198.0859375 21.755859375 m 0xd2
 198.0859375 8.8369140625 192.571289062 -1.248046875 181.53515625 -8.5 c 0
 170.801757812 -15.5537109375 158.517578125 -19.080078125 144.681640625 -19.080078125 c 0
 143.477539062 -19.080078125 142.26171875 -19.0537109375 141.034179688 -19 c 0
 127.034179688 -19 115.534179688 -14.8330078125 106.534179688 -6.5 c 0
 99.1708984375 0.318359375 95.4892578125 9.703125 95.4892578125 21.6533203125 c 0xd2
 95.4892578125 24.30859375 95.6708984375 27.0908203125 96.0341796875 30 c 0
 98.701171875 64.6669921875 100.034179688 94.1669921875 100.034179688 118.5 c 0
 100.034179688 142.833007812 99.701171875 202.666015625 99.0341796875 297.999023438 c 0xc6
 99.0341796875 310.666015625 99.701171875 337.833007812 101.034179688 379.5 c 0
 101.700195312 400.333984375 102.033203125 420.625976562 102.033203125 440.375976562 c 0
 102.033203125 460.125976562 101.700195312 479.333984375 101.034179688 498 c 0
 100.3671875 520.666992188 98.5341796875 551.333984375 95.5341796875 590.000976562 c 0xca
 92.5341796875 628.66796875 91.0341796875 652.000976562 91.0341796875 660.000976562 c 2
 91.0341796875 666.000976562 l 2xe2
 90.9892578125 666.845703125 90.966796875 667.68359375 90.966796875 668.513671875 c 0
 90.966796875 680.127929688 95.322265625 690.290039062 104.033203125 699.000976562 c 0
 112.190429688 709.040039062 123.299804688 714.059570312 137.361328125 714.059570312 c 0
 138.240234375 714.059570312 139.130859375 714.040039062 140.033203125 714.000976562 c 0
 153.366210938 714.000976562 164.033203125 711.333984375 172.033203125 706.000976562 c 1
 227.366210938 703.333984375 277.533203125 696.166992188 322.533203125 684.5 c 0
 367.533203125 672.833007812 405.033203125 658.333007812 435.033203125 641 c 0
 465.033203125 623.666992188 490.366210938 604 511.033203125 582 c 0
 531.700195312 560 546.3671875 538 555.034179688 516 c 0
 563.701171875 494 568.034179688 471.666992188 568.034179688 449 c 0
 568.034179688 432.333007812 565.8671875 417 561.534179688 403 c 0
 557.201171875 389 551.034179688 376.833007812 543.034179688 366.5 c 0
 535.034179688 356.166992188 524.701171875 347 512.034179688 339 c 0
 499.3671875 331 485.8671875 324.166992188 471.534179688 318.5 c 0
 457.201171875 312.833007812 440.201171875 307.833007812 420.534179688 303.5 c 0
 400.8671875 299.166992188 381.3671875 295.833984375 362.034179688 293.500976562 c 0
 342.701171875 291.16796875 321.034179688 289.000976562 297.034179688 287.000976562 c 1
 364.3671875 252.333984375 423.700195312 211.833984375 475.033203125 165.500976562 c 0
 526.366210938 119.16796875 560.033203125 79.66796875 576.033203125 47.0009765625 c 0
 578.033203125 41.0009765625 579.033203125 35.2509765625 579.033203125 29.7509765625 c 0
 579.033203125 24.2509765625 578.033203125 19.0009765625 576.033203125 14.0009765625 c 0
 572.033203125 4.0009765625 565.700195312 -3.9990234375 557.033203125 -9.9990234375 c 0
 549.700195312 -15.3759765625 541.918945312 -18.064453125 533.689453125 -18.064453125 c 0
 530.696289062 -18.064453125 527.643554688 -17.708984375 524.532226562 -16.998046875 c 0
 512.865234375 -14.3310546875 502.032226562 -6.3310546875 492.032226562 7.001953125 c 0
 481.365234375 21.001953125 466.198242188 38.1689453125 446.53125 58.501953125 c 0
 426.864257812 78.8349609375 403.197265625 101.501953125 375.530273438 126.501953125 c 0
 347.86328125 151.501953125 316.36328125 176.168945312 281.030273438 200.501953125 c 0
 245.697265625 224.834960938 211.364257812 244.334960938 178.03125 259.001953125 c 1
 180.03125 220.334960938 183.698242188 174.66796875 189.03125 122.000976562 c 0xca
 191.907226562 93.6025390625 198.0859375 31.578125 198.0859375 21.755859375 c 0xd2
191.036132812 498 m 0
 191.036132812 490.666992188 190.538085938 480.833984375 189.538085938 468.500976562 c 0
 188.538085938 456.16796875 187.705078125 445.16796875 187.038085938 435.500976562 c 0
 186.37109375 425.833984375 185.204101562 412.500976562 183.537109375 395.500976562 c 0
 181.870117188 378.500976562 180.703125 366.333984375 180.036132812 359.000976562 c 1xc6
 188.036132812 357.4765625 198.321289062 356.71484375 210.891601562 356.71484375 c 0
 220.3203125 356.71484375 231.03515625 357.143554688 243.036132812 358.000976562 c 0
 270.369140625 359.333984375 293.369140625 360.833984375 312.036132812 362.500976562 c 0
 330.703125 364.16796875 349.536132812 366.500976562 368.536132812 369.500976562 c 0
 387.536132812 372.500976562 403.036132812 376.000976562 415.036132812 380.000976562 c 0
 427.036132812 384.000976562 438.036132812 389.000976562 448.036132812 395.000976562 c 0
 458.036132812 401.000976562 465.203125 408.16796875 469.536132812 416.500976562 c 0
 473.869140625 424.833984375 476.036132812 434.333984375 476.036132812 445.000976562 c 0
 476.036132812 463.66796875 469.203125 481.66796875 455.536132812 499.000976562 c 0
 441.869140625 516.333984375 424.536132812 531.666992188 403.536132812 545 c 0
 382.536132812 558.333007812 358.703125 570.5 332.036132812 581.5 c 0
 305.369140625 592.5 279.869140625 601.333007812 255.536132812 608 c 0
 231.203125 614.666992188 208.036132812 620 186.036132812 624 c 1xe2
 188.036132812 575.333007812 189.703125 533.333007812 191.036132812 498 c 0
EndSplineSet
EndChar

StartChar: S
Encoding: 83 83 51
Width: 670
GlyphClass: 2
Flags: HMW
HStem: -29 85<283.494 304.827 283.494 308.164> 645.001 79.001
VStem: 114.829 100.001 486.827 99.0029
LayerCount: 2
Fore
SplineSet
93.8310546875 66 m 0
 87.3916015625 79.3740234375 84.169921875 90.9111328125 84.169921875 100.60546875 c 0
 84.169921875 103.958984375 84.5556640625 107.091796875 85.326171875 110.00390625 c 0
 88.326171875 121.336914062 95.4931640625 130.00390625 106.826171875 136.00390625 c 0
 114.826171875 139.336914062 121.159179688 141.669921875 125.826171875 143.002929688 c 0
 130.493164062 144.3359375 135.66015625 144.668945312 141.327148438 144.001953125 c 0
 146.994140625 143.334960938 152.494140625 140.66796875 157.827148438 136.000976562 c 0
 163.16015625 131.333984375 169.16015625 124.666992188 175.827148438 116 c 0
 187.827148438 98 204.327148438 83.5 225.327148438 72.5 c 0
 246.327148438 61.5 270.16015625 56 296.827148438 56 c 0
 312.827148438 56 329.494140625 58.1669921875 346.827148438 62.5 c 0
 364.16015625 66.8330078125 381.16015625 73.5 397.827148438 82.5 c 0
 414.494140625 91.5 429.494140625 102 442.827148438 114 c 0
 456.16015625 126 466.827148438 140.166992188 474.827148438 156.5 c 0
 482.827148438 172.833007812 486.827148438 190 486.827148438 208 c 0
 486.827148438 218 486.16015625 227 484.827148438 235 c 0
 483.494140625 243 480.994140625 251.666992188 477.327148438 261 c 0
 473.66015625 270.333007812 468.66015625 278.833007812 462.327148438 286.5 c 0
 455.994140625 294.166992188 447.161132812 301.833984375 435.828125 309.500976562 c 0
 424.495117188 317.16796875 411.162109375 324.000976562 395.829101562 330.000976562 c 0
 380.49609375 336.000976562 361.829101562 341.500976562 339.829101562 346.500976562 c 0
 317.829101562 351.500976562 293.162109375 355.333984375 265.829101562 358.000976562 c 0
 241.829101562 360.66796875 219.99609375 367.000976562 200.329101562 377.000976562 c 0
 180.662109375 387.000976562 164.829101562 399.16796875 152.829101562 413.500976562 c 0
 140.829101562 427.833984375 131.49609375 442.833984375 124.829101562 458.500976562 c 0
 118.162109375 474.16796875 114.829101562 490.000976562 114.829101562 506.000976562 c 0
 114.829101562 528.66796875 118.662109375 550.500976562 126.329101562 571.500976562 c 0
 133.99609375 592.500976562 145.829101562 612.333984375 161.829101562 631.000976562 c 0
 177.829101562 649.66796875 197.162109375 665.834960938 219.829101562 679.501953125 c 0
 242.49609375 693.168945312 269.663085938 704.001953125 301.330078125 712.001953125 c 0
 332.997070312 720.001953125 366.830078125 724.001953125 402.830078125 724.001953125 c 0
 420.830078125 724.001953125 445.497070312 722.501953125 476.830078125 719.501953125 c 0
 508.163085938 716.501953125 529.49609375 712.668945312 540.829101562 708.001953125 c 0
 553.49609375 703.334960938 562.663085938 696.001953125 568.330078125 686.001953125 c 0
 572.91796875 677.90625 575.211914062 669.373046875 575.211914062 660.403320312 c 0
 575.211914062 658.293945312 575.084960938 656.16015625 574.831054688 654.001953125 c 0
 574.1640625 646.001953125 571.497070312 639.668945312 566.830078125 635.001953125 c 0
 562.163085938 630.334960938 556.49609375 627.66796875 549.829101562 627.000976562 c 0
 543.162109375 626.333984375 537.162109375 626.166992188 531.829101562 626.5 c 0
 526.49609375 626.833007812 520.829101562 628 514.829101562 630 c 0
 513.49609375 630 511.49609375 630.666992188 508.829101562 632 c 0
 496.829101562 634.666992188 487.329101562 636.833984375 480.329101562 638.500976562 c 0
 473.329101562 640.16796875 462.162109375 641.66796875 446.829101562 643.000976562 c 0
 431.49609375 644.333984375 414.163085938 645.000976562 394.830078125 645.000976562 c 0
 364.163085938 645.000976562 335.330078125 640.500976562 308.330078125 631.500976562 c 0
 281.330078125 622.500976562 258.997070312 609.000976562 241.330078125 591.000976562 c 0
 223.663085938 573.000976562 214.830078125 553.000976562 214.830078125 531.000976562 c 0
 214.830078125 505.000976562 226.163085938 483.000976562 248.830078125 465.000976562 c 0
 271.497070312 447.000976562 303.497070312 437.333984375 344.830078125 436.000976562 c 0
 382.163085938 434.000976562 415.163085938 428.16796875 443.830078125 418.500976562 c 0
 472.497070312 408.833984375 495.497070312 397.166992188 512.830078125 383.5 c 0
 530.163085938 369.833007812 544.663085938 353.833007812 556.330078125 335.5 c 0
 567.997070312 317.166992188 575.830078125 299 579.830078125 281 c 0
 583.830078125 263 585.830078125 244.333007812 585.830078125 225 c 0
 585.830078125 194.333007812 580.663085938 165.5 570.330078125 138.5 c 0
 559.997070312 111.5 545.6640625 87.8330078125 527.331054688 67.5 c 0
 508.998046875 47.1669921875 487.498046875 29.6669921875 462.831054688 15 c 0
 438.1640625 0.3330078125 411.331054688 -10.6669921875 382.331054688 -18 c 0
 353.331054688 -25.3330078125 323.498046875 -29 292.831054688 -29 c 0
 246.1640625 -29 204.831054688 -19.8330078125 168.831054688 -1.5 c 0
 132.831054688 16.8330078125 107.831054688 39.3330078125 93.8310546875 66 c 0
EndSplineSet
EndChar

